<svg xmlns="http://www.w3.org/2000/svg" xmlns:xlink="http://www.w3.org/1999/xlink" width="188.469" height="50.349" viewBox="0 0 188.469 50.349">
  <defs>
    <linearGradient id="linear-gradient" y1="0.5" x2="1" y2="0.5" gradientUnits="objectBoundingBox">
      <stop offset="0" stop-color="#1a1818" stop-opacity="0.251"/>
      <stop offset="0.3" stop-color="#fff" stop-opacity="0"/>
      <stop offset="0.7" stop-color="#fff" stop-opacity="0"/>
      <stop offset="1" stop-color="#1a1818" stop-opacity="0.251"/>
    </linearGradient>
  </defs>
  <g id="_100_logo" data-name="100 logo" transform="translate(-15 -662.396)">
    <g id="Group_126353" data-name="Group 126353" transform="translate(15 662.396)">
      <g id="Group_126334" data-name="Group 126334">
        <g id="Group_126352" data-name="Group 126352" transform="translate(0 0)">
          <path id="Path_289828" data-name="Path 289828" d="M1345.65,349.492" transform="translate(-1321.983 -309.49)" fill="#fff"/>
          <g id="Group_126351" data-name="Group 126351">
            <path id="Path_289829" data-name="Path 289829" d="M1554.334,309.506a17.59,17.59,0,0,1-16.667-11.991,24.5,24.5,0,0,1-5.3,10.135,22.546,22.546,0,0,0,36.358-5.64A17.562,17.562,0,0,1,1554.334,309.506Z" transform="translate(-1466.254 -269.329)" fill="#ce0024"/>
            <path id="Path_289830" data-name="Path 289830" d="M1685.823,238.578l-6.4,2.013-3.956-5.284v6.533l-6.4,2.012,6.4,2.013v6.522l3.95-5.275,6.4,2.015-3.952-5.278Z" transform="translate(-1571.879 -221.263)" fill="#ce0024"/>
            <path id="Path_289831" data-name="Path 289831" d="M1258.315,173.531l-16.769,8.679,5.164,8.968,5.211-2.645V223.88l13.513-10.144V180.167Z" transform="translate(-1241.546 -173.531)" fill="#ce0024"/>
            <path id="Path_289832" data-name="Path 289832" d="M1410.789,173.531a22.564,22.564,0,0,0-21.686,16.375c-.041.141-.074.284-.113.426-.127.48-.249.962-.344,1.454-.061.309-.1.623-.15.935-.054.356-.118.708-.155,1.07-.072.692-.116,1.388-.142,2.119,0,.058.007.114.009.239a11.57,11.57,0,1,1-1.061-4.852,24.07,24.07,0,0,1,5.554-11.076,22.593,22.593,0,1,0,1.026,30.658c.025-.029.052-.055.077-.084.285-.334.555-.679.82-1.029.1-.134.2-.269.3-.406.282-.391.556-.788.813-1.2.042-.067.082-.136.124-.2a23.1,23.1,0,0,0,1.969-4.041c.082-.224.17-.445.246-.672.1-.3.19-.606.28-.911.131-.456.254-.916.356-1.384.031-.137.064-.273.093-.41.455-2.21.05-4.411.328-6.632a17.574,17.574,0,0,1,31.835-7.894A22.563,22.563,0,0,0,1410.789,173.531Z" transform="translate(-1328.495 -173.531)" fill="#ce0024"/>
          </g>
          <path id="Path_289833" data-name="Path 289833" d="M1554.334,309.506a17.59,17.59,0,0,1-16.667-11.991,24.5,24.5,0,0,1-5.3,10.135,22.546,22.546,0,0,0,36.358-5.64A17.562,17.562,0,0,1,1554.334,309.506Z" transform="translate(-1466.254 -269.329)" fill="url(#linear-gradient)" style="mix-blend-mode: multiply;isolation: isolate"/>
          <path id="Path_289834" data-name="Path 289834" d="M1685.823,238.578l-6.4,2.013-3.956-5.284v6.533l-6.4,2.012,6.4,2.013v6.522l3.95-5.275,6.4,2.015-3.952-5.278Z" transform="translate(-1571.879 -221.263)" opacity="0.5" fill="url(#linear-gradient)" style="mix-blend-mode: multiply;isolation: isolate"/>
          <path id="Path_289835" data-name="Path 289835" d="M1410.789,173.531a22.564,22.564,0,0,0-21.686,16.375c-.041.141-.074.284-.113.426-.127.48-.249.962-.344,1.454-.061.309-.1.623-.15.935-.054.356-.118.708-.155,1.07-.072.692-.116,1.388-.142,2.119,0,.058.007.114.009.239a11.57,11.57,0,1,1-1.061-4.852,24.07,24.07,0,0,1,5.554-11.076,22.593,22.593,0,1,0,1.026,30.658c.025-.029.052-.055.077-.084.285-.334.555-.679.82-1.029.1-.134.2-.269.3-.406.282-.391.556-.788.813-1.2.042-.067.082-.136.124-.2a23.1,23.1,0,0,0,1.969-4.041c.082-.224.17-.445.246-.672.1-.3.19-.606.28-.911.131-.456.254-.916.356-1.384.031-.137.064-.273.093-.41.455-2.21.05-4.411.328-6.632a17.574,17.574,0,0,1,31.835-7.894A22.563,22.563,0,0,0,1410.789,173.531Z" transform="translate(-1328.495 -173.531)" opacity="0.5" fill="url(#linear-gradient)" style="mix-blend-mode: multiply;isolation: isolate"/>
          <path id="Path_289836" data-name="Path 289836" d="M1258.315,173.531l-16.769,8.679,5.164,8.968,5.211-2.645V223.88l13.513-10.144V180.167Z" transform="translate(-1241.546 -173.531)" opacity="0.5" fill="url(#linear-gradient)" style="mix-blend-mode: multiply;isolation: isolate"/>
        </g>
      </g>
    </g>
    <path id="Union_265" data-name="Union 265" d="M30.762,33.047v-5.82a.114.114,0,0,1,.118-.122H31.94a.12.12,0,0,1,.123.122V33.21a.739.739,0,0,0,.763.832.73.73,0,0,0,.751-.832V27.228a.114.114,0,0,1,.118-.122h1.06a.115.115,0,0,1,.118.122v5.82a1.888,1.888,0,0,1-2.047,2.129A1.9,1.9,0,0,1,30.762,33.047Zm-4.671.912a9.738,9.738,0,0,1-.158-2.875,9.616,9.616,0,0,1,.158-2.86A1.765,1.765,0,0,1,27.96,27a1.8,1.8,0,0,1,1.991,1.916c.009.069-.012.127-.09.139l-.98.159c-.074.013-.133-.019-.133-.1-.039-.686-.275-.972-.757-.972a.619.619,0,0,0-.657.438,11.474,11.474,0,0,0-.078,2.506,11.465,11.465,0,0,0,.078,2.514.616.616,0,0,0,.657.444c.481,0,.718-.3.757-.978a.1.1,0,0,1,.133-.1l.98.165c.078.013.1.069.09.14a1.8,1.8,0,0,1-1.991,1.909A1.768,1.768,0,0,1,26.091,33.959Zm-11-.912v-5.82a.117.117,0,0,1,.118-.122h1.059a.114.114,0,0,1,.117.122V33.21a.766.766,0,1,0,1.527,0V27.228a.115.115,0,0,1,.117-.122h1.053a.115.115,0,0,1,.12.122v5.82a1.889,1.889,0,0,1-2.047,2.129A1.9,1.9,0,0,1,15.086,33.047Zm-9.877,0v-5.82a.115.115,0,0,1,.12-.122H6.388a.124.124,0,0,1,.125.122V33.21a.74.74,0,0,0,.765.832.729.729,0,0,0,.747-.832V27.228a.117.117,0,0,1,.12-.122H9.21a.118.118,0,0,1,.118.122v5.82a1.889,1.889,0,0,1-2.051,2.129A1.9,1.9,0,0,1,5.209,33.047Zm45,2.023a.105.105,0,0,1-.117-.114V27.228a.115.115,0,0,1,.117-.127h1.061a.119.119,0,0,1,.118.127v7.729a.108.108,0,0,1-.118.114Zm-4.525,0a.112.112,0,0,1-.117-.114V27.228a.123.123,0,0,1,.117-.127h1.066a.124.124,0,0,1,.125.127v6.636c0,.051.021.069.065.069h2.14a.115.115,0,0,1,.118.122v.9a.109.109,0,0,1-.118.114Zm-2.585,0a.112.112,0,0,1-.117-.114V27.228A.123.123,0,0,1,43.1,27.1h1.066a.12.12,0,0,1,.118.127v7.729a.109.109,0,0,1-.118.114Zm-3.632,0a.108.108,0,0,1-.117-.114V31.8l-1.579-4.574c-.026-.069,0-.127.1-.127h1.071c.087,0,.118.043.145.127l.924,3.078h.031l.9-3.078c.026-.084.058-.127.145-.127H42.13c.1,0,.118.058.1.127L40.643,31.8v3.154a.108.108,0,0,1-.118.114Zm-16,0c-.1,0-.151-.032-.17-.114L21.69,29.447h-.073v5.509a.112.112,0,0,1-.118.114h-.9a.109.109,0,0,1-.118-.114V27.228A.12.12,0,0,1,20.6,27.1H21.88a.16.16,0,0,1,.172.127l1.532,5.5h.061v-5.5a.119.119,0,0,1,.117-.127h.9a.125.125,0,0,1,.125.127v7.729a.115.115,0,0,1-.125.114Zm-12.96,0a.11.11,0,0,1-.119-.114v-.845A.572.572,0,0,1,10.407,34l2.275-5.73v-.024H10.624a.108.108,0,0,1-.118-.114v-.9a.119.119,0,0,1,.118-.127h3.3a.12.12,0,0,1,.118.127v.864a.352.352,0,0,1-.026.12l-2.229,5.7v.019h2.138a.115.115,0,0,1,.118.122v.9a.109.109,0,0,1-.118.114Zm-8.8,0a.109.109,0,0,1-.118-.114V31.8L.013,27.228c-.025-.069,0-.127.094-.127H1.171a.131.131,0,0,1,.144.127l.936,3.078h.025l.909-3.078c.026-.084.06-.127.144-.127h1.04c.1,0,.125.058.1.127L2.9,31.8v3.154a.115.115,0,0,1-.125.114Zm31.637-9.012a.107.107,0,0,1-.118-.112v-1a.11.11,0,0,1,.118-.12h.79a.109.109,0,0,1,.116.12v1a.106.106,0,0,1-.116.112Zm-1.841,0c-.079,0-.128-.043-.128-.112v-1a.114.114,0,0,1,.128-.12h.788a.114.114,0,0,1,.118.12v1a.111.111,0,0,1-.118.112Zm-13.843,0a.111.111,0,0,1-.118-.112v-1a.114.114,0,0,1,.118-.12h.789a.112.112,0,0,1,.125.12v1c0,.069-.045.112-.125.112Zm-1.841,0a.108.108,0,0,1-.12-.112v-1a.111.111,0,0,1,.12-.12h.788a.116.116,0,0,1,.126.12v1a.113.113,0,0,1-.126.112Zm-8.026,0a.109.109,0,0,1-.12-.112v-1a.112.112,0,0,1,.12-.12h.79a.115.115,0,0,1,.124.12v1a.113.113,0,0,1-.124.112Zm-1.842,0a.11.11,0,0,1-.125-.112v-1a.113.113,0,0,1,.125-.12h.789a.114.114,0,0,1,.118.12v1a.111.111,0,0,1-.118.112Zm16.473-5.424V14.809a.105.105,0,0,1,.118-.114H23.6a.108.108,0,0,1,.117.114V20.8a.745.745,0,0,0,.771.832.728.728,0,0,0,.751-.832v-5.99a.108.108,0,0,1,.118-.114h1.06a.11.11,0,0,1,.124.114v5.825a1.887,1.887,0,0,1-2.053,2.131A1.892,1.892,0,0,1,22.427,20.634Zm-17.591,0V14.809a.108.108,0,0,1,.118-.114H6.015a.113.113,0,0,1,.123.114V20.8a.74.74,0,0,0,.763.832.728.728,0,0,0,.751-.832v-5.99a.112.112,0,0,1,.118-.114H8.83a.113.113,0,0,1,.123.114v5.825A1.887,1.887,0,0,1,6.9,22.766,1.9,1.9,0,0,1,4.836,20.634Zm-4.671.914A9.526,9.526,0,0,1,0,18.681a9.5,9.5,0,0,1,.165-2.87,1.759,1.759,0,0,1,1.867-1.217A1.789,1.789,0,0,1,4.02,16.5a.107.107,0,0,1-.078.139l-.98.159c-.08.011-.138-.021-.138-.1-.04-.68-.283-.978-.757-.978a.62.62,0,0,0-.658.449,11.321,11.321,0,0,0-.078,2.508,11.479,11.479,0,0,0,.078,2.506.618.618,0,0,0,.658.444c.474,0,.717-.292.757-.97a.1.1,0,0,1,.138-.1l.98.159a.106.106,0,0,1,.078.14,1.792,1.792,0,0,1-1.987,1.909A1.767,1.767,0,0,1,.165,21.548Zm65.041,1.116c-.1,0-.151-.037-.165-.127l-1.61-5.5h-.065v5.5a.126.126,0,0,1-.126.127h-.9a.125.125,0,0,1-.126-.127V14.809a.115.115,0,0,1,.126-.114h1.288c.092,0,.152.037.165.114l1.538,5.509h.06V14.809a.109.109,0,0,1,.118-.114h.9c.086,0,.131.045.131.114v7.728a.122.122,0,0,1-.131.127Zm-5.452,0a.12.12,0,0,1-.12-.127V14.816a.115.115,0,0,1,.12-.122H60.8a.126.126,0,0,1,.133.122v7.721a.131.131,0,0,1-.133.127Zm-2.731,0a.154.154,0,0,1-.172-.127l-1.6-5.5h-.073v5.5a.119.119,0,0,1-.118.127h-.9a.12.12,0,0,1-.12-.127V14.809a.11.11,0,0,1,.12-.114h1.288c.1,0,.145.037.165.114l1.532,5.509H57.2V14.809a.113.113,0,0,1,.128-.114h.9a.109.109,0,0,1,.118.114v7.728a.12.12,0,0,1-.118.127Zm-7.343,0a.118.118,0,0,1-.115-.127V14.816a.113.113,0,0,1,.115-.122H50.74a.114.114,0,0,1,.118.122v7.721a.119.119,0,0,1-.118.127Zm-3.571,0a.12.12,0,0,1-.118-.127V15.9c0-.045-.021-.069-.071-.069H44.654a.114.114,0,0,1-.118-.122v-.9a.108.108,0,0,1,.118-.114h3.975a.114.114,0,0,1,.124.114v.9a.12.12,0,0,1-.124.122H47.365c-.053,0-.073.024-.073.069v6.636a.119.119,0,0,1-.118.127Zm-5.6,0a.126.126,0,0,1-.126-.127V14.809a.116.116,0,0,1,.126-.114h3.387a.109.109,0,0,1,.119.114v.9a.114.114,0,0,1-.119.122H41.753c-.052,0-.071.024-.071.069V18a.062.062,0,0,0,.071.071H43.6a.108.108,0,0,1,.12.112v.9a.109.109,0,0,1-.12.114H41.753c-.052,0-.071.032-.071.077v2.176c0,.051.02.069.071.069h2.138a.113.113,0,0,1,.119.12v.9a.119.119,0,0,1-.119.127Zm-3.63,0a.119.119,0,0,1-.12-.127V19.4l-1.577-4.587c-.028-.069,0-.114.09-.114H36.34a.125.125,0,0,1,.139.114l.927,3.083h.04l.9-3.083a.134.134,0,0,1,.149-.114h1.04c.1,0,.125.045.1.114L38.05,19.4v3.141a.12.12,0,0,1-.118.127Zm-3.646,0a.125.125,0,0,1-.12-.127V14.816a.12.12,0,0,1,.12-.122h1.053a.115.115,0,0,1,.126.122v7.721a.119.119,0,0,1-.126.127Zm-2.283,0a.135.135,0,0,1-.139-.082L29.8,19.4h-.618a.064.064,0,0,0-.073.069v3.064a.119.119,0,0,1-.117.127H27.932a.12.12,0,0,1-.118-.127V14.809a.109.109,0,0,1,.118-.114h1.659a2.057,2.057,0,0,1,2.36,2.362,2.114,2.114,0,0,1-.979,2.042l1.165,3.439c.026.064,0,.127-.067.127ZM29.109,15.9v2.321a.065.065,0,0,0,.073.071h.428c.73,0,1.047-.279,1.047-1.236,0-.933-.316-1.225-1.047-1.225h-.428A.064.064,0,0,0,29.109,15.9Zm-9.145,6.764a.12.12,0,0,1-.117-.127V19.231a.066.066,0,0,0-.071-.075h-1.4c-.053,0-.073.024-.073.075v3.306a.122.122,0,0,1-.131.127H17.124a.119.119,0,0,1-.118-.127V14.809a.108.108,0,0,1,.118-.114h1.053c.086,0,.131.045.131.114v3.146c0,.045.021.064.073.064h1.4c.045,0,.071-.019.071-.064V14.809a.109.109,0,0,1,.117-.114h1.059a.114.114,0,0,1,.126.114v7.728a.124.124,0,0,1-.126.127Zm-5.308,0a.119.119,0,0,1-.118-.127V17.506h-.073l-1.071,3.623a.153.153,0,0,1-.159.114H12.7a.174.174,0,0,1-.159-.114L11.48,17.506h-.073v5.031a.12.12,0,0,1-.118.127h-.942a.118.118,0,0,1-.116-.127V14.809a.108.108,0,0,1,.116-.114h1.061c.112,0,.172.037.191.114L12.973,19.3h.045l1.338-4.494c.024-.077.084-.114.2-.114H15.6a.11.11,0,0,1,.119.114v7.728a.12.12,0,0,1-.119.127Zm37.458-5.78A.108.108,0,0,1,52,16.77V14.809a.108.108,0,0,1,.118-.114h.671a.113.113,0,0,1,.119.114V16.77a.113.113,0,0,1-.119.114Zm7.67-3.237a.111.111,0,0,1-.118-.114v-1a.116.116,0,0,1,.118-.12h1a.114.114,0,0,1,.125.12v1a.11.11,0,0,1-.125.114Zm-10.071,0a.108.108,0,0,1-.118-.114v-1a.112.112,0,0,1,.118-.12H50.72a.111.111,0,0,1,.118.12v1a.107.107,0,0,1-.118.114Zm-16.446,0a.109.109,0,0,1-.119-.114v-1a.113.113,0,0,1,.119-.12h.993a.119.119,0,0,1,.126.12v1a.115.115,0,0,1-.126.114ZM5.02,8.229V2.411a.121.121,0,0,1,.126-.122H6.2a.115.115,0,0,1,.118.122V8.388a.739.739,0,0,0,.768.832.728.728,0,0,0,.751-.832V2.411a.121.121,0,0,1,.126-.122H9.019a.118.118,0,0,1,.118.122V8.229a1.9,1.9,0,0,1-2.053,2.133A1.9,1.9,0,0,1,5.02,8.229Zm23.433,2.024a.112.112,0,0,1-.118-.12V2.4a.108.108,0,0,1,.118-.114h3.395a.109.109,0,0,1,.118.114v.9a.11.11,0,0,1-.118.116h-2.14a.066.066,0,0,0-.071.075V5.589a.065.065,0,0,0,.071.071h1.851a.107.107,0,0,1,.118.112v.909a.107.107,0,0,1-.118.112H29.707a.065.065,0,0,0-.071.071V9.049a.065.065,0,0,0,.071.069h2.14a.107.107,0,0,1,.118.112v.9a.113.113,0,0,1-.118.12Zm-3.63,0a.114.114,0,0,1-.12-.12V6.985L23.123,2.4c-.026-.069,0-.114.1-.114h1.063a.126.126,0,0,1,.146.114l.927,3.078h.034l.9-3.078a.127.127,0,0,1,.144-.114h1.046c.1,0,.119.045.1.114L26.006,6.985v3.149a.119.119,0,0,1-.125.12Zm-3.64,0a.112.112,0,0,1-.118-.12V2.411a.114.114,0,0,1,.118-.122h1.053a.115.115,0,0,1,.118.122v7.723a.113.113,0,0,1-.118.12Zm-2.124,0a.13.13,0,0,1-.139-.082L17.553,6.809l-.547,1.084v2.24a.119.119,0,0,1-.126.12H15.828a.12.12,0,0,1-.126-.12V2.4a.116.116,0,0,1,.126-.114H16.88a.115.115,0,0,1,.126.114V5.691l1.657-3.306a.147.147,0,0,1,.158-.1h1.112a.072.072,0,0,1,.06.114l-1.651,3.1,1.9,4.626c.026.062,0,.12-.06.12Zm-5.515,0c-.07,0-.11-.019-.131-.082L12.4,7h-.616c-.046,0-.074.019-.074.071v3.064a.112.112,0,0,1-.118.12H10.532a.115.115,0,0,1-.125-.12V2.4a.111.111,0,0,1,.125-.114H12.2c1.469,0,2.35.624,2.35,2.368a2.114,2.114,0,0,1-.979,2.036l1.163,3.441c.027.062,0,.12-.059.12ZM11.709,3.5V5.813a.067.067,0,0,0,.074.069h.42c.738,0,1.053-.279,1.053-1.225S12.941,3.42,12.2,3.42h-.42A.067.067,0,0,0,11.709,3.5ZM1.579,10.253a.112.112,0,0,1-.118-.12V3.5a.066.066,0,0,0-.073-.075H.118A.111.111,0,0,1,0,3.3V2.4a.109.109,0,0,1,.118-.114H4.091a.11.11,0,0,1,.12.114v.9a.111.111,0,0,1-.12.116H2.828c-.052,0-.065.024-.065.075v6.638a.124.124,0,0,1-.131.12ZM21.223,1.244a.111.111,0,0,1-.124-.116V.12A.113.113,0,0,1,21.223,0h.986a.118.118,0,0,1,.126.12V1.128a.116.116,0,0,1-.126.116ZM7.6,1.244a.11.11,0,0,1-.118-.116V.12A.111.111,0,0,1,7.6,0h.789a.111.111,0,0,1,.118.12V1.128a.11.11,0,0,1-.118.116Zm-1.843,0a.116.116,0,0,1-.124-.116V.12A.117.117,0,0,1,5.762,0h.785A.117.117,0,0,1,6.67.12V1.128a.115.115,0,0,1-.123.116Z" transform="translate(136.435 669.942)" fill="#fff" stroke="rgba(0,0,0,0)" stroke-width="1"/>
  </g>
</svg>
