<svg xmlns="http://www.w3.org/2000/svg" width="39.873" height="39.874" viewBox="0 0 39.873 39.874">
  <g id="abd" transform="translate(0)">
    <g id="Group_311631" data-name="Group 311631" transform="translate(0 0)">
      <path id="Path_298017" data-name="Path 298017" d="M39.837,21.364v.01c0,.033-.016.07-.019.1,0,.067-.011.13-.015.2,0,.027-.009.057-.012.083,0,.06-.011.117-.018.173-.03.316-.071.633-.117.942-.013.1-.029.193-.045.286a.834.834,0,0,1-.013.09c-.013.08-.026.156-.043.233-.027.16-.056.323-.09.483a.012.012,0,0,1,0,.01c-.033.163-.07.323-.107.486a.881.881,0,0,1-.023.09,19.412,19.412,0,0,1-.953,2.95c-.007.017-.013.03-.02.047-.07.176-.147.35-.227.523a19.257,19.257,0,0,1-1.426,2.63,20.157,20.157,0,0,1-6.376,6.24,19.827,19.827,0,0,1-7.542,2.73c-.03,0-.06.01-.09.013-.217.03-.433.057-.65.077s-.463.047-.7.063c-.21.013-.42.027-.63.033-.04,0-.083,0-.127,0-.22.01-.44.013-.66.013a19.9,19.9,0,0,1-14.361-6.13A19.961,19.961,0,0,1,1.668,27.92c-.053-.123-.107-.25-.157-.373-.007-.017-.013-.03-.02-.047a19.412,19.412,0,0,1-.953-2.95.881.881,0,0,1-.023-.09c-.12-.519-.22-1.042-.3-1.575-.03-.22-.057-.436-.08-.653-.03-.283-.057-.563-.077-.822-.007-.05-.01-.1-.013-.15,0-.013,0-.027,0-.04C.013,20.8,0,20.375,0,19.949c0-.37.01-.739.033-1.105a18.16,18.16,0,0,1,.243-2.188,19.629,19.629,0,0,1,1.116-4.022c.017-.04.033-.077.047-.117.05-.123.1-.326.143-.443A20.644,20.644,0,0,1,8.071,3.746h0s0,.077.007.077c.586-.33,1.2-.776,1.829-1.145.01-.007.02.007.03,0A19.78,19.78,0,0,1,19.937,0c.343,0,.686.022,1.026.038s.673.049,1.006.082.67.081,1,.131.653.111.973.177A20.019,20.019,0,0,1,39.465,15.943c.067.32.123.646.177.972s.093.666.127,1,.06.666.077,1.006.027.683.027,1.026c0,.253,0,.506-.017.756,0,.173-.013.346-.027.516a.134.134,0,0,1,.006.04c0,.033,0,.07,0,.1Z" transform="translate(0.001 0)" fill="#14439e" fill-rule="evenodd"/>
      <path id="Path_298018" data-name="Path 298018" d="M40.385,20.95c0,.253,0,.506-.009.756-.007.223-.026.443-.026.659v.01c0,.1-.024.2-.031.3,0,.027-.01.057-.014.083,0,.06-.012.117-.019.173,0,.031-.009.061-.012.092q-.04.4-.1.788c0,.021,0,.042-.008.062-.013.1-.027.193-.043.286a.838.838,0,0,1-.013.09c-.013.08-.027.156-.043.233-.027.16-.057.323-.09.483a.012.012,0,0,1,0,.01c-.033.163-.07.323-.107.486a.888.888,0,0,1-.023.09A19.949,19.949,0,0,1,25.338,40.267l-.066.016q-.423.105-.853.192l-.167.034c-.315.061-.631.117-.951.162-.03,0-.06.01-.09.013-.217.03-.433.057-.65.077s-.463.047-.7.063c-.21.013-.42.027-.63.033-.04,0-.083,0-.127,0-.22.01-.44.013-.66.013a19.9,19.9,0,0,1-14.361-6.13,19.961,19.961,0,0,1-3.908-5.824c-.053-.123-.107-.25-.157-.373-.007-.017-.013-.03-.02-.047a19.412,19.412,0,0,1-.953-2.95.88.88,0,0,1-.023-.09c-.12-.519-.22-1.042-.3-1.575-.03-.22-.057-.436-.08-.653-.03-.283-.057-.563-.077-.822-.007-.05-.01-.065-.013-.115,0-.013,0-.005,0-.005H21.478V1.086s.673.026,1.006.059.67.068,1,.118.65.1.973.172A19.944,19.944,0,0,1,39.979,16.946c.07.323.127.645.177.971s.093.665.127,1,.06.669.077,1.005.027.682.027,1.025Z" transform="translate(-0.513 -1.001)" fill="#d80027" fill-rule="evenodd"/>
      <g id="Group_311630" data-name="Group 311630" transform="translate(0.033 1.534)">
        <g id="Group_311624" data-name="Group 311624" transform="translate(0.013 1.003)">
          <path id="Path_298019" data-name="Path 298019" d="M277.71,32.575a20,20,0,0,1,4.272,3.2H269.029v-3.2Z" transform="translate(-248.124 -32.575)" fill="#fff" fill-rule="evenodd"/>
          <path id="Path_298020" data-name="Path 298020" d="M284.523,112.714a19.886,19.886,0,0,1,1.765,3.2H269.029v-3.2Z" transform="translate(-248.125 -106.473)" fill="#fff" fill-rule="evenodd"/>
          <path id="Path_298021" data-name="Path 298021" d="M287.334,192.857a19.856,19.856,0,0,1,.54,3.2H269.029v-3.2Z" transform="translate(-248.125 -180.375)" fill="#fff" fill-rule="evenodd"/>
          <path id="Path_298022" data-name="Path 298022" d="M40.382,273.372s-.01.129-.017.2c-.01.157-.023.3-.04.456-.03.316-.07.626-.117.935-.013.1-.027.188-.043.281-.017.11-.033.241-.057.345-.057.33-.123.646-.2,1H1.069a29.3,29.3,0,0,1-.47-3.222H40.382Z" transform="translate(-0.599 -254.619)" fill="#fff" fill-rule="evenodd"/>
          <path id="Path_298023" data-name="Path 298023" d="M56.058,351.528a26.021,26.021,0,0,1-1.666,3.222H20.836a26.092,26.092,0,0,1-1.672-3.222Z" transform="translate(-17.718 -326.689)" fill="#fff" fill-rule="evenodd"/>
          <path id="Path_298024" data-name="Path 298024" d="M100.35,434.281c-1.179,1.074-2.512,2.506-3.971,2.864h-20.8c-1.459-.358-2.792-1.79-3.968-2.864Z" transform="translate(-66.078 -402.997)" fill="#fff" fill-rule="evenodd"/>
        </g>
        <g id="Group_311629" data-name="Group 311629">
          <g id="Group_311625" data-name="Group 311625" transform="translate(7.865)">
            <path id="Path_298025" data-name="Path 298025" d="M103.435,35.9l.213,1.245-1.113-.586-1.113.586.183-1.072c.586-.33,1.2-.816,1.829-1.185l.9.13-.9.882Z" transform="translate(-101.423 -33.705)" fill="#fff" fill-rule="evenodd"/>
            <path id="Path_298026" data-name="Path 298026" d="M174,19.694l.556,1.133,1.244.182-.9.882.213,1.245L174,22.548l-1.113.588.213-1.245-.9-.882,1.244-.182Z" transform="translate(-166.687 -19.694)" fill="#fff" fill-rule="evenodd"/>
          </g>
          <g id="Group_311626" data-name="Group 311626" transform="translate(4.147 4.983)">
            <path id="Path_298027" data-name="Path 298027" d="M55.483,83.686l.556,1.133L57.284,85l-.9.882.212,1.245-1.113-.588-1.113.588.212-1.245-.9-.882,1.244-.182Z" transform="translate(-53.682 -83.686)" fill="#fff" fill-rule="evenodd"/>
            <path id="Path_298028" data-name="Path 298028" d="M133.315,83.686l.556,1.133,1.244.182-.9.882.213,1.245-1.113-.588-1.113.588.213-1.245-.9-.882,1.244-.182Z" transform="translate(-125.453 -83.686)" fill="#fff" fill-rule="evenodd"/>
            <path id="Path_298029" data-name="Path 298029" d="M211.147,83.686l.556,1.133,1.244.182-.9.882.213,1.245-1.113-.588-1.113.588.213-1.245-.9-.882,1.244-.182Z" transform="translate(-197.224 -83.686)" fill="#fff" fill-rule="evenodd"/>
          </g>
          <g id="Group_311627" data-name="Group 311627" transform="translate(1.359 9.413)">
            <path id="Path_298030" data-name="Path 298030" d="M20.2,142.776l.21,1.245-1.113-.586-1.113.586.213-1.245-.52-.509c.063-.153.127-.3.19-.456l.673-.1.556-1.132.556,1.132,1.246.18Z" transform="translate(-17.881 -140.58)" fill="#fff" fill-rule="evenodd"/>
            <path id="Path_298031" data-name="Path 298031" d="M94.4,140.567l.556,1.133,1.244.182-.9.882.212,1.245-1.113-.588-1.113.588.213-1.245-.9-.882,1.244-.182Z" transform="translate(-86.78 -140.567)" fill="#fff" fill-rule="evenodd"/>
            <path id="Path_298032" data-name="Path 298032" d="M174,140.567l.556,1.133,1.244.182-.9.882.213,1.245L174,143.421l-1.113.588.213-1.245-.9-.882,1.244-.182Z" transform="translate(-160.181 -140.567)" fill="#fff" fill-rule="evenodd"/>
          </g>
          <g id="Group_311628" data-name="Group 311628" transform="translate(0 14.397)">
            <path id="Path_298033" data-name="Path 298033" d="M1.214,215.336l.213,1.245-1-.529a18.16,18.16,0,0,1,.243-2.188l.2.41,1.243.18-.9.882Z" transform="translate(-0.428 -213.139)" fill="#fff" fill-rule="evenodd"/>
            <path id="Path_298034" data-name="Path 298034" d="M55.483,204.559l.556,1.133,1.244.182-.9.882L56.6,208l-1.113-.588L54.37,208l.212-1.245-.9-.882,1.244-.182Z" transform="translate(-49.535 -204.559)" fill="#fff" fill-rule="evenodd"/>
            <path id="Path_298035" data-name="Path 298035" d="M133.315,204.559l.556,1.133,1.244.182-.9.882.213,1.245-1.113-.588L132.2,208l.213-1.245-.9-.882,1.244-.182Z" transform="translate(-121.305 -204.559)" fill="#fff" fill-rule="evenodd"/>
            <path id="Path_298036" data-name="Path 298036" d="M211.147,204.559l.556,1.133,1.244.182-.9.882L212.26,208l-1.113-.588-1.113.588.213-1.245-.9-.882,1.244-.182Z" transform="translate(-193.076 -204.559)" fill="#fff" fill-rule="evenodd"/>
          </g>
        </g>
      </g>
    </g>
  </g>
</svg>
