<svg xmlns="http://www.w3.org/2000/svg" width="39.873" height="39.874" viewBox="0 0 39.873 39.874">
  <g id="algeria" transform="translate(0)">
    <path id="Path_298013" data-name="Path 298013" d="M225.209,0a19.937,19.937,0,0,1,0,39.874c0-.867-2.6-19.937-2.6-19.937Z" transform="translate(-205.273 0)" fill="#fff"/>
    <path id="Path_298014" data-name="Path 298014" d="M19.937,39.874A19.937,19.937,0,0,1,19.937,0" transform="translate(0 0)" fill="#496e2d"/>
    <g id="Group_311623" data-name="Group 311623" transform="translate(12.489 13.002)">
      <path id="Path_298015" data-name="Path 298015" d="M260.267,206.9l-1.636,2.254-2.649-.859,1.638,2.252-1.636,2.254,2.648-.862,1.638,2.252,0-2.785,2.648-.862-2.649-.859Z" transform="translate(-248.536 -203.786)" fill="#d80027"/>
      <path id="Path_298016" data-name="Path 298016" d="M169.469,179.525a5.634,5.634,0,1,1,2.68-10.591,6.935,6.935,0,1,0,0,9.914A5.607,5.607,0,0,1,169.469,179.525Z" transform="translate(-160.368 -166.956)" fill="#d80027"/>
    </g>
  </g>
</svg>
