<svg xmlns="http://www.w3.org/2000/svg" width="39.873" height="39.874" viewBox="0 0 39.873 39.874">
  <g id="danimarka" transform="translate(0 0)">
    <g id="mc_36_flag_Denmark" transform="translate(0 0)">
      <path id="Oval" d="M19.937,39.874A19.937,19.937,0,1,0,0,19.937,19.937,19.937,0,0,0,19.937,39.874Z" fill="#fff"/>
      <path id="Shape" d="M39.687,17.336h-24.1V.474a19.95,19.95,0,0,1,24.1,16.862Zm-29.3-14.9v14.9H.153A19.875,19.875,0,0,1,10.386,2.437Zm0,20.1H.153A19.948,19.948,0,0,0,10.387,37.45V22.537Zm5.2,16.862V22.537h24.1A19.951,19.951,0,0,1,15.586,39.4Z" transform="translate(0.016 0)" fill="#d80027" fill-rule="evenodd"/>
    </g>
  </g>
</svg>
