<svg xmlns="http://www.w3.org/2000/svg" xmlns:xlink="http://www.w3.org/1999/xlink" width="202.5" height="70.297" viewBox="0 0 202.5 70.297">
  <defs>
    <linearGradient id="linear-gradient" x1="0.136" y1="-0.047" x2="0.893" y2="1.032" gradientUnits="objectBoundingBox">
      <stop offset="0" stop-color="#a7772c"/>
      <stop offset="0.31" stop-color="#c39a3b"/>
      <stop offset="0.561" stop-color="#fcf5ab"/>
      <stop offset="0.769" stop-color="#c59e3d"/>
      <stop offset="1" stop-color="#a3732a"/>
    </linearGradient>
    <linearGradient id="linear-gradient-2" x1="0.221" y1="0.078" x2="0.99" y2="1.085" xlink:href="#linear-gradient"/>
    <linearGradient id="linear-gradient-3" x1="0.255" y1="1.133" x2="0.698" y2="-0.163" xlink:href="#linear-gradient"/>
  </defs>
  <g id="Group_312766" data-name="Group 312766" transform="translate(-1665.499 -849.022)">
    <g id="Group_312754" data-name="Group 312754">
      <path id="Path_303801" data-name="Path 303801" d="M-13389.211-11569.18l-4.014-2.578,4.768-.278,1.185-4.6,1.715,4.445,4.758-.271-3.681,3.016,1.718,4.421-3.99-2.57-3.677,3Zm16.344-1.5-3.009-1.937,3.583-.187.906-3.48,1.284,3.349,3.582-.208-2.771,2.255,1.308,3.346-3.026-1.942-2.781,2.258Zm-31.975-.625-3.009-1.909,3.565-.2.913-3.5,1.3,3.355,3.589-.211-2.784,2.259,1.3,3.341-3.02-1.942-2.764,2.266Zm46.7-2.774-2.037-1.314,2.4-.115.635-2.351.856,2.266,2.4-.143-1.885,1.5.894,2.282-2.027-1.325-1.854,1.553Zm-56.71-1.416-2.034-1.291,2.408-.139.614-2.34.873,2.251,2.407-.146-1.878,1.535.887,2.237-2.027-1.308-1.868,1.542Zm41.64-5.519a1.208,1.208,0,0,1,.027-.489c.017-.088.092-.322.224-.706s.306-.862.51-1.437.432-1.205.679-1.9.507-1.4.765-2.1.509-1.382.757-2.038.448-1.229.629-1.725c-.109.173-.228.356-.363.554s-.266.394-.4.594-.278.4-.415.591-.278.377-.414.544c-.228.281-.414.506-.554.672s-.268.214-.377.153a.772.772,0,0,1-.3-.506,3.6,3.6,0,0,1-.081-.988,7.327,7.327,0,0,1,.173-1.312,9.7,9.7,0,0,1,.466-1.477,3.164,3.164,0,0,1,.448-.795,1.9,1.9,0,0,1,.485-.435.948.948,0,0,1,.438-.14.5.5,0,0,1,.332.082.354.354,0,0,1,.163.241.43.43,0,0,1-.078.315c-.139.221-.288.462-.441.73s-.3.54-.444.821-.278.563-.4.843-.224.54-.309.78a4.849,4.849,0,0,0-.17.636.664.664,0,0,0,.027.4l2.869-4.021a1.931,1.931,0,0,1,.54-.72,1.134,1.134,0,0,1,.57-.266.364.364,0,0,1,.37.19.726.726,0,0,1-.061.628c-.055.119-.129.3-.238.537s-.214.509-.346.812-.278.628-.432.975-.3.7-.448,1.042c-.363.806-.75,1.685-1.172,2.636.422-.687.825-1.352,1.216-2.011.163-.281.34-.573.52-.872s.367-.591.544-.877.346-.563.513-.831l.212-.353.022-.045a2.729,2.729,0,0,1,.3-.474.955.955,0,0,1,.235-.246l.011-.007c.031-.025.063-.05.095-.071a1.365,1.365,0,0,1,.642-.272.414.414,0,0,1,.4.136c.078.105.048.245-.095.415a4.744,4.744,0,0,0-.533.832,11.7,11.7,0,0,0-.5,1.06,11.916,11.916,0,0,0-.411,1.12,8.47,8.47,0,0,0-.262,1.012,2.737,2.737,0,0,0,.687-.566,11.921,11.921,0,0,0,.818-.955c.285-.363.561-.754.842-1.161s.533-.794.761-1.165c.105-.187.258-.454.448-.812s.407-.747.642-1.182.482-.89.734-1.361.506-.931.74-1.372l.645-1.205c.2-.363.347-.652.459-.856a1.387,1.387,0,0,1,.428-.485.882.882,0,0,1,.5-.18.392.392,0,0,1,.353.2.877.877,0,0,1,.021.649,4.574,4.574,0,0,1-.5,1.15,13.118,13.118,0,0,1-1.226,1.722q-.148.341-.377.907c-.146.377-.309.795-.482,1.253s-.35.94-.536,1.439-.36.992-.533,1.475-.333.923-.482,1.338-.271.767-.366,1.046q.625-.658,1.212-1.3c.166-.187.34-.384.517-.587s.359-.408.533-.622.336-.41.5-.618.3-.407.421-.6a1.155,1.155,0,0,1,.34-.363c.108-.061.19-.074.241-.04s.064.115.048.241a1.215,1.215,0,0,1-.218.468v0c-.244.35-.5.706-.764,1.063s-.537.7-.8,1.022-.54.632-.809.913-.523.533-.761.754a2.5,2.5,0,0,1-.611.445.582.582,0,0,1-.411.064.293.293,0,0,1-.176-.262,1.393,1.393,0,0,1,.067-.533c.089-.312.2-.7.34-1.175s.288-.954.441-1.453.3-.972.444-1.423.275-.812.384-1.09c-.108.183-.241.41-.391.692s-.329.591-.525.944a1.536,1.536,0,0,1-.312.425c-.176.277-.366.562-.564.852-.295.428-.594.836-.9,1.229s-.614.75-.917,1.069a5,5,0,0,1-.849.74.883.883,0,0,1-.363.149.541.541,0,0,1-.34-.047.46.46,0,0,1-.21-.272,1.008,1.008,0,0,1-.018-.532c.024-.143.062-.347.109-.6.037-.208.081-.436.134-.682l0,.009c-.418.68-.809,1.308-1.158,1.888s-.676,1.124-.975,1.627-.584,1.012-.862,1.515-.533,1.016-.788,1.545-.513,1.1-.771,1.726a3.043,3.043,0,0,1-.333.614c-.1.14-.187.214-.258.225l-.023,0C-13373.146-11580.873-13373.188-11580.921-13373.21-11581.015Zm-28.668-6.486a.588.588,0,0,1-.488-.437,2.87,2.87,0,0,1-.143-1.013,8.351,8.351,0,0,1,.143-1.345c.041-.219.089-.438.143-.655-.192.25-.386.492-.581.724-.269.326-.536.632-.8.913s-.523.533-.764.751a2.409,2.409,0,0,1-.611.448.579.579,0,0,1-.408.064.29.29,0,0,1-.176-.265,1.3,1.3,0,0,1,.064-.53c.085-.312.2-.7.343-1.175s.285-.954.441-1.453.3-.972.444-1.423.272-.812.381-1.09c-.108.183-.241.41-.391.692s-.329.591-.523.944a1.686,1.686,0,0,1-.311.421c-.177.278-.366.563-.565.855-.292.428-.6.836-.9,1.229a13.118,13.118,0,0,1-.917,1.069,4.847,4.847,0,0,1-.845.74.852.852,0,0,1-.363.149.532.532,0,0,1-.337-.047.48.48,0,0,1-.217-.272,1.1,1.1,0,0,1-.011-.532c.021-.143.058-.347.105-.608s.108-.557.184-.883a9.494,9.494,0,0,1,.288-1.022,7.655,7.655,0,0,1,.418-1.028,2.075,2.075,0,0,1,.646-.8,1.357,1.357,0,0,1,.639-.272.411.411,0,0,1,.4.136c.078.105.048.245-.092.415a5.094,5.094,0,0,0-.54.828c-.173.336-.34.689-.5,1.063a11.907,11.907,0,0,0-.41,1.12,8.47,8.47,0,0,0-.262,1.012,2.741,2.741,0,0,0,.689-.566,11.921,11.921,0,0,0,.818-.955c.281-.363.561-.754.842-1.161s.53-.794.754-1.165c.112-.187.262-.454.455-.812s.4-.747.642-1.182l.734-1.361c.254-.476.5-.931.736-1.372s.452-.839.646-1.205.35-.652.458-.856a1.4,1.4,0,0,1,.432-.485.881.881,0,0,1,.492-.18.4.4,0,0,1,.356.2.908.908,0,0,1,.021.649,4.682,4.682,0,0,1-.5,1.15,12.761,12.761,0,0,1-1.222,1.722q-.148.341-.377.907c-.146.377-.306.795-.482,1.253s-.35.94-.53,1.439-.366.992-.54,1.475-.332.923-.481,1.338-.272.764-.363,1.046c.417-.438.818-.873,1.212-1.3.166-.187.34-.384.517-.587s.359-.408.529-.622.34-.41.492-.618.287-.386.407-.566q.1-.229.215-.441a3.039,3.039,0,0,1,.669-.894,1.233,1.233,0,0,1,.55-.315.628.628,0,0,1,.462.051.783.783,0,0,1,.333.37,1.734,1.734,0,0,1,.169.635,3.47,3.47,0,0,1-.091,1.117,4.572,4.572,0,0,1-.4,1.091,3.164,3.164,0,0,1-.632.838,1.237,1.237,0,0,1-.771.367.653.653,0,0,1-.513-.18c-.059.237-.109.465-.144.686s-.058.414-.067.584a1.374,1.374,0,0,0,.034.407.241.241,0,0,0,.143.2.534.534,0,0,0,.435-.1,3.183,3.183,0,0,0,.6-.466c.214-.2.448-.455.7-.743s.5-.618.754-.968.509-.713.754-1.1.481-.771.7-1.165a1.03,1.03,0,0,1,.3-.38c.1-.068.18-.081.23-.048s.071.119.064.248a1.173,1.173,0,0,1-.189.485c-.374.636-.761,1.254-1.155,1.845a15.563,15.563,0,0,1-1.171,1.568,6.084,6.084,0,0,1-1.138,1.07,1.643,1.643,0,0,1-.934.34A1.159,1.159,0,0,1-13401.878-11587.5Zm1.277-4.984a4.107,4.107,0,0,0-.35.557,6.133,6.133,0,0,0-.31.7c-.1.252-.187.5-.261.751a.4.4,0,0,0,.506.04,1.322,1.322,0,0,0,.488-.529,2.993,2.993,0,0,0,.31-.876,2.425,2.425,0,0,0-.027-1A1.519,1.519,0,0,0-13400.6-11592.485Zm15.7-1.43c0-2.523,1.069-5.93,4.33-5.93,2.18,0,3.949,1.5,3.949,5.365,0,3.9-1.919,6.211-4.272,6.211C-13383.5-11588.269-13384.905-11591.056-13384.905-11593.915Zm2.785-.021c0,3.691.7,5.1,1.279,5.1.547,0,1.488-1.091,1.488-5.5,0-4.309-.87-4.855-1.318-4.855C-13381.706-11599.186-13382.12-11596.758-13382.12-11593.936Zm-10.973,3.012a2.088,2.088,0,0,1,2.316-2.315,3.221,3.221,0,0,1,.7.078,3.175,3.175,0,0,0-.774,2.258c0,.978.228,2.068,1.035,2.068.979,0,1.169-1.562,1.169-3.124,0-1.749-.225-2.822-1.77-2.822a5.229,5.229,0,0,0-2.108.489h-.021l.417-5.288v0a12.908,12.908,0,0,0,3.726.642c.6,0,1.073-.058,1.073-.472a1.256,1.256,0,0,0-.414-.771l.169-.244c1.111.642,1.447,1.057,1.447,1.939,0,1.26-.68,1.731-1.864,1.731a5.251,5.251,0,0,1-3.572-1.864l-.285,2.917a5.435,5.435,0,0,1,2.129-.414c2.184,0,3.65,1.168,3.65,3.895,0,3.013-1.77,3.956-3.857,3.956C-13392.172-11588.269-13393.093-11589.324-13393.093-11590.924Zm-13.3-4.251c-.075,0-.13-.062-.174-.163a1.2,1.2,0,0,1-.088-.363,2.526,2.526,0,0,1,0-.455,1.208,1.208,0,0,1,.112-.422.618.618,0,0,1,.244-.271.491.491,0,0,1,.394-.007c.245.089.374.225.391.411a1.016,1.016,0,0,1-.125.574,1.73,1.73,0,0,1-.377.5.586.586,0,0,1-.356.2Zm66.833-16.738c0-1.186.373-3.682.373-4.194,0-.159-.037-.23-.125-.23-.407,0-.9,1.524-1.135,2.265-.513,1.9-.651,2.71-.954,3.772a4.919,4.919,0,0,1-.832.068c-1.185,0-1.345-.476-1.345-1.413,0-1.524.408-3.982.408-4.462,0-.177-.055-.23-.143-.23-.371,0-.937,1.664-1.114,2.265-.659,2.266-.692,2.887-1.009,3.772a4.313,4.313,0,0,1-.761.068c-1.151,0-1.365-.476-1.365-1.186,0-.144.01-.369.023-.648-.6,1.521-1.025,2.347-2.183,2.347-1.114,0-1.7-1.257-1.7-2.37,0-.567-.071-1.08-.071-1.239-.228,1.046-.706,3.256-2.37,3.256-.809,0-1.558-.523-1.653-1.916-.749,1.791-1.605,2.538-2.717,2.538-1.521,0-2.656-.781-2.761-2.992-.215.85-.357,1.521-.533,2.071,0,.034-.018.052-.018.071a4.939,4.939,0,0,1-.777.068c-1.206,0-1.4-.5-1.416-1.219,0-.111.054-1.146.085-1.707a2.4,2.4,0,0,1-1.875,1.034,2.676,2.676,0,0,1-2.669,2.122,3.155,3.155,0,0,1-3.239-3.15c0-1.749,1.025-4.442,4.088-4.442.547,0,1.416.055,1.416.622a.508.508,0,0,1-.23.441,1.983,1.983,0,0,0-1.043-.337h0c-.972,0-1.593,1.521-1.593,4.16,0,1.219.354,2.16.92,2.16.442,0,.955-.5,1.24-1.753a2.343,2.343,0,0,1-1.644-2.391c0-1.131.509-1.857,1.324-1.857.584,0,1.685.5,1.685,2.584a6.521,6.521,0,0,1-.163,1.468,2.3,2.3,0,0,0,1.827-1.314c.283-4.23.723-6.112.723-7.3.037-.105.3-.122.55-.122.652,0,1.8.244,1.82.812l-.033.445c-.266,2.672-.6,5.412-.622,6.193.533-1.929,1.012-3.5,2.655-3.5a1.312,1.312,0,0,1,1.45,1.238,3.03,3.03,0,0,1-1.82,2.85c.248,2.319,1.009,2.955,1.4,2.955.6,0,1.452-1.388,2.028-3.1a32.635,32.635,0,0,0,.217-3.979c.033-.1.3-.143.533-.143.672,0,1.84.252,1.857.815v.34c0,.988-.374,2.866-.374,4.476,0,.462.055.794.231.794.265,0,.533-.617.954-2.228.444-1.63.71-3.151.9-3.789a4.59,4.59,0,0,1,.761-.068c1.222,0,1.437.513,1.453,1.219,0,1.223-.159,2.514-.159,4.038,0,.761.037,1.257.247,1.257.26,0,.606-.663,1.364-2.594.08-1.306.181-2.918.157-3.709a2.251,2.251,0,0,1,1.1-.248c.728,0,1.206.3,1.206.8v.354c0,.655-.051,1.345-.051,1.982l-.058.6.02-.037c.479-1.77,1.08-3.82,2.741-3.82.886,0,1.382.584,1.382,1.681,0,.034,0,.425-.105,1.627l-.055.479.055-.177c.407-1.593,1.025-3.609,2.707-3.609.831,0,1.4.513,1.4,1.609,0,.814-.319,2.6-.319,4.319,0,.689.055,1.168.356,1.168.442,0,1.06-.991,1.61-2.71l.476-1.5.353.143-.476,1.5c-.743,2.354-1.612,3.45-2.832,3.45C-13339.153-11609.312-13339.561-11610.674-13339.561-11611.913Zm-27.591-3.06a2.766,2.766,0,0,0,.618,1.963,12.19,12.19,0,0,0,.071-1.257c0-1.345-.231-1.735-.4-1.735C-13367.118-11616-13367.151-11615.628-13367.151-11614.973Zm6.6.9-.248.85a3.453,3.453,0,0,0,1.593-2.707c0-.3-.089-.387-.194-.387C-13359.752-11616.317-13360.108-11615.557-13360.55-11614.073Zm-28.7,1.963c-.652,1.813-1.3,2.655-2.362,2.655-1.644,0-1.874-2.085-1.874-3.324v-.177c-.425,1.273-.991,2.655-2.319,2.655-1.379,0-2.068-1.276-2.068-2.6a4.78,4.78,0,0,1,4.917-4.513c.744,0,2.021.159,2.021.815a.574.574,0,0,1-.214.5,2.879,2.879,0,0,0-1.29-.336c-2.336,0-3.025,2.849-3.025,4.193,0,.567.122,1.047.421,1.047.9,0,1.735-4.463,1.912-4.8a1.915,1.915,0,0,1,.727-.14c.723,0,1.45.282,1.45,1.273,0,.636-.282,1.875-.282,3.2,0,.617.055,1.416.407,1.416.408,0,.959-1.224,1.436-2.671a9.773,9.773,0,0,1-.073-1.211c0-.906.1-7.179,3.664-7.179.954,0,1.29.529,1.29,1.646a7.086,7.086,0,0,1-2.319,5.107v.938c0,2.271.146,3.44.815,3.44.8,0,1.4-1.65,1.84-2.659l.639-1.487.37.21-.618,1.475c-.655,1.559-1.151,3.188-2.832,3.188C-13388.084-11609.451-13388.9-11610.619-13389.25-11612.11Zm2.487-3.175c.94-.795,1.5-2.979,1.5-4.2,0-.638-.071-1.168-.37-1.168C-13386.338-11620.654-13386.763-11617.146-13386.763-11615.285Zm-28.4,2.7a.057.057,0,0,0-.018.037c-.462,1.273-1.08,2.388-2.319,2.388a2.2,2.2,0,0,1-2.051-2.1,4.081,4.081,0,0,1-3.312,2.1,3.1,3.1,0,0,1-3.079-3.379,3.648,3.648,0,0,1,3.7-3.895c1.328,0,2.286.533,2.286,1.521,0,1.257-1.559,1.949-3.169,2.69l-.322.162c.071,1.1.444,2.068,1.416,2.068s1.729-.855,2.429-1.88c0-.021,0-.044,0-.065,0-2.215,1.644-4.479,3.77-4.479a2.423,2.423,0,0,1,.9.159c.122-1.769.265-3.361.333-3.681a.886.886,0,0,1,.692-.248c.744,0,1.521.16,1.521.869,0,.618-.513,4.972-.513,8.334,0,1.08.051,1.718.37,1.718.449,0,1.01-1.3,1.482-2.773a4.255,4.255,0,0,1-.029-.5,3.647,3.647,0,0,1,3.7-3.895c1.328,0,2.282.533,2.282,1.521,0,1.257-1.559,1.949-3.168,2.69v0l-.319.159c.071,1.1.444,2.068,1.416,2.068.991,0,1.752-.883,2.462-1.929l.188-.282c.081-1.359.188-3.074.165-3.84a3.815,3.815,0,0,1,1.029-.126c.581,0,1.361.143,1.361,1.311,0,.354-.071,1.362-.071,1.983,0,.034-.02.071-.02.105l.02-.034c.425-1.576.917-3.487,2.636-3.487a1.25,1.25,0,0,1,1.361,1.433,2.073,2.073,0,0,1-2.034,2.193,1.4,1.4,0,0,1-.832-.21,3.8,3.8,0,0,0,.884-2.177c0-.231-.085-.265-.174-.265-1.062,0-1.895,5.2-2.177,6.017h-.037a4.662,4.662,0,0,1-.777.072c-1.188,0-1.416-.5-1.416-1.24,0-.194.015-.538.038-.966-.778,1.111-1.753,2.273-3.437,2.273a2.9,2.9,0,0,1-2.886-2.122c-.717,2.064-1.358,2.832-2.422,2.832C-13414.972-11609.451-13415.165-11611.275-13415.165-11612.586Zm-1.967-.071c0,.231,0,1.6.459,1.6.516,0,1.138-1.756,1.541-3.029.038-.778.071-1.681.143-2.564a.879.879,0,0,0-.318-.071C-13416.636-11616.726-13417.132-11614.019-13417.132-11612.657Zm8.53-.954.337-.159a2.551,2.551,0,0,0,1.5-2.215c0-.441-.159-.635-.407-.635C-13407.8-11616.62-13408.584-11615.506-13408.6-11613.611Zm-14.866,0,.339-.159a2.553,2.553,0,0,0,1.5-2.215c0-.441-.159-.635-.407-.635C-13422.67-11616.62-13423.451-11615.506-13423.468-11613.611Zm44.424,3.362c-1.188-.034-1.365-.479-1.365-1.9,0-1.908.479-8.174.479-8.812,0-.123.177-.143.408-.143.937,0,2.23.23,2.248.814-.109.777-.194,1.538-.285,2.282.709-2.211,1.646-3.131,2.991-3.131,1.114,0,2.533.655,2.533,2.938,0,2.193-1.294,7.946-5.966,7.946Zm1.009-.547h.139c2.533,0,3.346-6.2,3.346-7.912,0-1.009-.228-1.487-.707-1.487-.71,0-1.575,1.47-2.6,5.223-.123,1.361-.231,2.689-.286,4.034l.021-.018C-13378.124-11610.867-13378.106-11610.8-13378.035-11610.8Zm-54.316-1.365c0-1.219.193-8.194.23-8.619.018-.281.143-.318.744-.318,1.009,0,1.945.1,1.945,1.222,0,.231-.017.388-.1,1.487a4.652,4.652,0,0,1,.513-1.205,2.572,2.572,0,0,1,2.353-1.521c.87,0,1.328.3,1.328,1.434,0,.584-.105.8-.373.566a1.774,1.774,0,0,0-1.4-.529,2.107,2.107,0,0,0-2.071,1.483,9.849,9.849,0,0,0-.655,2.673,4.394,4.394,0,0,0,2.887-1.06c.139-.143.265,0,.265.354,0,1.471-.513,1.857-1.223,1.857a15.229,15.229,0,0,1-2.017-.387c-.123,1.168-.194,2.6-.248,4.333a1.676,1.676,0,0,1-.761.143C-13432.142-11610.249-13432.352-11610.922-13432.352-11612.161Zm75.285-3.893v0Zm5.576-3.629a1.023,1.023,0,0,1,.991-1.114,1.248,1.248,0,0,1,1.24,1.308.952.952,0,0,1-1.025,1.028A1.165,1.165,0,0,1-13351.49-11619.683Zm-2.832,0a1.023,1.023,0,0,1,.991-1.114,1.248,1.248,0,0,1,1.24,1.308.952.952,0,0,1-1.026,1.028A1.165,1.165,0,0,1-13354.322-11619.683Zm-12.863,0a1.021,1.021,0,0,1,.988-1.114,1.249,1.249,0,0,1,1.239,1.311.951.951,0,0,1-1.025,1.025A1.162,1.162,0,0,1-13367.186-11619.683Zm-2.836,0a1.024,1.024,0,0,1,.992-1.114,1.249,1.249,0,0,1,1.239,1.311.951.951,0,0,1-1.025,1.025A1.165,1.165,0,0,1-13370.021-11619.683Z" transform="translate(15199.5 12479.023)" opacity="0.31"/>
      <path id="Path_303802" data-name="Path 303802" d="M-13523.048-11567.095a19.13,19.13,0,0,1-2.717-2.637,20.967,20.967,0,0,1-5.236-10.221h11.9q.227.464.477.89h.325a12,12,0,0,0,1.391,2.23,9.017,9.017,0,0,0,1.407,1.129,8.86,8.86,0,0,0,4.931,1.442,8.565,8.565,0,0,0,6.357-2.716c2.758-2.833,2.758-5.879,2.428-9.512a32.92,32.92,0,0,1-1.235-9.088,31.434,31.434,0,0,1,4.112-15.79,30.787,30.787,0,0,1,11.312-11.4,30.064,30.064,0,0,1,14.406-4.176l.009,0s1-.055,1.283-.055a29.484,29.484,0,0,1,15.7,4.31c.023.014.2.122.217.132a36.351,36.351,0,0,1,7.558,6.541q.426.454.816.906v.011h.011a30.7,30.7,0,0,1,6.034,10.818c.017.055.648,2.469.655,2.5a34.009,34.009,0,0,1,.747,7.229,35.034,35.034,0,0,1-.306,4.68,31.785,31.785,0,0,1-16.021,22.993,31.542,31.542,0,0,1-13.206,3.535,31.825,31.825,0,0,1-16.11-3.691,23.939,23.939,0,0,1-5.531-3.671c.027-.036.054-.073.081-.11a10.686,10.686,0,0,1-.88-.775,19.819,19.819,0,0,0,3.464-12.8q.387.615.82,1.2c0-.1-.012-.206-.019-.309a18.814,18.814,0,0,0,1.567,2.14,19.92,19.92,0,0,0,11.313,5.905c.363.055.448.064.744.095.425.048.855.085,1.29.105.184.011.493.021.662.023.146,0,.289,0,.436,0q.483,0,.957-.021c.432-.021.428-.023.655-.041.462-.033.921-.085,1.369-.152.535-.079.5-.076.429-.066a17.96,17.96,0,0,0,8.017-3.513c.244-.19.136-.1.359-.285a21.342,21.342,0,0,0,1.939-1.773l.03-.03v0l.021-.018v0a20.759,20.759,0,0,0,1.685-1.97c.251-.333.088-.1.4-.557a20.078,20.078,0,0,0,3.538-11.7c0-.255,0-.274-.007-.736a20.876,20.876,0,0,0-1.535-7.556c-.071-.167-.129-.31-.268-.611a19.4,19.4,0,0,0-2.041-3.471l-.312-.411q-.3-.385-.62-.762l-.012-.013c-.34-.356-.193-.207-.557-.566a21.226,21.226,0,0,0-1.637-1.447c-.024-.021-.459-.353-.486-.373a18.344,18.344,0,0,0-3.405-2.011c-.245-.112-.123-.064-.591-.255a19.19,19.19,0,0,0-7.342-1.385,19.378,19.378,0,0,0-8.392,1.793c-.021.01-.38.187-.4.2a19.2,19.2,0,0,0-5.1,3.78,19.3,19.3,0,0,0-2.917,3.813,7.1,7.1,0,0,0-.36.642,19.116,19.116,0,0,0-1.433,3.5c-.051.177-.1.354-.153.53-.007.03-.014.062-.021.088-.111.428-.214.859-.3,1.3-.034.176-.068.353-.095.526a23.145,23.145,0,0,0-.326,2.978h-.018c-.026.448-.037.9-.037,1.358a24.035,24.035,0,0,0,.561,5.312h-.071c.071.4.139.8.187,1.205.14.706.234,1.44.306,2.17a19.859,19.859,0,0,1,.14,2.313,20.171,20.171,0,0,1-5.937,14.752,19.479,19.479,0,0,1-14.371,6A20.1,20.1,0,0,1-13523.048-11567.095Zm32.265-28.777,0-.01v-.037l0-.01v-.055l0-.007v-.041l0-.007v-.04l0-.007v-.031l0-.027v-.03l0-.007v-.047l0-.007v-.034l0-.007v-.041l-.024.071v-1.083Zm.427-6.791c.018-.085.116-.662.119-.673l0-.026C-13490.278-11603.132-13490.315-11602.9-13490.356-11602.663Zm8.986-9.59-.007,0-.007,0-.007,0-.007,0-.007,0-.007,0-.007,0-.007,0-.007,0-.007,0,0,0-.006,0-.007,0-.007,0-.007,0-.007,0-.007,0-.007,0,0,0-.007,0-.007.007-.007,0-.006,0-.007,0,0,0-.007,0-.007,0-.007,0-.007,0-.007,0,0,0-.007.007-.007,0,0,0-.007,0-.006,0-.007,0-.007.007,0,0-.007,0,0,0-.007,0-.007.006-.007,0,0,0-.007,0-.007.007,0,0-.007,0-.007,0,0,.007,0,0,.007,0,.007,0,0,0,.007,0,.007,0,0,0,.007,0,.007,0,.007,0,0-.006.007,0,0,0,.007,0,.007,0,.006,0,.007,0,0,0,.007,0,.007,0,0,0,.007-.007.007,0,.007,0,.007,0,.007,0,0,0,.007-.007.006,0,.007,0,.007,0,.007,0,0,0,.007,0,.007-.007.007,0,.007,0,.007,0,.007,0,.006,0,0-.007.007,0,.007,0,.007,0,.007,0,.007,0,.007,0,.007,0,.007,0,.007,0,.007,0,0-.006Zm12.9,36.743.019,0-.072.012C-13468.534-11575.5-13468.5-11575.5-13468.467-11575.51Zm-57.036-15.329.146-.673-.947-.217,7.176-33.235h27.367q-.655.432-1.28.89h2.078a30.958,30.958,0,0,0-9.885,10.507h-9.044l-2.155,9.846q.456-.1.913-.16a12.707,12.707,0,0,1,1.867-.143,19.947,19.947,0,0,1,5.4.706l-.023.095q-.066.28-.127.557.482.107.952.238l-.024.095a33.77,33.77,0,0,0-.56,12.086,7.626,7.626,0,0,0-5.5-2.221,7.913,7.913,0,0,0-3.644.92,13.247,13.247,0,0,0-3.528,2.813Z" transform="translate(15199.5 12479.023)" opacity="0.19"/>
    </g>
    <g id="Layer_x0020_1" transform="translate(1666.51 849.004)">
      <g id="_2109145826176" transform="translate(-0.01 0.02)">
        <path id="Path_302560" data-name="Path 302560" d="M8082.688,1268.24a2.106,2.106,0,0,1,2.071-1.487,1.78,1.78,0,0,1,1.4.531c.267.23.372.018.372-.566,0-1.133-.46-1.434-1.327-1.434a2.571,2.571,0,0,0-2.354,1.522,4.794,4.794,0,0,0-.514,1.2c.09-1.1.106-1.256.106-1.487,0-1.115-.937-1.221-1.946-1.221-.6,0-.725.036-.743.319-.036.425-.229,7.4-.229,8.619,0,1.239.211,1.911,1.415,1.911a1.7,1.7,0,0,0,.761-.142c.054-1.734.124-3.168.249-4.336a14.873,14.873,0,0,0,2.016.39c.71,0,1.222-.39,1.222-1.858,0-.354-.124-.5-.265-.354a4.384,4.384,0,0,1-2.885,1.062,9.813,9.813,0,0,1,.654-2.672Zm6.054,4.938c1.609-.744,3.168-1.434,3.168-2.69,0-.991-.957-1.522-2.283-1.522a3.647,3.647,0,0,0-3.7,3.894,3.1,3.1,0,0,0,3.079,3.38c1.822,0,2.813-1.363,3.628-2.549l.743-1.079-.372-.195-.707,1.062c-.709,1.044-1.47,1.929-2.461,1.929-.974,0-1.345-.974-1.417-2.071Zm1.1-3.4c.247,0,.407.195.407.637a2.555,2.555,0,0,1-1.5,2.212l-.337.159c.016-1.894.795-3.008,1.433-3.008Zm9.5,6.354c-.318,0-.37-.637-.37-1.717,0-3.362.513-7.716.513-8.336,0-.708-.778-.867-1.522-.867a.882.882,0,0,0-.69.248c-.07.319-.212,1.911-.335,3.682a2.378,2.378,0,0,0-.9-.159c-2.124,0-3.77,2.265-3.77,4.478,0,1.557.814,2.778,2.106,2.778,1.238,0,1.858-1.115,2.318-2.389a.057.057,0,0,1,.017-.035c0,1.31.2,3.133,1.859,3.133,1.292,0,1.964-1.133,2.9-4.354l.124-.425-.407-.017-.105.371c-.515,1.788-1.2,3.61-1.735,3.61Zm-4.142-.8c-.459,0-.459-1.363-.459-1.593,0-1.363.5-4.07,1.823-4.07a.92.92,0,0,1,.317.071c-.069.885-.105,1.787-.142,2.566C8096.334,1273.585,8095.713,1275.337,8095.2,1275.337Zm8.407-2.159c1.61-.743,3.168-1.433,3.168-2.69,0-.991-.955-1.522-2.282-1.522a3.647,3.647,0,0,0-3.7,3.894,3.1,3.1,0,0,0,3.079,3.38c1.823,0,2.814-1.363,3.627-2.548l.745-1.08-.372-.195-.708,1.062c-.708,1.044-1.469,1.929-2.46,1.929-.974,0-1.347-.973-1.416-2.071l.318-.159Zm1.1-3.4c.248,0,.406.194.406.637a2.553,2.553,0,0,1-1.5,2.212l-.336.159C8103.288,1270.9,8104.067,1269.78,8104.7,1269.78Zm5.133,2.743c0-.62.07-1.628.07-1.982,0-1.168-.779-1.31-1.361-1.31a3.76,3.76,0,0,0-1.028.124c.035,1.2-.248,4.743-.248,5.575,0,.743.229,1.239,1.416,1.239a4.539,4.539,0,0,0,.779-.071h.036c.282-.814,1.115-6.017,2.177-6.017.087,0,.175.035.175.265a3.807,3.807,0,0,1-.883,2.177,1.394,1.394,0,0,0,.831.212,2.075,2.075,0,0,0,2.035-2.194,1.252,1.252,0,0,0-1.362-1.434c-1.718,0-2.211,1.911-2.637,3.487l-.019.035c0-.035.019-.071.019-.106Zm11.2,3.628c-.354,0-.408-.8-.408-1.416,0-1.327.283-2.566.283-3.2,0-.991-.726-1.274-1.451-1.274a1.89,1.89,0,0,0-.725.142c-.177.336-1.011,4.8-1.912,4.8-.3,0-.424-.478-.424-1.045,0-1.345.689-4.194,3.026-4.194a2.862,2.862,0,0,1,1.291.336.572.572,0,0,0,.213-.5c0-.655-1.275-.814-2.018-.814a4.782,4.782,0,0,0-4.92,4.513c0,1.327.689,2.6,2.07,2.6,1.327,0,1.894-1.381,2.317-2.655v.177c0,1.239.231,3.327,1.877,3.327,1.345,0,2.034-1.363,2.9-4.354l.177-.567-.389-.106-.178.6c-.53,1.823-1.238,3.628-1.733,3.628Zm5.024-11.061c-3.557,0-3.663,6.274-3.663,7.18,0,2.3.762,4.678,2.849,4.678,1.683,0,2.178-1.628,2.834-3.189l.618-1.472-.372-.212-.637,1.49c-.441,1.009-1.044,2.658-1.841,2.658-.671,0-.814-1.168-.814-3.44v-.938a7.1,7.1,0,0,0,2.319-5.109C8127.357,1265.621,8127.021,1265.09,8126.064,1265.09Zm.179.655c.3,0,.371.531.371,1.168,0,1.224-.566,3.407-1.5,4.2C8125.109,1269.255,8125.534,1265.745,8126.243,1265.745Zm5.22,8.513c0,1.416.177,1.858,1.363,1.894h1.044c4.672,0,5.965-5.752,5.965-7.946,0-2.283-1.417-2.938-2.532-2.938-1.344,0-2.282.92-2.99,3.133.089-.743.177-1.5.283-2.283-.017-.584-1.311-.814-2.248-.814-.229,0-.407.018-.407.141C8131.94,1266.081,8131.463,1272.346,8131.463,1274.258Zm5.15-8.053c.479,0,.708.478.708,1.487,0,1.717-.813,7.911-3.346,7.911h-.141c-.07,0-.089-.071-.089-.16l-.018.017c.054-1.345.161-2.672.284-4.035,1.025-3.752,1.893-5.221,2.6-5.221Zm8.054,3.327a1.973,1.973,0,0,1,1.043.336.5.5,0,0,0,.23-.443c0-.566-.867-.619-1.415-.619-3.062,0-4.09,2.69-4.09,4.443a3.156,3.156,0,0,0,3.241,3.15,2.68,2.68,0,0,0,2.671-2.124c1.2-.018,1.946-.956,2.513-2.053l-.283-.195c-.479.938-1.151,1.876-2.143,1.876a6.6,6.6,0,0,0,.161-1.469c0-2.088-1.1-2.584-1.683-2.584-.813,0-1.326.726-1.326,1.858a2.342,2.342,0,0,0,1.646,2.389c-.284,1.257-.8,1.752-1.238,1.752-.567,0-.922-.938-.922-2.159,0-2.637.62-4.159,1.593-4.159Zm.052,1.893c0-.654.036-1.026.284-1.026.176,0,.407.389.407,1.734a12.2,12.2,0,0,1-.072,1.256A2.77,2.77,0,0,1,8144.719,1271.426Zm-2.867-4.708a1.165,1.165,0,0,0,1.205,1.221.952.952,0,0,0,1.024-1.027,1.248,1.248,0,0,0-1.238-1.31,1.023,1.023,0,0,0-.991,1.115h0Zm2.833,0a1.164,1.164,0,0,0,1.2,1.221.952.952,0,0,0,1.025-1.027,1.247,1.247,0,0,0-1.238-1.31,1.022,1.022,0,0,0-.99,1.115Zm10.122,3.628a1.314,1.314,0,0,0-1.451-1.239c-1.646,0-2.124,1.575-2.655,3.5.019-.779.354-3.522.62-6.194l.035-.443c-.018-.566-1.168-.814-1.822-.814-.249,0-.513.018-.549.124,0,1.221-.461,3.168-.743,7.628-.019.23-.105,1.894-.105,2.035.018.726.211,1.221,1.416,1.221a4.853,4.853,0,0,0,.778-.071c0-.018.018-.035.018-.071.177-.549.318-1.221.53-2.071.105,2.212,1.239,2.991,2.761,2.991,1.434,0,2.443-1.239,3.345-4.354l.426-1.487-.408-.071-.424,1.487c-.566,1.947-1.539,3.628-2.194,3.628-.391,0-1.151-.637-1.4-2.956a3.027,3.027,0,0,0,1.822-2.849Zm-3.486,1.982c.442-1.487.8-2.248,1.15-2.248.105,0,.194.089.194.39a3.459,3.459,0,0,1-1.593,2.708Zm9.133,1.982c0,1.115.584,2.371,1.7,2.371,1.415,0,1.735-1.239,2.62-3.469l.478-1.2-.337-.142-.459,1.186c-.8,2.036-1.151,2.726-1.416,2.726-.212,0-.249-.5-.249-1.257,0-1.522.16-2.814.16-4.035-.018-.708-.231-1.221-1.452-1.221a4.5,4.5,0,0,0-.761.071c-.194.637-.459,2.159-.9,3.787-.423,1.611-.689,2.23-.955,2.23-.178,0-.23-.336-.23-.8,0-1.61.373-3.487.373-4.477v-.336c-.018-.566-1.187-.814-1.858-.814-.23,0-.5.036-.531.142.034,2.513-.283,4-.283,5.026,0,1.628.8,2.23,1.663,2.23,1.664,0,2.143-2.212,2.371-3.256,0,.159.071.672.071,1.239Zm-2.9-7.593a1.165,1.165,0,0,0,1.2,1.221.952.952,0,0,0,1.026-1.027,1.248,1.248,0,0,0-1.239-1.31,1.023,1.023,0,0,0-.991,1.115h0Zm2.832,0a1.165,1.165,0,0,0,1.2,1.221.952.952,0,0,0,1.026-1.027,1.248,1.248,0,0,0-1.237-1.31,1.023,1.023,0,0,0-.992,1.115Zm7.911,8.035c0,.938.159,1.416,1.345,1.416a4.832,4.832,0,0,0,.833-.071c.3-1.062.441-1.876.955-3.77.229-.743.726-2.265,1.133-2.265.089,0,.124.071.124.23,0,.513-.372,3.009-.372,4.195,0,1.239.407,2.6,1.752,2.6,1.221,0,2.089-1.1,2.832-3.451l.477-1.5-.354-.142-.478,1.5c-.55,1.717-1.168,2.708-1.609,2.708-.3,0-.355-.478-.355-1.168,0-1.717.318-3.5.318-4.318,0-1.1-.565-1.61-1.4-1.61-1.682,0-2.3,2.017-2.707,3.61l-.053.177.053-.478c.105-1.2.105-1.593.105-1.628,0-1.1-.5-1.681-1.381-1.681-1.663,0-2.265,2.053-2.742,3.823l-.019.035.055-.6c0-.637.052-1.327.052-1.982v-.354c0-.5-.479-.8-1.2-.8a2.232,2.232,0,0,0-1.1.248c.035,1.274-.249,4.69-.249,5.5,0,.708.214,1.186,1.364,1.186a4.218,4.218,0,0,0,.762-.071c.317-.885.352-1.5,1.008-3.77.178-.6.744-2.265,1.113-2.265.089,0,.144.053.144.23C8168.7,1270.771,8168.293,1273.231,8168.293,1274.753Z" transform="translate(-7980.872 -1258.4)" fill="#fcf5ab"/>
        <path id="Path_302561" data-name="Path 302561" d="M9558.664,2612.349a2.092,2.092,0,0,1,.644-.8,1.334,1.334,0,0,1,.641-.27.414.414,0,0,1,.4.134c.079.107.047.245-.093.417a5.091,5.091,0,0,0-.539.828c-.174.336-.339.687-.5,1.061s-.293.746-.41,1.123a8.639,8.639,0,0,0-.26,1.01,2.794,2.794,0,0,0,.688-.565,12.263,12.263,0,0,0,.817-.956c.281-.364.56-.753.842-1.161s.53-.794.756-1.165a1.248,1.248,0,0,1,.329-.375c.106-.063.179-.076.232-.041s.068.116.052.242a1.355,1.355,0,0,1-.2.482c-.239.4-.513.813-.806,1.24s-.6.837-.9,1.23a13.561,13.561,0,0,1-.917,1.07,5.064,5.064,0,0,1-.849.743.9.9,0,0,1-.361.147.545.545,0,0,1-.338-.047.485.485,0,0,1-.215-.273,1.054,1.054,0,0,1-.011-.533c.02-.141.059-.345.1-.605s.108-.558.186-.884a9.7,9.7,0,0,1,.286-1.023,7.794,7.794,0,0,1,.42-1.029Zm2.376-4.577c.246.088.375.223.391.411a1.013,1.013,0,0,1-.124.571,1.75,1.75,0,0,1-.379.5.545.545,0,0,1-.377.2c-.074-.006-.129-.062-.172-.163a1.25,1.25,0,0,1-.09-.364,2.527,2.527,0,0,1,0-.455,1.258,1.258,0,0,1,.112-.424.614.614,0,0,1,.246-.27A.473.473,0,0,1,9561.04,2607.772Zm4.672,4.542c-.241.352-.5.707-.765,1.064s-.535.7-.806,1.023-.539.63-.806.912-.521.534-.763.753a2.486,2.486,0,0,1-.612.446.581.581,0,0,1-.408.066.294.294,0,0,1-.176-.264,1.3,1.3,0,0,1,.063-.53c.085-.314.2-.706.343-1.176s.286-.954.442-1.452.3-.972.444-1.425.271-.812.382-1.088c-.111.182-.242.411-.391.69s-.33.593-.523.944a1.579,1.579,0,0,1-.354.46c-.127.1-.224.145-.294.129s-.1-.094-.088-.235a1.743,1.743,0,0,1,.251-.624c.11-.188.26-.458.453-.812s.406-.747.642-1.18.48-.891.735-1.365.5-.931.735-1.37.452-.841.646-1.208.351-.649.459-.853a1.4,1.4,0,0,1,.431-.487.884.884,0,0,1,.492-.182.4.4,0,0,1,.356.2.909.909,0,0,1,.021.649,4.545,4.545,0,0,1-.5,1.151,12.665,12.665,0,0,1-1.222,1.722c-.1.229-.226.53-.377.907s-.309.793-.482,1.254-.35.939-.532,1.44-.366.991-.538,1.471-.334.925-.482,1.34-.271.765-.363,1.047c.417-.439.816-.875,1.212-1.3l.517-.59c.183-.2.359-.408.53-.618s.339-.414.492-.621.3-.408.427-.6a1.083,1.083,0,0,1,.338-.363c.111-.062.192-.075.242-.041s.065.116.047.241A1.212,1.212,0,0,1,9565.712,2612.314Zm-.472,4.235a.541.541,0,0,0,.436-.1,3.313,3.313,0,0,0,.6-.464c.214-.2.449-.455.7-.747s.5-.618.754-.966.508-.715.753-1.1.483-.772.7-1.164a1.044,1.044,0,0,1,.3-.383c.1-.066.179-.081.229-.047s.072.119.065.248a1.2,1.2,0,0,1-.189.488q-.562.951-1.156,1.842a15.387,15.387,0,0,1-1.169,1.569,6.061,6.061,0,0,1-1.14,1.069,1.546,1.546,0,0,1-1.063.333.59.59,0,0,1-.489-.437,2.969,2.969,0,0,1-.143-1.012,8.463,8.463,0,0,1,.143-1.346,11.365,11.365,0,0,1,.372-1.443,8.632,8.632,0,0,1,.547-1.292,3.033,3.033,0,0,1,.668-.894,1.252,1.252,0,0,1,.551-.317.628.628,0,0,1,.462.053.789.789,0,0,1,.334.37,1.765,1.765,0,0,1,.17.634,3.5,3.5,0,0,1-.093,1.117,4.454,4.454,0,0,1-.4,1.089,3.08,3.08,0,0,1-.632.84,1.219,1.219,0,0,1-.771.366.642.642,0,0,1-.511-.178c-.061.235-.11.464-.145.684s-.056.414-.067.583a1.563,1.563,0,0,0,.032.41A.242.242,0,0,0,9565.24,2616.549Zm1.461-4.764a1.562,1.562,0,0,0-.356.357,4.246,4.246,0,0,0-.351.559,6.937,6.937,0,0,0-.309.7c-.1.251-.187.5-.262.753a.4.4,0,0,0,.508.04,1.359,1.359,0,0,0,.487-.531,2.9,2.9,0,0,0,.309-.875A2.4,2.4,0,0,0,9566.7,2611.784Zm30.146-.47c-.14.22-.289.462-.442.728s-.3.543-.446.825-.278.562-.4.84-.223.54-.307.782a4.827,4.827,0,0,0-.171.636.653.653,0,0,0,.026.4l2.871-4.021a1.948,1.948,0,0,1,.539-.718,1.112,1.112,0,0,1,.571-.263.36.36,0,0,1,.37.188.731.731,0,0,1-.061.627c-.055.119-.131.3-.237.537s-.217.511-.348.812-.277.627-.431.976-.3.7-.449,1.042q-.545,1.208-1.172,2.635c.42-.685.824-1.352,1.217-2.011.162-.282.339-.574.52-.873s.367-.589.543-.875.348-.565.511-.834.315-.518.449-.737a1.2,1.2,0,0,1,.322-.376c.095-.063.172-.075.23-.041s.074.116.059.241a1.35,1.35,0,0,1-.2.484c-.5.853-.961,1.621-1.383,2.3s-.809,1.308-1.158,1.889-.677,1.123-.975,1.627-.585,1.01-.862,1.512-.535,1.016-.79,1.547-.513,1.1-.771,1.725a2.973,2.973,0,0,1-.332.615c-.1.137-.187.213-.258.225s-.121-.037-.145-.141a1.145,1.145,0,0,1,.025-.489q.026-.132.226-.706c.136-.385.3-.863.508-1.437s.431-1.2.68-1.9.5-1.4.765-2.1.51-1.384.756-2.039.451-1.23.63-1.725c-.108.173-.228.358-.363.555s-.267.392-.4.592-.277.4-.415.594-.277.376-.415.542c-.226.282-.413.506-.553.672s-.267.214-.375.154a.766.766,0,0,1-.3-.508,3.547,3.547,0,0,1-.082-.988,7.364,7.364,0,0,1,.174-1.311,9.542,9.542,0,0,1,.465-1.478,3.212,3.212,0,0,1,.447-.793,1.878,1.878,0,0,1,.485-.433.938.938,0,0,1,.44-.141.514.514,0,0,1,.331.082.368.368,0,0,1,.163.241A.439.439,0,0,1,9596.847,2611.314Zm2.94,1.035a2.117,2.117,0,0,1,.642-.8,1.34,1.34,0,0,1,.643-.27.421.421,0,0,1,.4.134c.076.107.047.245-.1.417a4.892,4.892,0,0,0-.534.828c-.179.335-.341.687-.5,1.06s-.3.746-.411,1.123a8.489,8.489,0,0,0-.262,1.01,2.688,2.688,0,0,0,.687-.565,11.355,11.355,0,0,0,.819-.956c.284-.364.56-.753.842-1.161s.532-.794.761-1.164a1.18,1.18,0,0,1,.327-.376c.105-.063.178-.076.228-.041s.07.116.055.242a1.374,1.374,0,0,1-.2.482c-.239.4-.513.813-.806,1.24s-.594.837-.9,1.229-.613.75-.918,1.07a5.031,5.031,0,0,1-.849.743.938.938,0,0,1-.363.148.55.55,0,0,1-.337-.047.468.468,0,0,1-.214-.273,1.055,1.055,0,0,1-.016-.533c.024-.141.061-.345.108-.6s.105-.559.18-.885a10.548,10.548,0,0,1,.289-1.023A7.623,7.623,0,0,1,9599.787,2612.349Zm7.047-.034q-.366.526-.766,1.063t-.8,1.023c-.273.326-.54.631-.811.913s-.521.533-.761.753a2.449,2.449,0,0,1-.611.445.577.577,0,0,1-.409.066.294.294,0,0,1-.176-.263,1.357,1.357,0,0,1,.065-.531c.088-.313.2-.705.341-1.176s.287-.954.442-1.453.3-.972.444-1.424.273-.813.384-1.089c-.11.182-.243.411-.391.69s-.331.593-.525.944a1.54,1.54,0,0,1-.354.461c-.124.1-.224.145-.291.129s-.1-.094-.093-.235a1.753,1.753,0,0,1,.258-.624c.105-.188.259-.458.449-.812s.408-.746.643-1.18.481-.891.733-1.365.5-.931.738-1.37l.646-1.208c.2-.364.348-.649.458-.853a1.4,1.4,0,0,1,.429-.487.888.888,0,0,1,.494-.182.4.4,0,0,1,.354.2.889.889,0,0,1,.021.649,4.517,4.517,0,0,1-.5,1.151,12.941,12.941,0,0,1-1.226,1.722c-.1.229-.224.53-.377.907s-.31.793-.48,1.254-.353.939-.538,1.44-.36.991-.534,1.471-.332.925-.481,1.34-.271.766-.365,1.047c.418-.439.819-.875,1.21-1.3.169-.188.341-.385.519-.59s.359-.407.53-.618.339-.414.5-.621.3-.407.422-.6a1.1,1.1,0,0,1,.339-.364c.11-.062.191-.075.241-.041s.065.116.048.242a1.233,1.233,0,0,1-.217.47Zm-32.021-7.268-.415,5.289h.02a5.236,5.236,0,0,1,2.108-.49c1.544,0,1.77,1.073,1.77,2.823,0,1.563-.189,3.125-1.169,3.125-.809,0-1.034-1.091-1.034-2.07a3.176,3.176,0,0,1,.772-2.258,3.452,3.452,0,0,0-.7-.075,2.087,2.087,0,0,0-2.315,2.315c0,1.6.921,2.654,3.161,2.654,2.088,0,3.857-.941,3.857-3.952,0-2.729-1.467-3.9-3.651-3.9a5.458,5.458,0,0,0-2.129.414l.285-2.917a5.251,5.251,0,0,0,3.574,1.863c1.186,0,1.864-.47,1.864-1.732,0-.885-.338-1.3-1.448-1.938l-.17.244a1.256,1.256,0,0,1,.416.772c0,.414-.475.47-1.075.47a13.007,13.007,0,0,1-3.726-.64Zm11.556-.264c-3.257,0-4.329,3.406-4.329,5.929,0,2.861,1.41,5.646,4.008,5.646,2.353,0,4.272-2.314,4.272-6.21C9590.319,2606.289,9588.55,2604.783,9586.368,2604.783Zm1.223,5.514c0,4.4-.94,5.5-1.487,5.5-.582,0-1.279-1.412-1.279-5.1,0-2.823.415-5.25,1.449-5.25C9586.725,2605.442,9587.591,2605.988,9587.591,2610.3Z" transform="translate(-9435.944 -2576.628)" fill="#fcf5ab"/>
        <g id="Group_312751" data-name="Group 312751" transform="translate(114.115 48.734)">
          <path id="Path_302562" data-name="Path 302562" d="M10594.755,4129.779l1.716,4.445,4.756-.272-3.681,3.017,1.72,4.422-3.99-2.571-3.68,3.006,1.22-4.589-4.013-2.578,4.767-.278Z" transform="translate(-10565.144 -4127.152)" fill="#b68a34" fill-rule="evenodd"/>
          <path id="Path_302563" data-name="Path 302563" d="M9655.3,4112.36l1.3,3.356,3.59-.212-2.784,2.258,1.3,3.342-3.017-1.942-2.765,2.266.909-3.461-3.008-1.911,3.566-.195Z" transform="translate(-9641.787 -4110.004)" fill="#e7d17c" fill-rule="evenodd"/>
          <path id="Path_302564" data-name="Path 302564" d="M9074.553,3961.291l.871,2.25,2.41-.145-1.879,1.534.885,2.238-2.025-1.305-1.867,1.538.617-2.344-2.035-1.288,2.408-.139Z" transform="translate(-9071.529 -3961.291)" fill="#b68a34" fill-rule="evenodd"/>
          <path id="Path_302565" data-name="Path 302565" d="M11705.891,4152.58l-.905,3.478-3.584.19,3.008,1.933-.924,3.455,2.784-2.259,3.022,1.944-1.306-3.345,2.772-2.256-3.583.206Z" transform="translate(-11660.392 -4149.597)" fill="#e7d17c" fill-rule="evenodd"/>
          <path id="Path_302566" data-name="Path 302566" d="M12711.039,4051.43l-.634,2.35-2.405.117,2.04,1.311-.617,2.355,1.856-1.55,2.027,1.323-.9-2.283,1.885-1.5-2.4.144Z" transform="translate(-12651.293 -4050.025)" fill="#b68a34" fill-rule="evenodd"/>
        </g>
        <path id="Path_302567" data-name="Path 302567" d="M126.814,86.6a19.377,19.377,0,0,0-8.392,1.793l-.406.2a19.159,19.159,0,0,0-5.1,3.779A19.4,19.4,0,0,0,110,96.186c-.176.3-.025.015-.358.642a19.159,19.159,0,0,0-1.434,3.5c-.053.177-.1.354-.151.532l-.024.088q-.169.638-.3,1.3c-.035.174-.067.35-.1.525a24.034,24.034,0,0,0-.323,2.979h-.02c-.025.446-.037.9-.037,1.358a24.015,24.015,0,0,0,.561,5.311h-.07c.07.4.14.8.187,1.2.14.708.234,1.44.3,2.171a19.516,19.516,0,0,1,.14,2.314,20.175,20.175,0,0,1-5.936,14.752,19.484,19.484,0,0,1-14.372,6,20.1,20.1,0,0,1-13.04-4.39A20.347,20.347,0,0,1,67.88,122.5h11.9a10.256,10.256,0,0,0,3.6,4.249,8.864,8.864,0,0,0,4.931,1.44,8.558,8.558,0,0,0,6.357-2.715c2.758-2.832,2.758-5.877,2.43-9.512a32.949,32.949,0,0,1-1.238-9.087,31.44,31.44,0,0,1,4.113-15.791,30.807,30.807,0,0,1,11.31-11.4A30.125,30.125,0,0,1,125.7,75.506s1-.055,1.285-.055a29.482,29.482,0,0,1,15.7,4.309l.215.134a36.17,36.17,0,0,1,7.574,6.557v.011h.01a30.642,30.642,0,0,1,6.035,10.819c.016.052.648,2.469.655,2.5a34.013,34.013,0,0,1,.748,7.227,35.167,35.167,0,0,1-.3,4.68,30.937,30.937,0,0,1-45.341,22.837,24.008,24.008,0,0,1-5.529-3.669,19.8,19.8,0,0,0,3.466-12.8,19.873,19.873,0,0,0,13.682,8.933c.361.054.449.064.743.1q.639.071,1.293.1c.182.009.49.019.661.023q.216,0,.434,0,.483,0,.957-.021c.433-.019.43-.023.656-.04q.693-.053,1.367-.152c.815-.12.319-.049.356-.056a17.919,17.919,0,0,0,8.089-3.526c.246-.189.136-.1.362-.284a21.3,21.3,0,0,0,1.939-1.774l.029-.031h0l.019-.019h0v0a21.028,21.028,0,0,0,1.684-1.969c.252-.335.088-.1.406-.56a20.088,20.088,0,0,0,3.537-11.7c0-.253,0-.277-.007-.736a20.877,20.877,0,0,0-1.535-7.555c-.07-.168-.129-.311-.267-.614a19.441,19.441,0,0,0-2.043-3.469l-.311-.411a21.589,21.589,0,0,0-1.433-1.662c-.341-.358-.193-.208-.558-.567a20.942,20.942,0,0,0-1.637-1.448l-.485-.373a18.359,18.359,0,0,0-3.4-2.012c-.246-.111-.122-.063-.591-.254a19.2,19.2,0,0,0-7.341-1.384Zm-19.519,19.15v-.1h0v-.086h0v-.086h0v-.032l0-.024h0v-.086h0v-.086l-.023.071h0V105.3h0v-.018h0v-.018h0v-.018h0v-.018h0v-.035h0v-.017h0v-.017h0v-.017h0v-.035h0v-.017h0v-.017h0v-.034h0v-.017h0V105h0v-.017h0v-.051h0v-.051h0v-.051h0v-.017h0v-.051h0v-.017h0V104.7h0v-.017h0v-.017h0v-.117h0v-.017h0v-.05h0v-.017h0v-.033h0v-.1h0v-.1m.023,1.015Zm.169-4.648.011-.1Zm.028-.251.014-.116Zm.03-.249c.005-.041.01-.082.015-.123Zm.033-.262.015-.113Zm.034-.252.02-.139Zm.037-.255q.01-.071.021-.142Q107.669,99.259,107.659,99.33Zm.037-.246q.012-.077.024-.153Zm.029-.185c.015-.086.114-.662.116-.671l.006-.03Q107.783,98.547,107.726,98.9ZM114.09,84.48l.206-.257Zm.806-.974.065-.076Zm.158-.182.081-.092Zm.155-.175.1-.114Zm.158-.176.127-.139Zm.16-.175.129-.14Zm.154-.166.148-.158.522-.538Q116.011,82.278,115.682,82.631Zm1.107-1.125.077-.074Zm.175-.167.086-.082Zm.176-.166.1-.1Zm.176-.163.128-.117Zm.18-.164.132-.118Zm.185-.166.134-.118Zm.187-.165.157-.136Zm.174-.151.328-.279Q118.2,80.224,118.041,80.365Zm.424-.358.1-.08Zm.2-.161.091-.074Zm.2-.161.086-.069Zm-10.7,17.041-.012.051M79.752,77.489h27.365a30.9,30.9,0,0,0-9.885,10.5H88.188l-2.407,11a14.605,14.605,0,0,1,1.963-.425,12.957,12.957,0,0,1,1.87-.141,19.909,19.909,0,0,1,5.4.708l-.023.094a33.787,33.787,0,0,0-.561,12.085,7.619,7.619,0,0,0-5.492-2.218,7.88,7.88,0,0,0-3.646.921,13.258,13.258,0,0,0-3.528,2.809l-9.184-2.1,7.174-33.233ZM111.23,94.318l0,.006Zm0,.006Zm0,0,0,.006Zm0,.006Zm0,0,0,.006Zm0,.006Zm0,0,0,.006Zm0,.006Zm0,0,0,.006Zm0,.006Zm0,0,0,.006Zm0,.006Zm0,0,0,.006Zm0,.006Zm0,0,0,.006Zm0,.006Zm0,0,0,.006Zm0,.006Zm0,0,0,.006Zm0,.006Zm0,0,0,.006Zm0,.006Zm0,0,0,.006Zm0,.006Zm0,0,0,.006Zm0,.006Zm0,0,0,.006Zm0,.006Zm0,0,0,.006Zm0,.006Zm0,0,0,.006Zm0,.006Zm0,0,0,.006Zm0,.006Zm0,0,0,.006Zm0,.006Zm0,0,0,.006Zm0,.006Zm0,0,0,.006Zm0,.006Zm0,0,0,.006Zm0,.006Zm0,0,0,.006Zm0,.006Zm0,0,0,.006Zm0,.006Zm0,0,0,.006Zm0,.006Zm0,0,0,.006Zm0,.006,0,.006Zm0,.006Zm0,0,0,.006Zm0,.006Zm0,0,0,.006Zm0,.006Zm0,0,0,.006Zm0,.006,0,.006Zm0,.006,0,.006Zm0,.006Zm0,0,0,.006Zm0,.006Zm0,0,0,.006Zm0,.006,0,.006Zm0,.006,0,.006Zm0,.006Zm0,0,0,.006Zm0,.006Zm0,0,0,.006Zm0,.006,0,.006Zm0,.006Zm0,0,0,.006Zm0,.006,0,.006Zm0,.006Zm0,0,0,.006Zm0,.006,0,.006Zm0,.006,0,.006Zm0,.006,0,.006Zm0,.006,0,.006Zm0,.006,0,.006Zm0,.006,0,.006Zm0,.006Zm0,0,0,.006Zm0,.006,0,.006Zm0,.006,0,.006Zm0,.006,0,.006Zm0,.006Zm0,0,0,.006Zm0,.006,0,.006Zm0,.006,0,.006Zm0,.006,0,.006Zm0,.006,0,.006Zm0,.006,0,.006Zm0,.006,0,.006Zm0,.006,0,.006Zm0,.006,0,.006Zm0,.006,0,.006Zm0,.006,0,.007Zm0,.007,0,.007Zm0,.007,0,.007Zm5.02-4.9-.027.018Zm-.027.018Zm0,0-.027.018Zm-.027.018Zm0,0-.027.018Zm-.027.018Zm0,0-.027.018Zm-.027.018Zm0,0-.027.018Zm-.027.018Zm0,0-.027.018Zm-.027.018Zm0,0-.027.018Zm-.027.018Zm0,0-.027.018Zm-.027.018Zm0,0-.027.018Zm-.027.018Zm0,0-.027.019Zm-.027.019Zm0,0-.027.019Zm-.027.019Zm0,0-.027.019Zm-.027.019Zm0,0-.027.019Zm-.027.019Zm0,0-.027.019Zm-.027.019Zm0,0-.027.019Zm-.027.019Zm0,0-.027.019Zm-.027.019Zm0,0-.027.019Zm-.027.019Zm0,0-.027.019Zm-.027.019Zm0,0-.027.019Zm-.027.019Zm0,0-.027.019Zm-.027.019-.027.019Zm-.027.019-.027.02Zm-.027.02Zm0,0-.027.02Zm-.027.02-.027.02Zm-.027.02-.026.02Zm-.026.02Zm0,0-.027.02Zm-.027.02Zm0,0-.027.02Zm-.027.02Zm0,0-.026.02Zm-.026.02Zm0,0-.026.02Zm-.026.02-.026.02Zm-.026.02Zm0,0-.026.02Zm-.026.02Zm0,0-.026.02Zm-.026.02-.026.02Zm-.026.02Zm0,0-.026.02Zm-.026.02Zm0,0-.026.02Zm-.026.02Zm0,0-.026.02Zm-.026.02Zm0,0-.026.02Zm-.026.02Zm0,0-.026.02Zm-.026.02-.026.02Zm-.026.02-.026.021Zm-.026.021-.026.021Zm-.026.021-.026.021Zm-.026.021-.026.021Zm-.026.021Zm0,0-.026.021Zm-.026.021Zm0,0-.026.021Zm-.026.021-.026.021Zm-.026.021-.026.021Zm-.026.021Zm0,0-.026.021Zm-.026.021Zm0,0-.026.021Zm-.026.021-.026.021Zm-.026.021-.026.021Zm-.026.021Zm0,0-.026.021Zm-.026.021-.026.021Zm-.026.021-.026.021Zm-.026.021-.026.021Zm-.026.021-.025.021Zm-.025.021Zm0,0-.025.021Zm-.025.021-.025.021Zm-.025.021-.025.021Zm-.025.021Zm0,0-.025.021Zm-.025.021Zm0,0-.025.021Zm-.025.021Zm0,0-.025.021Zm-.025.021Zm0,0-.025.021Zm-.025.021Zm0,0-.025.021Zm-.025.021Zm3.3-2.266-.012.007Zm-.012.007-.012.007Zm-.012.007-.012.007Zm-.012.007Zm0,0-.012.007Zm-.012.007-.012.007Zm-.012.007-.012.007Zm-.012.007-.012.007Zm-.012.007-.012.007Zm-.012.007-.012.007Zm-.012.007-.012.007Zm-.012.007-.012.007Zm-.012.007-.012.007Zm-.012.007Zm0,0-.012.007Zm-.012.007-.012.007Zm-.012.007-.012.007Zm-.012.007Zm0,0-.012.007Zm-.012.007-.012.007Zm-.012.007Zm0,0-.012.007Zm-.012.007-.012.007Zm-.012.007-.012.007Zm-.012.007Zm0,0-.012.007Zm-.012.007-.012.007Zm-.012.007-.013.007Zm-.013.007-.013.007Zm-.013.007-.013.007Zm-.013.007Zm0,0-.013.007Zm-.013.007Zm0,0-.013.007Zm-.013.007Zm0,0-.013.007Zm-.013.007Zm0,0-.013.007Zm-.013.007Zm0,0-.013.007Zm-.013.007Zm0,0-.013.007Zm-.013.007Zm0,0-.013.007Zm-.013.007-.013.007Zm-.013.007-.013.008Zm-.013.008-.013.008Zm-.013.008-.013.008Zm-.013.008Zm0,0-.013.008Zm-.013.008Zm0,0-.013.008Zm-.013.008-.013.008Zm-.013.008-.013.008Zm-.013.008-.013.008Zm-.013.008Zm0,0-.012.008Zm-.012.008Zm0,0-.012.008Zm-.012.008-.012.008Zm-.012.008-.013.008Zm-.013.008Zm0,0-.012.008Zm-.012.008Zm0,0-.012.008Zm-.012.008-.012.008Zm-.012.008-.012.008Zm-.012.008-.012.008Zm-.012.008Zm0,0-.012.008Zm-.012.008-.012.008Zm-.012.008Zm0,0-.012.008Zm-.012.008-.012.008Zm-.012.008-.012.008Zm-.012.008Zm0,0-.012.008Zm-.012.008-.012.008Zm-.012.008Zm0,0-.012.008Zm-.012.008Zm0,0-.012.008Zm-.012.008Zm0,0-.012.008Zm-.012.008Zm0,0-.012.008Zm-.012.008Zm0,0-.012.008Zm-.012.008Zm0,0-.012.008Zm-.012.008Zm0,0-.012.008Zm-.012.008h0l-.007,0h0l-.007,0h0l-.007,0h0l-.007,0h0l-.007,0h0l-.007,0h0l-.007,0-.007,0h0l-.007,0h0l-.007,0h0l-.007,0-.007,0h0l-.006,0h0l-.006,0-.006,0h0l-.006,0-.006,0h0l-.006,0h0l-.006,0-.006,0h0l-.006,0-.006,0h0l-.006,0h0l-.006,0-.006,0h0l-.006,0-.006,0h0l-.006,0-.006,0-.006,0-.006,0-.006,0-.006,0-.006,0-.006,0-.006,0-.006,0-.006,0-.006,0-.006,0-.006,0-.006,0-.006,0-.006,0-.006,0-.006,0-.006,0-.006,0-.006,0-.006,0-.006,0-.006,0-.006,0-.006,0-.006,0-.006,0-.006,0-.006,0-.006,0-.006,0-.006,0-.006,0-.006,0-.006,0,.006,0,.006,0,.006,0,.006,0,.006,0,.006,0,.006,0,.006,0,.006,0,.006,0,.006,0,.006,0,.006,0,.006,0,.006,0,.006,0,.006,0,.006,0,.006,0,.006,0,.006,0,.006,0,.006,0,.006,0,.006,0,.006,0,.006,0,.006,0h0l.006,0,.006,0,.006,0,.006,0h0l.006,0,.006,0,.006,0,.006,0,.006,0,.006,0h0l.006,0h0l.006,0,.006,0,.006,0,.006,0,.006,0,.006,0,.006,0,.006,0,.006,0,.006,0h0l.006,0,.006,0h0l.006,0h0l.007,0,.007,0h0l.007,0h0l.007,0h0l.007,0h0l.007,0h0l.007,0h0l.007,0,.007,0h0l.007,0h0l.007,0h0l.007,0h0Z" transform="translate(-67.081 -74.562)" fill="url(#linear-gradient)"/>
        <path id="Path_302568" data-name="Path 302568" d="M3319.108,11.172a19.377,19.377,0,0,0-8.392,1.793l-.406.2a19.161,19.161,0,0,0-5.095,3.779,19.394,19.394,0,0,0-2.919,3.813c-.176.3-.025.015-.358.642a19.156,19.156,0,0,0-1.433,3.5c-.053.177-.1.354-.152.532l-.023.088q-.169.638-.3,1.3c-.034.174-.067.35-.1.525a24.031,24.031,0,0,0-.323,2.979h-.02q.014-.254.033-.507l-.024.071V28.8a33.338,33.338,0,0,1,.42-5.324c0-.032.115-.671.117-.681q.135-.73.3-1.45h.011v-.02h0V21.3a31.16,31.16,0,0,1,3.262-8.288,31.5,31.5,0,0,1,2.643-3.925l.244-.3q.731-.9,1.526-1.739l.531-.546q.8-.806,1.668-1.552c.05-.044.312-.266.349-.3A31.763,31.763,0,0,1,3315,1.61q.713-.412,1.441-.788c.114-.059.23-.118.345-.175q.6-.3,1.2-.571s1-.055,1.285-.055a29.483,29.483,0,0,1,15.7,4.309l.215.134a36.17,36.17,0,0,1,7.573,6.557v.011h.01a30.642,30.642,0,0,1,6.035,10.819c.016.052.647,2.469.655,2.5a34.013,34.013,0,0,1,.748,7.227,35.1,35.1,0,0,1-.305,4.68,30.618,30.618,0,0,1-29.228,26.529,31.85,31.85,0,0,1-16.113-3.692,24,24,0,0,1-5.529-3.669,19.8,19.8,0,0,0,3.465-12.8,19.873,19.873,0,0,0,13.682,8.933c.362.054.449.064.743.1q.639.071,1.292.1c.182.009.49.019.661.023.145,0,.289,0,.434,0q.483,0,.957-.021c.433-.019.43-.023.657-.04q.693-.053,1.367-.152c.815-.12.319-.049.356-.056a17.919,17.919,0,0,0,8.088-3.526c.246-.189.136-.1.362-.284a21.318,21.318,0,0,0,1.939-1.774l.03-.031h0l.019-.019h0v0a21.057,21.057,0,0,0,1.683-1.969c.252-.335.088-.1.406-.56a20.09,20.09,0,0,0,3.537-11.7c0-.253,0-.277-.007-.736a20.883,20.883,0,0,0-1.535-7.555c-.07-.168-.129-.311-.267-.614a19.43,19.43,0,0,0-2.043-3.469l-.311-.411a21.615,21.615,0,0,0-1.433-1.662c-.342-.358-.193-.208-.559-.567a20.955,20.955,0,0,0-1.637-1.448l-.485-.373a18.349,18.349,0,0,0-3.4-2.012c-.246-.111-.122-.063-.591-.254a19.2,19.2,0,0,0-7.341-1.384Zm-15.583,7.715c-.093.118-.187.236-.28.377C3303.338,19.123,3303.431,19,3303.524,18.887Zm4.744-4.532a17.6,17.6,0,0,0-1.683,1.275A17.6,17.6,0,0,1,3308.269,14.355Zm1.612-.991c-.257.141-.538.307-.795.472a2.2,2.2,0,0,0-.4.236c.117-.071.257-.165.4-.236C3309.344,13.671,3309.624,13.505,3309.881,13.364Z" transform="translate(-3260.175 -0.02)" fill="url(#linear-gradient-2)"/>
        <path id="Path_302569" data-name="Path 302569" d="M39.438,34.461c-.047.614-.07,1.227-.07,1.865a24.015,24.015,0,0,0,.561,5.311h-.07c.07.4.14.8.187,1.2.14.708.234,1.44.3,2.171a19.519,19.519,0,0,1,.14,2.314,20.175,20.175,0,0,1-5.936,14.752,19.484,19.484,0,0,1-14.372,6,20.1,20.1,0,0,1-13.04-4.39A20.347,20.347,0,0,1-.01,51.715h11.9a10.256,10.256,0,0,0,3.6,4.249,8.864,8.864,0,0,0,4.931,1.44,8.558,8.558,0,0,0,6.357-2.715c2.758-2.832,2.758-5.877,2.43-9.512a32.949,32.949,0,0,1-1.238-9.087A31.44,31.44,0,0,1,32.076,20.3,30.807,30.807,0,0,1,43.387,8.9,30.125,30.125,0,0,1,57.805,4.721a32.66,32.66,0,0,0-2.991,1.534,30.571,30.571,0,0,0-11.287,11.4,31.444,31.444,0,0,0-4.113,15.791v1.086l.023-.071Zm3.9-10.928c-.093.118-.187.236-.28.377C43.153,23.768,43.247,23.65,43.34,23.532ZM48.084,19A17.61,17.61,0,0,0,46.4,20.275,17.575,17.575,0,0,1,48.084,19ZM11.862,6.7H39.227a30.9,30.9,0,0,0-9.885,10.5H20.3l-2.407,11a14.6,14.6,0,0,1,1.963-.425,12.957,12.957,0,0,1,1.87-.141,19.91,19.91,0,0,1,5.4.708l-.023.094a33.787,33.787,0,0,0-.561,12.085,7.619,7.619,0,0,0-5.492-2.218,7.88,7.88,0,0,0-3.646.921,13.258,13.258,0,0,0-3.528,2.809l-9.184-2.1L11.862,6.7ZM49.7,18.009c-.257.141-.538.307-.795.472a2.223,2.223,0,0,0-.4.236c.117-.071.257-.165.4-.236C49.159,18.316,49.44,18.151,49.7,18.009Z" transform="translate(0.01 -4.665)" fill="url(#linear-gradient-3)"/>
      </g>
    </g>
    <g id="Group_312761" data-name="Group 312761" transform="translate(1363.523 424.759)">
      <path id="Path_303811" data-name="Path 303811" d="M361.834,447.61a9.069,9.069,0,0,1,7.558,3.247,6.979,6.979,0,0,1,.862,1.287c.061.129.118.206.191.359.222.473.293.731.471,1.155a8.327,8.327,0,0,1,.407,1.737,9.013,9.013,0,0,1-.157,2.513c-.036.143-.07.282-.1.421a8.092,8.092,0,0,1-.953,2.3,8.394,8.394,0,0,1-.9,1.249,9.89,9.89,0,0,1-2.07,1.739c-.133.073-.214.11-.335.183a9.02,9.02,0,0,1-2.375.878c-.318.039-.618.124-.922.141a8.488,8.488,0,0,1-3.7-.621,9.767,9.767,0,0,1-4.681-3.965A8.512,8.512,0,0,1,354,457.061a9.154,9.154,0,0,1,.5-3.793,8.091,8.091,0,0,1,3.247-4.346,8.341,8.341,0,0,1,4.093-1.312Zm-12.3,8.686v2.817c.057.073.067.068.087.286a15.977,15.977,0,0,0,.4,1.964,11.82,11.82,0,0,0,.794,1.94,11.343,11.343,0,0,0,6.747,5.457,16.845,16.845,0,0,0,2.775.619c.319.065.453-.019.625.12l2.434-.015c.05-.031,1.193-.163,1.358-.192a6.7,6.7,0,0,0,.705-.127l1.781-.586c.377-.145.7-.332,1.083-.5a13.74,13.74,0,0,0,1.932-1.247,20.019,20.019,0,0,0,1.637-1.515.435.435,0,0,1,.128-.2c.013-.016.066-.081.067-.081.061-.06.028-.031.1-.072.063-.107.207-.238.3-.369.326-.442.578-.772.871-1.239a13.8,13.8,0,0,0,.967-1.809,12.493,12.493,0,0,0,.72-2.09,17.731,17.731,0,0,0,.348-1.751c.048-.264,0-.434.112-.584l0-2.374a.769.769,0,0,1-.082-.383c-.015-.183-.041-.192-.064-.37a12.072,12.072,0,0,0-1.634-4.327,15.666,15.666,0,0,0-4.659-4.695c-.177-.12-.365-.212-.524-.329a18.113,18.113,0,0,0-2.781-1.472l-1.859-.692c-.45-.137-.852-.26-1.332-.375-.048-.012-1.32-.29-1.337-.337,0-.014-.018-.013-.025-.02l-.573,0a7.865,7.865,0,0,1-1.048.582,23.858,23.858,0,0,0-4.77,3.257c-.261.241-.552.506-.821.77s-.494.547-.766.825a8.129,8.129,0,0,0-.728.9,14.317,14.317,0,0,0-2.518,5.479c-.1.442-.159.861-.257,1.32-.043.207-.062.524-.1.718,0,.01-.05.764-.085.669C349.542,456.264,349.535,456.288,349.529,456.3Z" fill="#0201a3" fill-rule="evenodd"/>
      <path id="Path_303812" data-name="Path 303812" d="M364.06,451.691a5.421,5.421,0,0,1,1.295.583,5.874,5.874,0,0,1,1.867,1.794,4.843,4.843,0,0,1,.546,1.3c.046.3.121.443.153.778a9.035,9.035,0,0,1,.017.96,3.525,3.525,0,0,1-.334,1.536,2.951,2.951,0,0,1-.472.89A5.6,5.6,0,0,1,365,461.39a4.042,4.042,0,0,1-1.214.422,6.2,6.2,0,0,1-1.449.169,7.019,7.019,0,0,1-1.434-.226,6.464,6.464,0,0,1-1.16-.465,6.18,6.18,0,0,1-1.359-1.118,5.8,5.8,0,0,1-1.118-2.133,5.264,5.264,0,0,1,.01-2.244l.387-1.256a6.654,6.654,0,0,1,.783-1.289l.618-.6c.156-.117.307-.261.47-.377.073-.052.192-.113.258-.151a3.485,3.485,0,0,1,.844-.379l.594-.2a5.653,5.653,0,0,1,2.559.054l.242.077s.014.017.016.012.01.007.014.013Zm-2.478-4.412a8.341,8.341,0,0,0-4.093,1.312,8.091,8.091,0,0,0-3.247,4.346,9.154,9.154,0,0,0-.5,3.793,8.512,8.512,0,0,0,1.137,3.176,9.767,9.767,0,0,0,4.681,3.965,8.488,8.488,0,0,0,3.7.621c.3-.017.6-.1.922-.141a9.02,9.02,0,0,0,2.375-.878c.121-.073.2-.11.335-.183a9.89,9.89,0,0,0,2.07-1.739,8.394,8.394,0,0,0,.9-1.249,8.092,8.092,0,0,0,.953-2.3c.028-.139.062-.278.1-.421a9.013,9.013,0,0,0,.157-2.513,8.327,8.327,0,0,0-.407-1.737c-.178-.424-.249-.682-.471-1.155-.073-.154-.129-.23-.191-.359a6.979,6.979,0,0,0-.862-1.287,9.069,9.069,0,0,0-7.558-3.247Z" transform="translate(0.252 0.331)" fill="#fdfcfc" fill-rule="evenodd"/>
      <path id="Path_303813" data-name="Path 303813" d="M361.92,457.681a2.055,2.055,0,1,1,0-4.105,2.214,2.214,0,0,1,.885.217,2.1,2.1,0,0,1,1.3,1.816,2.108,2.108,0,0,1-2.187,2.072Zm2.885,3.471a5.6,5.6,0,0,0,2.13-1.859,2.951,2.951,0,0,0,.472-.89,3.525,3.525,0,0,0,.334-1.536,9.035,9.035,0,0,0-.017-.96c-.032-.335-.107-.481-.153-.778a4.843,4.843,0,0,0-.546-1.3,5.874,5.874,0,0,0-1.867-1.794,5.421,5.421,0,0,0-1.295-.583c0-.005-.012-.018-.014-.013s-.013-.011-.016-.012l-.242-.077a5.653,5.653,0,0,0-2.559-.054l-.594.2a3.485,3.485,0,0,0-.844.379c-.066.037-.185.1-.258.151-.162.117-.314.261-.47.377l-.618.6a6.654,6.654,0,0,0-.783,1.289l-.387,1.256a5.264,5.264,0,0,0-.01,2.244,5.8,5.8,0,0,0,1.118,2.133,6.18,6.18,0,0,0,1.359,1.118,6.464,6.464,0,0,0,1.16.465,7.019,7.019,0,0,0,1.434.226,6.2,6.2,0,0,0,1.449-.169A4.042,4.042,0,0,0,364.805,461.152Z" transform="translate(0.448 0.569)" fill="#019cfd" fill-rule="evenodd"/>
      <path id="Path_303814" data-name="Path 303814" d="M361.76,457.544a2.108,2.108,0,0,0,2.187-2.072,2.1,2.1,0,0,0-1.3-1.816,2.214,2.214,0,0,0-.885-.217A2.055,2.055,0,1,0,361.76,457.544Z" transform="translate(0.608 0.705)" fill="#01015d" fill-rule="evenodd"/>
      <path id="Path_303815" data-name="Path 303815" d="M370.611,463.995a.822.822,0,0,0,.3-.351c-.076.041-.042.012-.1.072,0,0-.054.065-.067.081A.435.435,0,0,0,370.611,463.995Z" transform="translate(1.271 1.32)" fill="#5e63bd" fill-rule="evenodd"/>
    </g>
  </g>
</svg>
