<svg xmlns="http://www.w3.org/2000/svg" width="21.6" height="21.602" viewBox="0 0 21.6 21.602">
  <g id="Group_312767" data-name="Group 312767" transform="translate(-18745.4 -17757.199)">
    <path id="instagram" d="M207.96,8434h9.679a5.969,5.969,0,0,1,5.96,5.963v9.673a5.97,5.97,0,0,1-5.96,5.964H207.96a5.97,5.97,0,0,1-5.96-5.964v-9.673A5.969,5.969,0,0,1,207.96,8434Zm9.679,19.68a4.048,4.048,0,0,0,4.044-4.044h0v-9.673a4.048,4.048,0,0,0-4.044-4.044H207.96a4.048,4.048,0,0,0-4.044,4.044v9.673a4.048,4.048,0,0,0,4.044,4.044Z" transform="translate(18543.4 9323.199)" fill="#fff" fill-rule="evenodd"/>
    <path id="Path_291495" data-name="Path 291495" d="M206.5,8443.9a5.4,5.4,0,1,1,5.4,5.4A5.407,5.407,0,0,1,206.5,8443.9Zm1.859,0a3.541,3.541,0,1,0,3.541-3.54A3.542,3.542,0,0,0,208.359,8443.9Z" transform="translate(18544.301 9324.1)" fill="#fff" fill-rule="evenodd"/>
    <path id="Path_291496" data-name="Path 291496" d="M215.725,8437.381a1.344,1.344,0,0,0-.954.384,1.361,1.361,0,0,0,0,1.92,1.377,1.377,0,0,0,1.909,0,1.364,1.364,0,0,0,0-1.92A1.344,1.344,0,0,0,215.725,8437.381Z" transform="translate(18545.875 9323.875)" fill="#fff"/>
  </g>
</svg>
