<?xml version="1.0" encoding="UTF-8" standalone="no"?>
<svg
   width="202.5"
   height="70.297"
   viewBox="0 0 202.5 70.297"
   version="1.1"
   id="svg5"
   sodipodi:docname="Group 312766.svg"
   inkscape:version="1.3.2 (091e20e, 2023-11-25)"
   xmlns:inkscape="http://www.inkscape.org/namespaces/inkscape"
   xmlns:sodipodi="http://sodipodi.sourceforge.net/DTD/sodipodi-0.dtd"
   xmlns:xlink="http://www.w3.org/1999/xlink"
   xmlns="http://www.w3.org/2000/svg"
   xmlns:svg="http://www.w3.org/2000/svg">
  <sodipodi:namedview
     id="namedview5"
     pagecolor="#ffffff"
     bordercolor="#000000"
     borderopacity="0.25"
     inkscape:showpageshadow="2"
     inkscape:pageopacity="0.0"
     inkscape:pagecheckerboard="0"
     inkscape:deskcolor="#d1d1d1"
     inkscape:zoom="2.7681971"
     inkscape:cx="101.51011"
     inkscape:cy="39.014563"
     inkscape:window-width="1472"
     inkscape:window-height="827"
     inkscape:window-x="0"
     inkscape:window-y="37"
     inkscape:window-maximized="1"
     inkscape:current-layer="Group_312766" />
  <defs
     id="defs5">
    <linearGradient
       id="linear-gradient"
       x1="0.136"
       y1="-0.047"
       x2="0.893"
       y2="1.032"
       gradientUnits="objectBoundingBox">
      <stop
         offset="0"
         stop-color="#a7772c"
         id="stop1" />
      <stop
         offset="0.31"
         stop-color="#c39a3b"
         id="stop2" />
      <stop
         offset="0.561"
         stop-color="#fcf5ab"
         id="stop3" />
      <stop
         offset="0.769"
         stop-color="#c59e3d"
         id="stop4" />
      <stop
         offset="1"
         stop-color="#a3732a"
         id="stop5" />
    </linearGradient>
    <linearGradient
       id="linear-gradient-2"
       x1="0.221"
       y1="0.078"
       x2="0.99"
       y2="1.085"
       xlink:href="#linear-gradient" />
    <linearGradient
       id="linear-gradient-3"
       x1="0.255"
       y1="1.133"
       x2="0.698"
       y2="-0.163"
       xlink:href="#linear-gradient" />
  </defs>
  <g
     id="Group_312766"
     data-name="Group 312766"
     transform="translate(-1665.499 -849.022)">
    <g
       id="Group_312754"
       data-name="Group 312754">
      <path
         id="Path_303801"
         data-name="Path 303801"
         d="m -13389.211,-11569.18 -4.014,-2.578 4.768,-0.278 1.185,-4.6 1.715,4.445 4.758,-0.271 -3.681,3.016 1.718,4.421 -3.99,-2.57 -3.677,3 z m 16.344,-1.5 -3.009,-1.937 3.583,-0.187 0.906,-3.48 1.284,3.349 3.582,-0.208 -2.771,2.255 1.308,3.346 -3.026,-1.942 -2.781,2.258 z m -31.975,-0.625 -3.009,-1.909 3.565,-0.2 0.913,-3.5 1.3,3.355 3.589,-0.211 -2.784,2.259 1.3,3.341 -3.02,-1.942 -2.764,2.266 z m 46.7,-2.774 -2.037,-1.314 2.4,-0.115 0.635,-2.351 0.856,2.266 2.4,-0.143 -1.885,1.5 0.894,2.282 -2.027,-1.325 -1.854,1.553 z m -56.71,-1.416 -2.034,-1.291 2.408,-0.139 0.614,-2.34 0.873,2.251 2.407,-0.146 -1.878,1.535 0.887,2.237 -2.027,-1.308 -1.868,1.542 z m 41.64,-5.519 c -0.02,-0.163 -0.02,-0.33 0.03,-0.489 0.02,-0.09 0.09,-0.322 0.224,-0.706 0.132,-0.384 0.306,-0.862 0.51,-1.437 0.204,-0.575 0.432,-1.205 0.679,-1.9 0.247,-0.695 0.507,-1.4 0.765,-2.1 0.258,-0.7 0.509,-1.382 0.757,-2.038 0.248,-0.656 0.448,-1.229 0.629,-1.725 -0.109,0.173 -0.228,0.356 -0.363,0.554 -0.135,0.198 -0.266,0.394 -0.4,0.594 -0.134,0.2 -0.278,0.4 -0.415,0.591 -0.137,0.191 -0.278,0.377 -0.414,0.544 -0.228,0.281 -0.414,0.506 -0.554,0.672 -0.14,0.166 -0.268,0.214 -0.377,0.153 -0.163,-0.122 -0.271,-0.304 -0.3,-0.506 -0.07,-0.324 -0.1,-0.657 -0.08,-0.988 0.02,-0.442 0.08,-0.881 0.173,-1.312 0.116,-0.504 0.272,-0.998 0.466,-1.477 0.11,-0.285 0.261,-0.553 0.448,-0.795 0.135,-0.172 0.299,-0.319 0.485,-0.435 0.132,-0.08 0.283,-0.13 0.438,-0.14 0.117,-0.01 0.234,0.02 0.332,0.08 0.09,0.05 0.146,0.141 0.163,0.241 0.02,0.111 -0.01,0.224 -0.08,0.315 -0.139,0.221 -0.288,0.462 -0.441,0.73 -0.153,0.268 -0.3,0.54 -0.444,0.821 -0.144,0.281 -0.278,0.563 -0.4,0.843 -0.122,0.28 -0.224,0.54 -0.309,0.78 -0.07,0.208 -0.128,0.42 -0.17,0.636 -0.03,0.133 -0.02,0.273 0.03,0.4 l 2.869,-4.021 c 0.121,-0.279 0.306,-0.526 0.54,-0.72 0.161,-0.141 0.359,-0.233 0.57,-0.266 0.151,-0.02 0.299,0.05 0.37,0.19 0.08,0.208 0.05,0.439 -0.06,0.628 -0.06,0.119 -0.129,0.3 -0.238,0.537 -0.109,0.237 -0.214,0.509 -0.346,0.812 -0.132,0.303 -0.278,0.628 -0.432,0.975 -0.154,0.347 -0.3,0.7 -0.448,1.042 -0.363,0.806 -0.75,1.685 -1.172,2.636 0.422,-0.687 0.825,-1.352 1.216,-2.011 0.163,-0.281 0.34,-0.573 0.52,-0.872 0.18,-0.299 0.367,-0.591 0.544,-0.877 0.177,-0.286 0.346,-0.563 0.513,-0.831 l 0.212,-0.353 0.02,-0.05 c 0.08,-0.168 0.184,-0.327 0.3,-0.474 0.06,-0.1 0.143,-0.179 0.235,-0.246 l 0.01,-0 c 0.03,-0.02 0.06,-0.05 0.1,-0.07 0.187,-0.145 0.408,-0.238 0.642,-0.272 0.148,-0.03 0.302,0.02 0.4,0.136 0.08,0.105 0.05,0.245 -0.09,0.415 -0.206,0.258 -0.385,0.537 -0.533,0.832 -0.184,0.345 -0.351,0.699 -0.5,1.06 -0.156,0.366 -0.293,0.74 -0.411,1.12 -0.108,0.332 -0.196,0.67 -0.262,1.012 0.258,-0.15 0.49,-0.341 0.687,-0.566 0.289,-0.304 0.562,-0.622 0.818,-0.955 0.285,-0.363 0.561,-0.754 0.842,-1.161 0.281,-0.407 0.533,-0.794 0.761,-1.165 0.105,-0.187 0.258,-0.454 0.448,-0.812 0.19,-0.358 0.407,-0.747 0.642,-1.182 0.235,-0.435 0.482,-0.89 0.734,-1.361 0.252,-0.471 0.506,-0.931 0.74,-1.372 l 0.645,-1.205 c 0.2,-0.363 0.347,-0.652 0.459,-0.856 0.102,-0.193 0.249,-0.359 0.428,-0.485 0.144,-0.11 0.319,-0.173 0.5,-0.18 0.146,-0 0.282,0.07 0.353,0.2 0.09,0.206 0.1,0.438 0.02,0.649 -0.113,0.404 -0.281,0.791 -0.5,1.15 -0.362,0.606 -0.772,1.182 -1.226,1.722 -0.1,0.227 -0.224,0.53 -0.377,0.907 -0.146,0.377 -0.309,0.795 -0.482,1.253 -0.173,0.458 -0.35,0.94 -0.536,1.439 -0.186,0.499 -0.36,0.992 -0.533,1.475 -0.173,0.483 -0.333,0.923 -0.482,1.338 -0.149,0.415 -0.271,0.767 -0.366,1.046 0.417,-0.439 0.821,-0.872 1.212,-1.3 0.166,-0.187 0.34,-0.384 0.517,-0.587 0.177,-0.203 0.359,-0.408 0.533,-0.622 0.174,-0.214 0.336,-0.41 0.5,-0.618 0.164,-0.208 0.3,-0.407 0.421,-0.6 0.09,-0.144 0.202,-0.268 0.34,-0.363 0.108,-0.06 0.19,-0.07 0.241,-0.04 0.05,0.03 0.06,0.115 0.05,0.241 -0.04,0.17 -0.113,0.329 -0.218,0.468 v 0 c -0.244,0.35 -0.5,0.706 -0.764,1.063 -0.264,0.357 -0.537,0.7 -0.8,1.022 -0.263,0.322 -0.54,0.632 -0.809,0.913 -0.269,0.281 -0.523,0.533 -0.761,0.754 -0.18,0.178 -0.386,0.328 -0.611,0.445 -0.124,0.07 -0.271,0.09 -0.411,0.06 -0.105,-0.05 -0.173,-0.148 -0.176,-0.262 -0.01,-0.18 0.01,-0.361 0.07,-0.533 0.09,-0.312 0.2,-0.7 0.34,-1.175 0.14,-0.475 0.288,-0.954 0.441,-1.453 0.153,-0.499 0.3,-0.972 0.444,-1.423 0.144,-0.451 0.275,-0.812 0.384,-1.09 -0.108,0.183 -0.241,0.41 -0.391,0.692 -0.15,0.282 -0.329,0.591 -0.525,0.944 -0.08,0.159 -0.184,0.302 -0.312,0.425 -0.176,0.277 -0.366,0.562 -0.564,0.852 -0.295,0.428 -0.594,0.836 -0.9,1.229 -0.306,0.393 -0.614,0.75 -0.917,1.069 -0.254,0.278 -0.539,0.526 -0.849,0.74 -0.108,0.08 -0.232,0.127 -0.363,0.149 -0.115,0.02 -0.235,0 -0.34,-0.05 -0.103,-0.06 -0.178,-0.158 -0.21,-0.272 -0.05,-0.173 -0.06,-0.356 -0.02,-0.532 0.02,-0.143 0.06,-0.347 0.109,-0.6 0.04,-0.208 0.08,-0.436 0.134,-0.682 v 0 c -0.418,0.68 -0.809,1.308 -1.158,1.888 -0.349,0.58 -0.676,1.124 -0.975,1.627 -0.299,0.503 -0.584,1.012 -0.862,1.515 -0.278,0.503 -0.533,1.016 -0.788,1.545 -0.255,0.529 -0.513,1.1 -0.771,1.726 -0.09,0.217 -0.199,0.423 -0.333,0.614 -0.1,0.14 -0.187,0.214 -0.258,0.225 h -0.02 c -0.07,0 -0.114,-0.04 -0.136,-0.137 z m -28.668,-6.486 c -0.236,-0.03 -0.429,-0.206 -0.488,-0.437 -0.108,-0.326 -0.156,-0.669 -0.143,-1.013 0.01,-0.451 0.06,-0.901 0.143,-1.345 0.04,-0.219 0.09,-0.438 0.143,-0.655 -0.192,0.25 -0.386,0.492 -0.581,0.724 -0.269,0.326 -0.536,0.632 -0.8,0.913 -0.264,0.281 -0.523,0.533 -0.764,0.751 -0.179,0.181 -0.385,0.332 -0.611,0.448 -0.124,0.07 -0.269,0.09 -0.408,0.06 -0.106,-0.05 -0.175,-0.149 -0.176,-0.265 -0.02,-0.179 0,-0.36 0.06,-0.53 0.09,-0.312 0.2,-0.7 0.343,-1.175 0.143,-0.475 0.285,-0.954 0.441,-1.453 0.156,-0.499 0.3,-0.972 0.444,-1.423 0.144,-0.451 0.272,-0.812 0.381,-1.09 -0.108,0.183 -0.241,0.41 -0.391,0.692 -0.15,0.282 -0.329,0.591 -0.523,0.944 -0.08,0.156 -0.186,0.298 -0.311,0.421 -0.177,0.278 -0.366,0.563 -0.565,0.855 -0.292,0.428 -0.6,0.836 -0.9,1.229 -0.286,0.372 -0.592,0.729 -0.917,1.069 -0.252,0.279 -0.536,0.527 -0.845,0.74 -0.108,0.08 -0.232,0.128 -0.363,0.149 -0.114,0.02 -0.233,0 -0.337,-0.05 -0.104,-0.06 -0.181,-0.157 -0.217,-0.272 -0.05,-0.174 -0.05,-0.356 -0.01,-0.532 0.02,-0.143 0.06,-0.347 0.105,-0.608 0.05,-0.261 0.108,-0.557 0.184,-0.883 0.08,-0.346 0.173,-0.687 0.288,-1.022 0.114,-0.352 0.254,-0.696 0.418,-1.028 0.145,-0.317 0.367,-0.592 0.646,-0.8 0.186,-0.145 0.406,-0.238 0.639,-0.272 0.148,-0.03 0.302,0.02 0.4,0.136 0.08,0.105 0.05,0.245 -0.09,0.415 -0.206,0.258 -0.387,0.535 -0.54,0.828 -0.173,0.336 -0.34,0.689 -0.5,1.063 -0.155,0.366 -0.292,0.74 -0.41,1.12 -0.108,0.332 -0.196,0.67 -0.262,1.012 0.259,-0.15 0.492,-0.341 0.689,-0.566 0.289,-0.304 0.562,-0.622 0.818,-0.955 0.281,-0.363 0.561,-0.754 0.842,-1.161 0.281,-0.407 0.53,-0.794 0.754,-1.165 0.112,-0.187 0.262,-0.454 0.455,-0.812 0.193,-0.358 0.4,-0.747 0.642,-1.182 l 0.734,-1.361 c 0.254,-0.476 0.5,-0.931 0.736,-1.372 0.236,-0.441 0.452,-0.839 0.646,-1.205 0.194,-0.366 0.35,-0.652 0.458,-0.856 0.104,-0.193 0.252,-0.359 0.432,-0.485 0.142,-0.109 0.314,-0.171 0.492,-0.18 0.146,-0 0.283,0.07 0.356,0.2 0.09,0.206 0.09,0.437 0.02,0.649 -0.114,0.404 -0.283,0.791 -0.5,1.15 -0.359,0.607 -0.768,1.183 -1.222,1.722 -0.1,0.227 -0.224,0.53 -0.377,0.907 -0.146,0.377 -0.306,0.795 -0.482,1.253 -0.176,0.458 -0.35,0.94 -0.53,1.439 -0.18,0.499 -0.366,0.992 -0.54,1.475 -0.174,0.483 -0.332,0.923 -0.481,1.338 -0.149,0.415 -0.272,0.764 -0.363,1.046 0.417,-0.438 0.818,-0.873 1.212,-1.3 0.166,-0.187 0.34,-0.384 0.517,-0.587 0.177,-0.203 0.359,-0.408 0.529,-0.622 0.17,-0.214 0.34,-0.41 0.492,-0.618 0.152,-0.208 0.287,-0.386 0.407,-0.566 0.07,-0.153 0.138,-0.3 0.215,-0.441 0.166,-0.337 0.393,-0.64 0.669,-0.894 0.153,-0.151 0.342,-0.26 0.55,-0.315 0.155,-0.04 0.32,-0.02 0.462,0.05 0.148,0.08 0.265,0.214 0.333,0.37 0.1,0.199 0.154,0.414 0.169,0.635 0.03,0.375 0,0.752 -0.09,1.117 -0.09,0.379 -0.221,0.746 -0.4,1.091 -0.163,0.313 -0.376,0.596 -0.632,0.838 -0.205,0.21 -0.479,0.34 -0.771,0.367 -0.189,0.02 -0.376,-0.05 -0.513,-0.18 -0.06,0.237 -0.109,0.465 -0.144,0.686 -0.03,0.221 -0.06,0.414 -0.07,0.584 -0,0.137 0,0.274 0.03,0.407 0,0.09 0.06,0.164 0.143,0.2 0.153,0.03 0.312,-0 0.435,-0.1 0.218,-0.131 0.419,-0.287 0.6,-0.466 0.214,-0.2 0.448,-0.455 0.7,-0.743 0.252,-0.288 0.5,-0.618 0.754,-0.968 0.254,-0.35 0.509,-0.713 0.754,-1.1 0.245,-0.387 0.481,-0.771 0.7,-1.165 0.07,-0.149 0.171,-0.279 0.3,-0.38 0.1,-0.07 0.18,-0.08 0.23,-0.05 0.05,0.03 0.07,0.119 0.06,0.248 -0.03,0.174 -0.09,0.34 -0.189,0.485 -0.374,0.636 -0.761,1.254 -1.155,1.845 -0.357,0.547 -0.748,1.07 -1.171,1.568 -0.332,0.404 -0.714,0.764 -1.138,1.07 -0.269,0.207 -0.595,0.326 -0.934,0.34 -0.04,-0 -0.08,-0 -0.126,-0.01 z m 1.277,-4.984 c -0.131,0.176 -0.248,0.362 -0.35,0.557 -0.118,0.227 -0.221,0.46 -0.31,0.7 -0.1,0.252 -0.187,0.5 -0.261,0.751 0.138,0.132 0.349,0.149 0.506,0.04 0.208,-0.128 0.377,-0.311 0.488,-0.529 0.148,-0.274 0.253,-0.57 0.31,-0.876 0.06,-0.332 0.05,-0.672 -0.03,-1 -0.137,0.1 -0.256,0.219 -0.353,0.356 z m 15.7,-1.43 c 0,-2.523 1.069,-5.93 4.33,-5.93 2.18,0 3.949,1.5 3.949,5.365 0,3.9 -1.919,6.211 -4.272,6.211 -2.604,-0 -4.009,-2.788 -4.009,-5.647 z m 2.785,-0.02 c 0,3.691 0.7,5.1 1.279,5.1 0.547,0 1.488,-1.091 1.488,-5.5 0,-4.309 -0.87,-4.855 -1.318,-4.855 -1.037,0 -1.451,2.432 -1.451,5.254 z m -10.973,3.012 c -0.156,-1.338 0.978,-2.471 2.316,-2.315 0.235,0 0.47,0.03 0.7,0.08 -0.542,0.623 -0.82,1.433 -0.774,2.258 0,0.978 0.228,2.068 1.035,2.068 0.979,0 1.169,-1.562 1.169,-3.124 0,-1.749 -0.225,-2.822 -1.77,-2.822 -0.729,0.01 -1.447,0.181 -2.108,0.489 h -0.02 l 0.417,-5.288 v 0 c 1.204,0.396 2.459,0.612 3.726,0.642 0.6,0 1.073,-0.06 1.073,-0.472 -0.04,-0.298 -0.188,-0.572 -0.414,-0.771 l 0.169,-0.244 c 1.111,0.642 1.447,1.057 1.447,1.939 0,1.26 -0.68,1.731 -1.864,1.731 -1.391,-0.122 -2.677,-0.792 -3.572,-1.864 l -0.285,2.917 c 0.675,-0.28 1.399,-0.42 2.129,-0.414 2.184,0 3.65,1.168 3.65,3.895 0,3.013 -1.77,3.956 -3.857,3.956 -2.247,-0 -3.168,-1.06 -3.168,-2.66 z m -13.3,-4.251 c -0.08,0 -0.13,-0.06 -0.174,-0.163 -0.05,-0.116 -0.08,-0.238 -0.09,-0.363 -0.01,-0.151 -0.01,-0.304 0,-0.455 0.01,-0.146 0.05,-0.289 0.112,-0.422 0.05,-0.113 0.137,-0.207 0.244,-0.271 0.125,-0.06 0.267,-0.06 0.394,-0 0.245,0.09 0.374,0.225 0.391,0.411 0.02,0.199 -0.03,0.399 -0.125,0.574 -0.09,0.188 -0.222,0.358 -0.377,0.5 -0.09,0.107 -0.217,0.178 -0.356,0.2 z"
         transform="translate(15199.5,12479.023)"
         opacity="0.31"
         sodipodi:nodetypes="cccccccccccccccccccccccccccccccccccccccccccccccccccccccccssssscssscscccccccccccsssccccccccssscccssccccccccccccccccscsssccccccccccssssccsssccscssssscccccssscscccscccccccccssssccccccccccccscccccssscsccccccccccscccccccccccccscsccssccccccccssssccsssccccccccccscscccccsssccscccccccccccccccccccssccccsscccccccssccccsccccsccccsccccccccccccccc" />
      <path
         id="Path_303802"
         data-name="Path 303802"
         d="M-13523.048-11567.095a19.13,19.13,0,0,1-2.717-2.637,20.967,20.967,0,0,1-5.236-10.221h11.9q.227.464.477.89h.325a12,12,0,0,0,1.391,2.23,9.017,9.017,0,0,0,1.407,1.129,8.86,8.86,0,0,0,4.931,1.442,8.565,8.565,0,0,0,6.357-2.716c2.758-2.833,2.758-5.879,2.428-9.512a32.92,32.92,0,0,1-1.235-9.088,31.434,31.434,0,0,1,4.112-15.79,30.787,30.787,0,0,1,11.312-11.4,30.064,30.064,0,0,1,14.406-4.176l.009,0s1-.055,1.283-.055a29.484,29.484,0,0,1,15.7,4.31c.023.014.2.122.217.132a36.351,36.351,0,0,1,7.558,6.541q.426.454.816.906v.011h.011a30.7,30.7,0,0,1,6.034,10.818c.017.055.648,2.469.655,2.5a34.009,34.009,0,0,1,.747,7.229,35.034,35.034,0,0,1-.306,4.68,31.785,31.785,0,0,1-16.021,22.993,31.542,31.542,0,0,1-13.206,3.535,31.825,31.825,0,0,1-16.11-3.691,23.939,23.939,0,0,1-5.531-3.671c.027-.036.054-.073.081-.11a10.686,10.686,0,0,1-.88-.775,19.819,19.819,0,0,0,3.464-12.8q.387.615.82,1.2c0-.1-.012-.206-.019-.309a18.814,18.814,0,0,0,1.567,2.14,19.92,19.92,0,0,0,11.313,5.905c.363.055.448.064.744.095.425.048.855.085,1.29.105.184.011.493.021.662.023.146,0,.289,0,.436,0q.483,0,.957-.021c.432-.021.428-.023.655-.041.462-.033.921-.085,1.369-.152.535-.079.5-.076.429-.066a17.96,17.96,0,0,0,8.017-3.513c.244-.19.136-.1.359-.285a21.342,21.342,0,0,0,1.939-1.773l.03-.03v0l.021-.018v0a20.759,20.759,0,0,0,1.685-1.97c.251-.333.088-.1.4-.557a20.078,20.078,0,0,0,3.538-11.7c0-.255,0-.274-.007-.736a20.876,20.876,0,0,0-1.535-7.556c-.071-.167-.129-.31-.268-.611a19.4,19.4,0,0,0-2.041-3.471l-.312-.411q-.3-.385-.62-.762l-.012-.013c-.34-.356-.193-.207-.557-.566a21.226,21.226,0,0,0-1.637-1.447c-.024-.021-.459-.353-.486-.373a18.344,18.344,0,0,0-3.405-2.011c-.245-.112-.123-.064-.591-.255a19.19,19.19,0,0,0-7.342-1.385,19.378,19.378,0,0,0-8.392,1.793c-.021.01-.38.187-.4.2a19.2,19.2,0,0,0-5.1,3.78,19.3,19.3,0,0,0-2.917,3.813,7.1,7.1,0,0,0-.36.642,19.116,19.116,0,0,0-1.433,3.5c-.051.177-.1.354-.153.53-.007.03-.014.062-.021.088-.111.428-.214.859-.3,1.3-.034.176-.068.353-.095.526a23.145,23.145,0,0,0-.326,2.978h-.018c-.026.448-.037.9-.037,1.358a24.035,24.035,0,0,0,.561,5.312h-.071c.071.4.139.8.187,1.205.14.706.234,1.44.306,2.17a19.859,19.859,0,0,1,.14,2.313,20.171,20.171,0,0,1-5.937,14.752,19.479,19.479,0,0,1-14.371,6A20.1,20.1,0,0,1-13523.048-11567.095Zm32.265-28.777,0-.01v-.037l0-.01v-.055l0-.007v-.041l0-.007v-.04l0-.007v-.031l0-.027v-.03l0-.007v-.047l0-.007v-.034l0-.007v-.041l-.024.071v-1.083Zm.427-6.791c.018-.085.116-.662.119-.673l0-.026C-13490.278-11603.132-13490.315-11602.9-13490.356-11602.663Zm8.986-9.59-.007,0-.007,0-.007,0-.007,0-.007,0-.007,0-.007,0-.007,0-.007,0-.007,0,0,0-.006,0-.007,0-.007,0-.007,0-.007,0-.007,0-.007,0,0,0-.007,0-.007.007-.007,0-.006,0-.007,0,0,0-.007,0-.007,0-.007,0-.007,0-.007,0,0,0-.007.007-.007,0,0,0-.007,0-.006,0-.007,0-.007.007,0,0-.007,0,0,0-.007,0-.007.006-.007,0,0,0-.007,0-.007.007,0,0-.007,0-.007,0,0,.007,0,0,.007,0,.007,0,0,0,.007,0,.007,0,0,0,.007,0,.007,0,.007,0,0-.006.007,0,0,0,.007,0,.007,0,.006,0,.007,0,0,0,.007,0,.007,0,0,0,.007-.007.007,0,.007,0,.007,0,.007,0,0,0,.007-.007.006,0,.007,0,.007,0,.007,0,0,0,.007,0,.007-.007.007,0,.007,0,.007,0,.007,0,.006,0,0-.007.007,0,.007,0,.007,0,.007,0,.007,0,.007,0,.007,0,.007,0,.007,0,.007,0,0-.006Zm12.9,36.743.019,0-.072.012C-13468.534-11575.5-13468.5-11575.5-13468.467-11575.51Zm-57.036-15.329.146-.673-.947-.217,7.176-33.235h27.367q-.655.432-1.28.89h2.078a30.958,30.958,0,0,0-9.885,10.507h-9.044l-2.155,9.846q.456-.1.913-.16a12.707,12.707,0,0,1,1.867-.143,19.947,19.947,0,0,1,5.4.706l-.023.095q-.066.28-.127.557.482.107.952.238l-.024.095a33.77,33.77,0,0,0-.56,12.086,7.626,7.626,0,0,0-5.5-2.221,7.913,7.913,0,0,0-3.644.92,13.247,13.247,0,0,0-3.528,2.813Z"
         transform="translate(15199.5 12479.023)"
         opacity="0.19" />
    </g>
    <g
       id="Layer_x0020_1"
       transform="translate(1666.51 849.004)">
      <g
         id="_2109145826176"
         transform="translate(-0.01 0.02)">
        <path
           id="Path_302561"
           data-name="Path 302561"
           d="M9558.664,2612.349a2.092,2.092,0,0,1,.644-.8,1.334,1.334,0,0,1,.641-.27.414.414,0,0,1,.4.134c.079.107.047.245-.093.417a5.091,5.091,0,0,0-.539.828c-.174.336-.339.687-.5,1.061s-.293.746-.41,1.123a8.639,8.639,0,0,0-.26,1.01,2.794,2.794,0,0,0,.688-.565,12.263,12.263,0,0,0,.817-.956c.281-.364.56-.753.842-1.161s.53-.794.756-1.165a1.248,1.248,0,0,1,.329-.375c.106-.063.179-.076.232-.041s.068.116.052.242a1.355,1.355,0,0,1-.2.482c-.239.4-.513.813-.806,1.24s-.6.837-.9,1.23a13.561,13.561,0,0,1-.917,1.07,5.064,5.064,0,0,1-.849.743.9.9,0,0,1-.361.147.545.545,0,0,1-.338-.047.485.485,0,0,1-.215-.273,1.054,1.054,0,0,1-.011-.533c.02-.141.059-.345.1-.605s.108-.558.186-.884a9.7,9.7,0,0,1,.286-1.023,7.794,7.794,0,0,1,.42-1.029Zm2.376-4.577c.246.088.375.223.391.411a1.013,1.013,0,0,1-.124.571,1.75,1.75,0,0,1-.379.5.545.545,0,0,1-.377.2c-.074-.006-.129-.062-.172-.163a1.25,1.25,0,0,1-.09-.364,2.527,2.527,0,0,1,0-.455,1.258,1.258,0,0,1,.112-.424.614.614,0,0,1,.246-.27A.473.473,0,0,1,9561.04,2607.772Zm4.672,4.542c-.241.352-.5.707-.765,1.064s-.535.7-.806,1.023-.539.63-.806.912-.521.534-.763.753a2.486,2.486,0,0,1-.612.446.581.581,0,0,1-.408.066.294.294,0,0,1-.176-.264,1.3,1.3,0,0,1,.063-.53c.085-.314.2-.706.343-1.176s.286-.954.442-1.452.3-.972.444-1.425.271-.812.382-1.088c-.111.182-.242.411-.391.69s-.33.593-.523.944a1.579,1.579,0,0,1-.354.46c-.127.1-.224.145-.294.129s-.1-.094-.088-.235a1.743,1.743,0,0,1,.251-.624c.11-.188.26-.458.453-.812s.406-.747.642-1.18.48-.891.735-1.365.5-.931.735-1.37.452-.841.646-1.208.351-.649.459-.853a1.4,1.4,0,0,1,.431-.487.884.884,0,0,1,.492-.182.4.4,0,0,1,.356.2.909.909,0,0,1,.021.649,4.545,4.545,0,0,1-.5,1.151,12.665,12.665,0,0,1-1.222,1.722c-.1.229-.226.53-.377.907s-.309.793-.482,1.254-.35.939-.532,1.44-.366.991-.538,1.471-.334.925-.482,1.34-.271.765-.363,1.047c.417-.439.816-.875,1.212-1.3l.517-.59c.183-.2.359-.408.53-.618s.339-.414.492-.621.3-.408.427-.6a1.083,1.083,0,0,1,.338-.363c.111-.062.192-.075.242-.041s.065.116.047.241A1.212,1.212,0,0,1,9565.712,2612.314Zm-.472,4.235a.541.541,0,0,0,.436-.1,3.313,3.313,0,0,0,.6-.464c.214-.2.449-.455.7-.747s.5-.618.754-.966.508-.715.753-1.1.483-.772.7-1.164a1.044,1.044,0,0,1,.3-.383c.1-.066.179-.081.229-.047s.072.119.065.248a1.2,1.2,0,0,1-.189.488q-.562.951-1.156,1.842a15.387,15.387,0,0,1-1.169,1.569,6.061,6.061,0,0,1-1.14,1.069,1.546,1.546,0,0,1-1.063.333.59.59,0,0,1-.489-.437,2.969,2.969,0,0,1-.143-1.012,8.463,8.463,0,0,1,.143-1.346,11.365,11.365,0,0,1,.372-1.443,8.632,8.632,0,0,1,.547-1.292,3.033,3.033,0,0,1,.668-.894,1.252,1.252,0,0,1,.551-.317.628.628,0,0,1,.462.053.789.789,0,0,1,.334.37,1.765,1.765,0,0,1,.17.634,3.5,3.5,0,0,1-.093,1.117,4.454,4.454,0,0,1-.4,1.089,3.08,3.08,0,0,1-.632.84,1.219,1.219,0,0,1-.771.366.642.642,0,0,1-.511-.178c-.061.235-.11.464-.145.684s-.056.414-.067.583a1.563,1.563,0,0,0,.032.41A.242.242,0,0,0,9565.24,2616.549Zm1.461-4.764a1.562,1.562,0,0,0-.356.357,4.246,4.246,0,0,0-.351.559,6.937,6.937,0,0,0-.309.7c-.1.251-.187.5-.262.753a.4.4,0,0,0,.508.04,1.359,1.359,0,0,0,.487-.531,2.9,2.9,0,0,0,.309-.875A2.4,2.4,0,0,0,9566.7,2611.784Zm30.146-.47c-.14.22-.289.462-.442.728s-.3.543-.446.825-.278.562-.4.84-.223.54-.307.782a4.827,4.827,0,0,0-.171.636.653.653,0,0,0,.026.4l2.871-4.021a1.948,1.948,0,0,1,.539-.718,1.112,1.112,0,0,1,.571-.263.36.36,0,0,1,.37.188.731.731,0,0,1-.061.627c-.055.119-.131.3-.237.537s-.217.511-.348.812-.277.627-.431.976-.3.7-.449,1.042q-.545,1.208-1.172,2.635c.42-.685.824-1.352,1.217-2.011.162-.282.339-.574.52-.873s.367-.589.543-.875.348-.565.511-.834.315-.518.449-.737a1.2,1.2,0,0,1,.322-.376c.095-.063.172-.075.23-.041s.074.116.059.241a1.35,1.35,0,0,1-.2.484c-.5.853-.961,1.621-1.383,2.3s-.809,1.308-1.158,1.889-.677,1.123-.975,1.627-.585,1.01-.862,1.512-.535,1.016-.79,1.547-.513,1.1-.771,1.725a2.973,2.973,0,0,1-.332.615c-.1.137-.187.213-.258.225s-.121-.037-.145-.141a1.145,1.145,0,0,1,.025-.489q.026-.132.226-.706c.136-.385.3-.863.508-1.437s.431-1.2.68-1.9.5-1.4.765-2.1.51-1.384.756-2.039.451-1.23.63-1.725c-.108.173-.228.358-.363.555s-.267.392-.4.592-.277.4-.415.594-.277.376-.415.542c-.226.282-.413.506-.553.672s-.267.214-.375.154a.766.766,0,0,1-.3-.508,3.547,3.547,0,0,1-.082-.988,7.364,7.364,0,0,1,.174-1.311,9.542,9.542,0,0,1,.465-1.478,3.212,3.212,0,0,1,.447-.793,1.878,1.878,0,0,1,.485-.433.938.938,0,0,1,.44-.141.514.514,0,0,1,.331.082.368.368,0,0,1,.163.241A.439.439,0,0,1,9596.847,2611.314Zm2.94,1.035a2.117,2.117,0,0,1,.642-.8,1.34,1.34,0,0,1,.643-.27.421.421,0,0,1,.4.134c.076.107.047.245-.1.417a4.892,4.892,0,0,0-.534.828c-.179.335-.341.687-.5,1.06s-.3.746-.411,1.123a8.489,8.489,0,0,0-.262,1.01,2.688,2.688,0,0,0,.687-.565,11.355,11.355,0,0,0,.819-.956c.284-.364.56-.753.842-1.161s.532-.794.761-1.164a1.18,1.18,0,0,1,.327-.376c.105-.063.178-.076.228-.041s.07.116.055.242a1.374,1.374,0,0,1-.2.482c-.239.4-.513.813-.806,1.24s-.594.837-.9,1.229-.613.75-.918,1.07a5.031,5.031,0,0,1-.849.743.938.938,0,0,1-.363.148.55.55,0,0,1-.337-.047.468.468,0,0,1-.214-.273,1.055,1.055,0,0,1-.016-.533c.024-.141.061-.345.108-.6s.105-.559.18-.885a10.548,10.548,0,0,1,.289-1.023A7.623,7.623,0,0,1,9599.787,2612.349Zm7.047-.034q-.366.526-.766,1.063t-.8,1.023c-.273.326-.54.631-.811.913s-.521.533-.761.753a2.449,2.449,0,0,1-.611.445.577.577,0,0,1-.409.066.294.294,0,0,1-.176-.263,1.357,1.357,0,0,1,.065-.531c.088-.313.2-.705.341-1.176s.287-.954.442-1.453.3-.972.444-1.424.273-.813.384-1.089c-.11.182-.243.411-.391.69s-.331.593-.525.944a1.54,1.54,0,0,1-.354.461c-.124.1-.224.145-.291.129s-.1-.094-.093-.235a1.753,1.753,0,0,1,.258-.624c.105-.188.259-.458.449-.812s.408-.746.643-1.18.481-.891.733-1.365.5-.931.738-1.37l.646-1.208c.2-.364.348-.649.458-.853a1.4,1.4,0,0,1,.429-.487.888.888,0,0,1,.494-.182.4.4,0,0,1,.354.2.889.889,0,0,1,.021.649,4.517,4.517,0,0,1-.5,1.151,12.941,12.941,0,0,1-1.226,1.722c-.1.229-.224.53-.377.907s-.31.793-.48,1.254-.353.939-.538,1.44-.36.991-.534,1.471-.332.925-.481,1.34-.271.766-.365,1.047c.418-.439.819-.875,1.21-1.3.169-.188.341-.385.519-.59s.359-.407.53-.618.339-.414.5-.621.3-.407.422-.6a1.1,1.1,0,0,1,.339-.364c.11-.062.191-.075.241-.041s.065.116.048.242a1.233,1.233,0,0,1-.217.47Zm-32.021-7.268-.415,5.289h.02a5.236,5.236,0,0,1,2.108-.49c1.544,0,1.77,1.073,1.77,2.823,0,1.563-.189,3.125-1.169,3.125-.809,0-1.034-1.091-1.034-2.07a3.176,3.176,0,0,1,.772-2.258,3.452,3.452,0,0,0-.7-.075,2.087,2.087,0,0,0-2.315,2.315c0,1.6.921,2.654,3.161,2.654,2.088,0,3.857-.941,3.857-3.952,0-2.729-1.467-3.9-3.651-3.9a5.458,5.458,0,0,0-2.129.414l.285-2.917a5.251,5.251,0,0,0,3.574,1.863c1.186,0,1.864-.47,1.864-1.732,0-.885-.338-1.3-1.448-1.938l-.17.244a1.256,1.256,0,0,1,.416.772c0,.414-.475.47-1.075.47a13.007,13.007,0,0,1-3.726-.64Zm11.556-.264c-3.257,0-4.329,3.406-4.329,5.929,0,2.861,1.41,5.646,4.008,5.646,2.353,0,4.272-2.314,4.272-6.21C9590.319,2606.289,9588.55,2604.783,9586.368,2604.783Zm1.223,5.514c0,4.4-.94,5.5-1.487,5.5-.582,0-1.279-1.412-1.279-5.1,0-2.823.415-5.25,1.449-5.25C9586.725,2605.442,9587.591,2605.988,9587.591,2610.3Z"
           transform="translate(-9435.944 -2576.628)"
           fill="#fcf5ab" />
        <g
           id="Group_312751"
           data-name="Group 312751"
           transform="translate(114.115 48.734)">
          <path
             id="Path_302562"
             data-name="Path 302562"
             d="M10594.755,4129.779l1.716,4.445,4.756-.272-3.681,3.017,1.72,4.422-3.99-2.571-3.68,3.006,1.22-4.589-4.013-2.578,4.767-.278Z"
             transform="translate(-10565.144 -4127.152)"
             fill="#b68a34"
             fill-rule="evenodd" />
          <path
             id="Path_302563"
             data-name="Path 302563"
             d="M9655.3,4112.36l1.3,3.356,3.59-.212-2.784,2.258,1.3,3.342-3.017-1.942-2.765,2.266.909-3.461-3.008-1.911,3.566-.195Z"
             transform="translate(-9641.787 -4110.004)"
             fill="#e7d17c"
             fill-rule="evenodd" />
          <path
             id="Path_302564"
             data-name="Path 302564"
             d="M9074.553,3961.291l.871,2.25,2.41-.145-1.879,1.534.885,2.238-2.025-1.305-1.867,1.538.617-2.344-2.035-1.288,2.408-.139Z"
             transform="translate(-9071.529 -3961.291)"
             fill="#b68a34"
             fill-rule="evenodd" />
          <path
             id="Path_302565"
             data-name="Path 302565"
             d="M11705.891,4152.58l-.905,3.478-3.584.19,3.008,1.933-.924,3.455,2.784-2.259,3.022,1.944-1.306-3.345,2.772-2.256-3.583.206Z"
             transform="translate(-11660.392 -4149.597)"
             fill="#e7d17c"
             fill-rule="evenodd" />
          <path
             id="Path_302566"
             data-name="Path 302566"
             d="M12711.039,4051.43l-.634,2.35-2.405.117,2.04,1.311-.617,2.355,1.856-1.55,2.027,1.323-.9-2.283,1.885-1.5-2.4.144Z"
             transform="translate(-12651.293 -4050.025)"
             fill="#b68a34"
             fill-rule="evenodd" />
        </g>
        <path
           id="Path_302567"
           data-name="Path 302567"
           d="M126.814,86.6a19.377,19.377,0,0,0-8.392,1.793l-.406.2a19.159,19.159,0,0,0-5.1,3.779A19.4,19.4,0,0,0,110,96.186c-.176.3-.025.015-.358.642a19.159,19.159,0,0,0-1.434,3.5c-.053.177-.1.354-.151.532l-.024.088q-.169.638-.3,1.3c-.035.174-.067.35-.1.525a24.034,24.034,0,0,0-.323,2.979h-.02c-.025.446-.037.9-.037,1.358a24.015,24.015,0,0,0,.561,5.311h-.07c.07.4.14.8.187,1.2.14.708.234,1.44.3,2.171a19.516,19.516,0,0,1,.14,2.314,20.175,20.175,0,0,1-5.936,14.752,19.484,19.484,0,0,1-14.372,6,20.1,20.1,0,0,1-13.04-4.39A20.347,20.347,0,0,1,67.88,122.5h11.9a10.256,10.256,0,0,0,3.6,4.249,8.864,8.864,0,0,0,4.931,1.44,8.558,8.558,0,0,0,6.357-2.715c2.758-2.832,2.758-5.877,2.43-9.512a32.949,32.949,0,0,1-1.238-9.087,31.44,31.44,0,0,1,4.113-15.791,30.807,30.807,0,0,1,11.31-11.4A30.125,30.125,0,0,1,125.7,75.506s1-.055,1.285-.055a29.482,29.482,0,0,1,15.7,4.309l.215.134a36.17,36.17,0,0,1,7.574,6.557v.011h.01a30.642,30.642,0,0,1,6.035,10.819c.016.052.648,2.469.655,2.5a34.013,34.013,0,0,1,.748,7.227,35.167,35.167,0,0,1-.3,4.68,30.937,30.937,0,0,1-45.341,22.837,24.008,24.008,0,0,1-5.529-3.669,19.8,19.8,0,0,0,3.466-12.8,19.873,19.873,0,0,0,13.682,8.933c.361.054.449.064.743.1q.639.071,1.293.1c.182.009.49.019.661.023q.216,0,.434,0,.483,0,.957-.021c.433-.019.43-.023.656-.04q.693-.053,1.367-.152c.815-.12.319-.049.356-.056a17.919,17.919,0,0,0,8.089-3.526c.246-.189.136-.1.362-.284a21.3,21.3,0,0,0,1.939-1.774l.029-.031h0l.019-.019h0v0a21.028,21.028,0,0,0,1.684-1.969c.252-.335.088-.1.406-.56a20.088,20.088,0,0,0,3.537-11.7c0-.253,0-.277-.007-.736a20.877,20.877,0,0,0-1.535-7.555c-.07-.168-.129-.311-.267-.614a19.441,19.441,0,0,0-2.043-3.469l-.311-.411a21.589,21.589,0,0,0-1.433-1.662c-.341-.358-.193-.208-.558-.567a20.942,20.942,0,0,0-1.637-1.448l-.485-.373a18.359,18.359,0,0,0-3.4-2.012c-.246-.111-.122-.063-.591-.254a19.2,19.2,0,0,0-7.341-1.384Zm-19.519,19.15v-.1h0v-.086h0v-.086h0v-.032l0-.024h0v-.086h0v-.086l-.023.071h0V105.3h0v-.018h0v-.018h0v-.018h0v-.018h0v-.035h0v-.017h0v-.017h0v-.017h0v-.035h0v-.017h0v-.017h0v-.034h0v-.017h0V105h0v-.017h0v-.051h0v-.051h0v-.051h0v-.017h0v-.051h0v-.017h0V104.7h0v-.017h0v-.017h0v-.117h0v-.017h0v-.05h0v-.017h0v-.033h0v-.1h0v-.1m.023,1.015Zm.169-4.648.011-.1Zm.028-.251.014-.116Zm.03-.249c.005-.041.01-.082.015-.123Zm.033-.262.015-.113Zm.034-.252.02-.139Zm.037-.255q.01-.071.021-.142Q107.669,99.259,107.659,99.33Zm.037-.246q.012-.077.024-.153Zm.029-.185c.015-.086.114-.662.116-.671l.006-.03Q107.783,98.547,107.726,98.9ZM114.09,84.48l.206-.257Zm.806-.974.065-.076Zm.158-.182.081-.092Zm.155-.175.1-.114Zm.158-.176.127-.139Zm.16-.175.129-.14Zm.154-.166.148-.158.522-.538Q116.011,82.278,115.682,82.631Zm1.107-1.125.077-.074Zm.175-.167.086-.082Zm.176-.166.1-.1Zm.176-.163.128-.117Zm.18-.164.132-.118Zm.185-.166.134-.118Zm.187-.165.157-.136Zm.174-.151.328-.279Q118.2,80.224,118.041,80.365Zm.424-.358.1-.08Zm.2-.161.091-.074Zm.2-.161.086-.069Zm-10.7,17.041-.012.051M79.752,77.489h27.365a30.9,30.9,0,0,0-9.885,10.5H88.188l-2.407,11a14.605,14.605,0,0,1,1.963-.425,12.957,12.957,0,0,1,1.87-.141,19.909,19.909,0,0,1,5.4.708l-.023.094a33.787,33.787,0,0,0-.561,12.085,7.619,7.619,0,0,0-5.492-2.218,7.88,7.88,0,0,0-3.646.921,13.258,13.258,0,0,0-3.528,2.809l-9.184-2.1,7.174-33.233ZM111.23,94.318l0,.006Zm0,.006Zm0,0,0,.006Zm0,.006Zm0,0,0,.006Zm0,.006Zm0,0,0,.006Zm0,.006Zm0,0,0,.006Zm0,.006Zm0,0,0,.006Zm0,.006Zm0,0,0,.006Zm0,.006Zm0,0,0,.006Zm0,.006Zm0,0,0,.006Zm0,.006Zm0,0,0,.006Zm0,.006Zm0,0,0,.006Zm0,.006Zm0,0,0,.006Zm0,.006Zm0,0,0,.006Zm0,.006Zm0,0,0,.006Zm0,.006Zm0,0,0,.006Zm0,.006Zm0,0,0,.006Zm0,.006Zm0,0,0,.006Zm0,.006Zm0,0,0,.006Zm0,.006Zm0,0,0,.006Zm0,.006Zm0,0,0,.006Zm0,.006Zm0,0,0,.006Zm0,.006Zm0,0,0,.006Zm0,.006Zm0,0,0,.006Zm0,.006Zm0,0,0,.006Zm0,.006Zm0,0,0,.006Zm0,.006,0,.006Zm0,.006Zm0,0,0,.006Zm0,.006Zm0,0,0,.006Zm0,.006Zm0,0,0,.006Zm0,.006,0,.006Zm0,.006,0,.006Zm0,.006Zm0,0,0,.006Zm0,.006Zm0,0,0,.006Zm0,.006,0,.006Zm0,.006,0,.006Zm0,.006Zm0,0,0,.006Zm0,.006Zm0,0,0,.006Zm0,.006,0,.006Zm0,.006Zm0,0,0,.006Zm0,.006,0,.006Zm0,.006Zm0,0,0,.006Zm0,.006,0,.006Zm0,.006,0,.006Zm0,.006,0,.006Zm0,.006,0,.006Zm0,.006,0,.006Zm0,.006,0,.006Zm0,.006Zm0,0,0,.006Zm0,.006,0,.006Zm0,.006,0,.006Zm0,.006,0,.006Zm0,.006Zm0,0,0,.006Zm0,.006,0,.006Zm0,.006,0,.006Zm0,.006,0,.006Zm0,.006,0,.006Zm0,.006,0,.006Zm0,.006,0,.006Zm0,.006,0,.006Zm0,.006,0,.006Zm0,.006,0,.006Zm0,.006,0,.007Zm0,.007,0,.007Zm0,.007,0,.007Zm5.02-4.9-.027.018Zm-.027.018Zm0,0-.027.018Zm-.027.018Zm0,0-.027.018Zm-.027.018Zm0,0-.027.018Zm-.027.018Zm0,0-.027.018Zm-.027.018Zm0,0-.027.018Zm-.027.018Zm0,0-.027.018Zm-.027.018Zm0,0-.027.018Zm-.027.018Zm0,0-.027.018Zm-.027.018Zm0,0-.027.019Zm-.027.019Zm0,0-.027.019Zm-.027.019Zm0,0-.027.019Zm-.027.019Zm0,0-.027.019Zm-.027.019Zm0,0-.027.019Zm-.027.019Zm0,0-.027.019Zm-.027.019Zm0,0-.027.019Zm-.027.019Zm0,0-.027.019Zm-.027.019Zm0,0-.027.019Zm-.027.019Zm0,0-.027.019Zm-.027.019Zm0,0-.027.019Zm-.027.019-.027.019Zm-.027.019-.027.02Zm-.027.02Zm0,0-.027.02Zm-.027.02-.027.02Zm-.027.02-.026.02Zm-.026.02Zm0,0-.027.02Zm-.027.02Zm0,0-.027.02Zm-.027.02Zm0,0-.026.02Zm-.026.02Zm0,0-.026.02Zm-.026.02-.026.02Zm-.026.02Zm0,0-.026.02Zm-.026.02Zm0,0-.026.02Zm-.026.02-.026.02Zm-.026.02Zm0,0-.026.02Zm-.026.02Zm0,0-.026.02Zm-.026.02Zm0,0-.026.02Zm-.026.02Zm0,0-.026.02Zm-.026.02Zm0,0-.026.02Zm-.026.02-.026.02Zm-.026.02-.026.021Zm-.026.021-.026.021Zm-.026.021-.026.021Zm-.026.021-.026.021Zm-.026.021Zm0,0-.026.021Zm-.026.021Zm0,0-.026.021Zm-.026.021-.026.021Zm-.026.021-.026.021Zm-.026.021Zm0,0-.026.021Zm-.026.021Zm0,0-.026.021Zm-.026.021-.026.021Zm-.026.021-.026.021Zm-.026.021Zm0,0-.026.021Zm-.026.021-.026.021Zm-.026.021-.026.021Zm-.026.021-.026.021Zm-.026.021-.025.021Zm-.025.021Zm0,0-.025.021Zm-.025.021-.025.021Zm-.025.021-.025.021Zm-.025.021Zm0,0-.025.021Zm-.025.021Zm0,0-.025.021Zm-.025.021Zm0,0-.025.021Zm-.025.021Zm0,0-.025.021Zm-.025.021Zm0,0-.025.021Zm-.025.021Zm3.3-2.266-.012.007Zm-.012.007-.012.007Zm-.012.007-.012.007Zm-.012.007Zm0,0-.012.007Zm-.012.007-.012.007Zm-.012.007-.012.007Zm-.012.007-.012.007Zm-.012.007-.012.007Zm-.012.007-.012.007Zm-.012.007-.012.007Zm-.012.007-.012.007Zm-.012.007-.012.007Zm-.012.007Zm0,0-.012.007Zm-.012.007-.012.007Zm-.012.007-.012.007Zm-.012.007Zm0,0-.012.007Zm-.012.007-.012.007Zm-.012.007Zm0,0-.012.007Zm-.012.007-.012.007Zm-.012.007-.012.007Zm-.012.007Zm0,0-.012.007Zm-.012.007-.012.007Zm-.012.007-.013.007Zm-.013.007-.013.007Zm-.013.007-.013.007Zm-.013.007Zm0,0-.013.007Zm-.013.007Zm0,0-.013.007Zm-.013.007Zm0,0-.013.007Zm-.013.007Zm0,0-.013.007Zm-.013.007Zm0,0-.013.007Zm-.013.007Zm0,0-.013.007Zm-.013.007Zm0,0-.013.007Zm-.013.007-.013.007Zm-.013.007-.013.008Zm-.013.008-.013.008Zm-.013.008-.013.008Zm-.013.008Zm0,0-.013.008Zm-.013.008Zm0,0-.013.008Zm-.013.008-.013.008Zm-.013.008-.013.008Zm-.013.008-.013.008Zm-.013.008Zm0,0-.012.008Zm-.012.008Zm0,0-.012.008Zm-.012.008-.012.008Zm-.012.008-.013.008Zm-.013.008Zm0,0-.012.008Zm-.012.008Zm0,0-.012.008Zm-.012.008-.012.008Zm-.012.008-.012.008Zm-.012.008-.012.008Zm-.012.008Zm0,0-.012.008Zm-.012.008-.012.008Zm-.012.008Zm0,0-.012.008Zm-.012.008-.012.008Zm-.012.008-.012.008Zm-.012.008Zm0,0-.012.008Zm-.012.008-.012.008Zm-.012.008Zm0,0-.012.008Zm-.012.008Zm0,0-.012.008Zm-.012.008Zm0,0-.012.008Zm-.012.008Zm0,0-.012.008Zm-.012.008Zm0,0-.012.008Zm-.012.008Zm0,0-.012.008Zm-.012.008Zm0,0-.012.008Zm-.012.008h0l-.007,0h0l-.007,0h0l-.007,0h0l-.007,0h0l-.007,0h0l-.007,0h0l-.007,0-.007,0h0l-.007,0h0l-.007,0h0l-.007,0-.007,0h0l-.006,0h0l-.006,0-.006,0h0l-.006,0-.006,0h0l-.006,0h0l-.006,0-.006,0h0l-.006,0-.006,0h0l-.006,0h0l-.006,0-.006,0h0l-.006,0-.006,0h0l-.006,0-.006,0-.006,0-.006,0-.006,0-.006,0-.006,0-.006,0-.006,0-.006,0-.006,0-.006,0-.006,0-.006,0-.006,0-.006,0-.006,0-.006,0-.006,0-.006,0-.006,0-.006,0-.006,0-.006,0-.006,0-.006,0-.006,0-.006,0-.006,0-.006,0-.006,0-.006,0-.006,0-.006,0-.006,0-.006,0-.006,0,.006,0,.006,0,.006,0,.006,0,.006,0,.006,0,.006,0,.006,0,.006,0,.006,0,.006,0,.006,0,.006,0,.006,0,.006,0,.006,0,.006,0,.006,0,.006,0,.006,0,.006,0,.006,0,.006,0,.006,0,.006,0,.006,0,.006,0,.006,0h0l.006,0,.006,0,.006,0,.006,0h0l.006,0,.006,0,.006,0,.006,0,.006,0,.006,0h0l.006,0h0l.006,0,.006,0,.006,0,.006,0,.006,0,.006,0,.006,0,.006,0,.006,0,.006,0h0l.006,0,.006,0h0l.006,0h0l.007,0,.007,0h0l.007,0h0l.007,0h0l.007,0h0l.007,0h0l.007,0h0l.007,0,.007,0h0l.007,0h0l.007,0h0l.007,0h0Z"
           transform="translate(-67.081 -74.562)"
           fill="url(#linear-gradient)" />
        <path
           id="Path_302568"
           data-name="Path 302568"
           d="M3319.108,11.172a19.377,19.377,0,0,0-8.392,1.793l-.406.2a19.161,19.161,0,0,0-5.095,3.779,19.394,19.394,0,0,0-2.919,3.813c-.176.3-.025.015-.358.642a19.156,19.156,0,0,0-1.433,3.5c-.053.177-.1.354-.152.532l-.023.088q-.169.638-.3,1.3c-.034.174-.067.35-.1.525a24.031,24.031,0,0,0-.323,2.979h-.02q.014-.254.033-.507l-.024.071V28.8a33.338,33.338,0,0,1,.42-5.324c0-.032.115-.671.117-.681q.135-.73.3-1.45h.011v-.02h0V21.3a31.16,31.16,0,0,1,3.262-8.288,31.5,31.5,0,0,1,2.643-3.925l.244-.3q.731-.9,1.526-1.739l.531-.546q.8-.806,1.668-1.552c.05-.044.312-.266.349-.3A31.763,31.763,0,0,1,3315,1.61q.713-.412,1.441-.788c.114-.059.23-.118.345-.175q.6-.3,1.2-.571s1-.055,1.285-.055a29.483,29.483,0,0,1,15.7,4.309l.215.134a36.17,36.17,0,0,1,7.573,6.557v.011h.01a30.642,30.642,0,0,1,6.035,10.819c.016.052.647,2.469.655,2.5a34.013,34.013,0,0,1,.748,7.227,35.1,35.1,0,0,1-.305,4.68,30.618,30.618,0,0,1-29.228,26.529,31.85,31.85,0,0,1-16.113-3.692,24,24,0,0,1-5.529-3.669,19.8,19.8,0,0,0,3.465-12.8,19.873,19.873,0,0,0,13.682,8.933c.362.054.449.064.743.1q.639.071,1.292.1c.182.009.49.019.661.023.145,0,.289,0,.434,0q.483,0,.957-.021c.433-.019.43-.023.657-.04q.693-.053,1.367-.152c.815-.12.319-.049.356-.056a17.919,17.919,0,0,0,8.088-3.526c.246-.189.136-.1.362-.284a21.318,21.318,0,0,0,1.939-1.774l.03-.031h0l.019-.019h0v0a21.057,21.057,0,0,0,1.683-1.969c.252-.335.088-.1.406-.56a20.09,20.09,0,0,0,3.537-11.7c0-.253,0-.277-.007-.736a20.883,20.883,0,0,0-1.535-7.555c-.07-.168-.129-.311-.267-.614a19.43,19.43,0,0,0-2.043-3.469l-.311-.411a21.615,21.615,0,0,0-1.433-1.662c-.342-.358-.193-.208-.559-.567a20.955,20.955,0,0,0-1.637-1.448l-.485-.373a18.349,18.349,0,0,0-3.4-2.012c-.246-.111-.122-.063-.591-.254a19.2,19.2,0,0,0-7.341-1.384Zm-15.583,7.715c-.093.118-.187.236-.28.377C3303.338,19.123,3303.431,19,3303.524,18.887Zm4.744-4.532a17.6,17.6,0,0,0-1.683,1.275A17.6,17.6,0,0,1,3308.269,14.355Zm1.612-.991c-.257.141-.538.307-.795.472a2.2,2.2,0,0,0-.4.236c.117-.071.257-.165.4-.236C3309.344,13.671,3309.624,13.505,3309.881,13.364Z"
           transform="translate(-3260.175 -0.02)"
           fill="url(#linear-gradient-2)" />
        <path
           id="Path_302569"
           data-name="Path 302569"
           d="M39.438,34.461c-.047.614-.07,1.227-.07,1.865a24.015,24.015,0,0,0,.561,5.311h-.07c.07.4.14.8.187,1.2.14.708.234,1.44.3,2.171a19.519,19.519,0,0,1,.14,2.314,20.175,20.175,0,0,1-5.936,14.752,19.484,19.484,0,0,1-14.372,6,20.1,20.1,0,0,1-13.04-4.39A20.347,20.347,0,0,1-.01,51.715h11.9a10.256,10.256,0,0,0,3.6,4.249,8.864,8.864,0,0,0,4.931,1.44,8.558,8.558,0,0,0,6.357-2.715c2.758-2.832,2.758-5.877,2.43-9.512a32.949,32.949,0,0,1-1.238-9.087A31.44,31.44,0,0,1,32.076,20.3,30.807,30.807,0,0,1,43.387,8.9,30.125,30.125,0,0,1,57.805,4.721a32.66,32.66,0,0,0-2.991,1.534,30.571,30.571,0,0,0-11.287,11.4,31.444,31.444,0,0,0-4.113,15.791v1.086l.023-.071Zm3.9-10.928c-.093.118-.187.236-.28.377C43.153,23.768,43.247,23.65,43.34,23.532ZM48.084,19A17.61,17.61,0,0,0,46.4,20.275,17.575,17.575,0,0,1,48.084,19ZM11.862,6.7H39.227a30.9,30.9,0,0,0-9.885,10.5H20.3l-2.407,11a14.6,14.6,0,0,1,1.963-.425,12.957,12.957,0,0,1,1.87-.141,19.91,19.91,0,0,1,5.4.708l-.023.094a33.787,33.787,0,0,0-.561,12.085,7.619,7.619,0,0,0-5.492-2.218,7.88,7.88,0,0,0-3.646.921,13.258,13.258,0,0,0-3.528,2.809l-9.184-2.1L11.862,6.7ZM49.7,18.009c-.257.141-.538.307-.795.472a2.223,2.223,0,0,0-.4.236c.117-.071.257-.165.4-.236C49.159,18.316,49.44,18.151,49.7,18.009Z"
           transform="translate(0.01 -4.665)"
           fill="url(#linear-gradient-3)" />
      </g>
    </g>
    <g
       id="Group_312761"
       data-name="Group 312761"
       transform="translate(1363.523 424.759)">
      <path
         id="Path_303811"
         data-name="Path 303811"
         d="M361.834,447.61a9.069,9.069,0,0,1,7.558,3.247,6.979,6.979,0,0,1,.862,1.287c.061.129.118.206.191.359.222.473.293.731.471,1.155a8.327,8.327,0,0,1,.407,1.737,9.013,9.013,0,0,1-.157,2.513c-.036.143-.07.282-.1.421a8.092,8.092,0,0,1-.953,2.3,8.394,8.394,0,0,1-.9,1.249,9.89,9.89,0,0,1-2.07,1.739c-.133.073-.214.11-.335.183a9.02,9.02,0,0,1-2.375.878c-.318.039-.618.124-.922.141a8.488,8.488,0,0,1-3.7-.621,9.767,9.767,0,0,1-4.681-3.965A8.512,8.512,0,0,1,354,457.061a9.154,9.154,0,0,1,.5-3.793,8.091,8.091,0,0,1,3.247-4.346,8.341,8.341,0,0,1,4.093-1.312Zm-12.3,8.686v2.817c.057.073.067.068.087.286a15.977,15.977,0,0,0,.4,1.964,11.82,11.82,0,0,0,.794,1.94,11.343,11.343,0,0,0,6.747,5.457,16.845,16.845,0,0,0,2.775.619c.319.065.453-.019.625.12l2.434-.015c.05-.031,1.193-.163,1.358-.192a6.7,6.7,0,0,0,.705-.127l1.781-.586c.377-.145.7-.332,1.083-.5a13.74,13.74,0,0,0,1.932-1.247,20.019,20.019,0,0,0,1.637-1.515.435.435,0,0,1,.128-.2c.013-.016.066-.081.067-.081.061-.06.028-.031.1-.072.063-.107.207-.238.3-.369.326-.442.578-.772.871-1.239a13.8,13.8,0,0,0,.967-1.809,12.493,12.493,0,0,0,.72-2.09,17.731,17.731,0,0,0,.348-1.751c.048-.264,0-.434.112-.584l0-2.374a.769.769,0,0,1-.082-.383c-.015-.183-.041-.192-.064-.37a12.072,12.072,0,0,0-1.634-4.327,15.666,15.666,0,0,0-4.659-4.695c-.177-.12-.365-.212-.524-.329a18.113,18.113,0,0,0-2.781-1.472l-1.859-.692c-.45-.137-.852-.26-1.332-.375-.048-.012-1.32-.29-1.337-.337,0-.014-.018-.013-.025-.02l-.573,0a7.865,7.865,0,0,1-1.048.582,23.858,23.858,0,0,0-4.77,3.257c-.261.241-.552.506-.821.77s-.494.547-.766.825a8.129,8.129,0,0,0-.728.9,14.317,14.317,0,0,0-2.518,5.479c-.1.442-.159.861-.257,1.32-.043.207-.062.524-.1.718,0,.01-.05.764-.085.669C349.542,456.264,349.535,456.288,349.529,456.3Z"
         fill="#0201a3"
         fill-rule="evenodd" />
      <path
         id="Path_303812"
         data-name="Path 303812"
         d="M364.06,451.691a5.421,5.421,0,0,1,1.295.583,5.874,5.874,0,0,1,1.867,1.794,4.843,4.843,0,0,1,.546,1.3c.046.3.121.443.153.778a9.035,9.035,0,0,1,.017.96,3.525,3.525,0,0,1-.334,1.536,2.951,2.951,0,0,1-.472.89A5.6,5.6,0,0,1,365,461.39a4.042,4.042,0,0,1-1.214.422,6.2,6.2,0,0,1-1.449.169,7.019,7.019,0,0,1-1.434-.226,6.464,6.464,0,0,1-1.16-.465,6.18,6.18,0,0,1-1.359-1.118,5.8,5.8,0,0,1-1.118-2.133,5.264,5.264,0,0,1,.01-2.244l.387-1.256a6.654,6.654,0,0,1,.783-1.289l.618-.6c.156-.117.307-.261.47-.377.073-.052.192-.113.258-.151a3.485,3.485,0,0,1,.844-.379l.594-.2a5.653,5.653,0,0,1,2.559.054l.242.077s.014.017.016.012.01.007.014.013Zm-2.478-4.412a8.341,8.341,0,0,0-4.093,1.312,8.091,8.091,0,0,0-3.247,4.346,9.154,9.154,0,0,0-.5,3.793,8.512,8.512,0,0,0,1.137,3.176,9.767,9.767,0,0,0,4.681,3.965,8.488,8.488,0,0,0,3.7.621c.3-.017.6-.1.922-.141a9.02,9.02,0,0,0,2.375-.878c.121-.073.2-.11.335-.183a9.89,9.89,0,0,0,2.07-1.739,8.394,8.394,0,0,0,.9-1.249,8.092,8.092,0,0,0,.953-2.3c.028-.139.062-.278.1-.421a9.013,9.013,0,0,0,.157-2.513,8.327,8.327,0,0,0-.407-1.737c-.178-.424-.249-.682-.471-1.155-.073-.154-.129-.23-.191-.359a6.979,6.979,0,0,0-.862-1.287,9.069,9.069,0,0,0-7.558-3.247Z"
         transform="translate(0.252 0.331)"
         fill="#fdfcfc"
         fill-rule="evenodd" />
      <path
         id="Path_303813"
         data-name="Path 303813"
         d="M361.92,457.681a2.055,2.055,0,1,1,0-4.105,2.214,2.214,0,0,1,.885.217,2.1,2.1,0,0,1,1.3,1.816,2.108,2.108,0,0,1-2.187,2.072Zm2.885,3.471a5.6,5.6,0,0,0,2.13-1.859,2.951,2.951,0,0,0,.472-.89,3.525,3.525,0,0,0,.334-1.536,9.035,9.035,0,0,0-.017-.96c-.032-.335-.107-.481-.153-.778a4.843,4.843,0,0,0-.546-1.3,5.874,5.874,0,0,0-1.867-1.794,5.421,5.421,0,0,0-1.295-.583c0-.005-.012-.018-.014-.013s-.013-.011-.016-.012l-.242-.077a5.653,5.653,0,0,0-2.559-.054l-.594.2a3.485,3.485,0,0,0-.844.379c-.066.037-.185.1-.258.151-.162.117-.314.261-.47.377l-.618.6a6.654,6.654,0,0,0-.783,1.289l-.387,1.256a5.264,5.264,0,0,0-.01,2.244,5.8,5.8,0,0,0,1.118,2.133,6.18,6.18,0,0,0,1.359,1.118,6.464,6.464,0,0,0,1.16.465,7.019,7.019,0,0,0,1.434.226,6.2,6.2,0,0,0,1.449-.169A4.042,4.042,0,0,0,364.805,461.152Z"
         transform="translate(0.448 0.569)"
         fill="#019cfd"
         fill-rule="evenodd" />
      <path
         id="Path_303814"
         data-name="Path 303814"
         d="M361.76,457.544a2.108,2.108,0,0,0,2.187-2.072,2.1,2.1,0,0,0-1.3-1.816,2.214,2.214,0,0,0-.885-.217A2.055,2.055,0,1,0,361.76,457.544Z"
         transform="translate(0.608 0.705)"
         fill="#01015d"
         fill-rule="evenodd" />
      <path
         id="Path_303815"
         data-name="Path 303815"
         d="M370.611,463.995a.822.822,0,0,0,.3-.351c-.076.041-.042.012-.1.072,0,0-.054.065-.067.081A.435.435,0,0,0,370.611,463.995Z"
         transform="translate(1.271 1.32)"
         fill="#5e63bd"
         fill-rule="evenodd" />
    </g>
  </g>
</svg>
