<svg xmlns="http://www.w3.org/2000/svg" width="173.444" height="80.621" viewBox="0 0 173.444 80.621">
  <g id="Group_312745" data-name="Group 312745" transform="translate(-207.03 -388.252)">
    <path id="Path_301658" data-name="Path 301658" d="M327.9,508.162l6.706-3.855v34.656H337.9l-.028-36.138,6.227-3.262v-5.816L327.9,503.417v4.745Zm19.468,25.389c0,6.969,2.771,10.433,6.942,10.433s6.942-3.464,6.942-10.433v-39.5l-3.012,1.765.049,36.174c0,3.654-.141,7.883-3.979,7.883s-3.981-4.229-3.981-7.883l-.058-33.589-2.9,1.589V533.55Zm20.963-39.281,5.333-1.224c4.521-.175,3.824,11.559,3.572,15.192-.224,3.2-2.03,8.3-3.506,7.72h-5.4V494.269Zm-3.292,51.908h3.292V519.761h4.846c3.028,0,3.739,7.171,3.739,12.411,0,1.4,0,15.083.5,16.326h3.529c-.711-1.161-1.027-16.326-1.027-19.647,0-4.522-1.659-10.652-2.791-10.891v-.08c.606-.321,3.041-4.977,3.236-13.943.175-8.05-1.642-15.667-5.751-15.667l-9.625,2.263.051,55.645Zm74.112-46.912h.075l2.7,25.007h-5.5l2.724-25.007ZM430.631,547.4h3.252l1.69-15.391h7.186l1.691,13.07,3.107-.684-6.451-54.627-3.566-.522L430.631,547.4Zm36.436-10.383,3.288-1.639.138-33.976-3.466-2.195.039,37.81Z" transform="translate(-108.04 -89.401)" fill="#fff"/>
    <path id="Path_301659" data-name="Path 301659" d="M207.03,428.562c0-11.4,9.905-21.59,25.918-28.858,15.59-7.075,37.088-11.452,60.8-11.452h.008c23.713,0,45.212,4.377,60.8,11.453,16.012,7.267,25.916,17.459,25.916,28.856v0c0,11.4-9.9,21.588-25.916,28.857-15.59,7.076-37.087,11.452-60.8,11.453h-.009c-23.713,0-45.213-4.378-60.8-11.455-16.011-7.266-25.915-17.459-25.916-28.855v0Zm3.481,0v0c0,9.905,9.12,19,23.863,25.688,15.166,6.884,36.156,11.141,59.377,11.141h.009c23.218,0,44.207-4.257,59.37-11.141,14.743-6.692,23.863-15.782,23.863-25.688v0c0-9.905-9.119-19-23.861-25.688-15.166-6.883-36.157-11.14-59.376-11.14h-.008c-23.219,0-44.209,4.257-59.372,11.14-14.744,6.691-23.864,15.782-23.865,25.689Z" fill="#fff"/>
    <path id="Path_301660" data-name="Path 301660" d="M514.017,467.647V463.51l-2.754,1.451-.071,4.063Zm7.914-7.352.143,3.732L524.9,462.8l-.027-3.8-2.943,1.293Zm25.735,60.981h3.676V499.614l3-9.115,6.878,30.776h4.587l-8.965-38.719,8.378-25.722H560.69l-9.348,29.331V456.835h-3.676v64.441Zm25.606.054H576.3V471.136h.052l4.875,48.592h2.621l5.2-48.592h.05v47.91l2.662-.931.241-59.137-4.552-.538-4.637,48.768h-.05l-4.927-50.651-4.566-.269V521.33Zm42.5-5.794,12.36-5.193.192-5.191-9.352,4.352.14-43.621-3.234-1-.107,50.656ZM511.2,504.963c0,6.969,2.771,10.433,6.942,10.433s6.942-3.464,6.942-10.433V464.53l-3.012,1.766.049,37.106c0,3.654-.141,7.883-3.979,7.883s-3.981-4.229-3.981-7.883l-.058-33.589-2.9,1.589v33.561Z" transform="translate(-271.875 -60.814)" fill="#fff"/>
  </g>
</svg>
