<svg xmlns="http://www.w3.org/2000/svg" width="74.245" height="74.245" viewBox="0 0 74.245 74.245">
  <g id="Group_312714" data-name="Group 312714" transform="translate(-0.001 0)">
    <path id="Union_47" data-name="Union 47" d="M2.119,49.5A37.133,37.133,0,1,1,37.131,74.245,37.006,37.006,0,0,1,2.119,49.5Z" transform="translate(0.001 -0.001)" opacity="0.21"/>
    <path id="Union_46" data-name="Union 46" d="M1.649,38.5A28.879,28.879,0,1,1,28.877,57.746,28.784,28.784,0,0,1,1.649,38.5Z" transform="translate(8.248 8.249)" opacity="0.24"/>
    <path id="Union_45" data-name="Union 45" d="M1.414,33A24.756,24.756,0,1,1,24.752,49.5,24.648,24.648,0,0,1,1.414,33Z" transform="translate(12.373 12.374)" fill="#fff"/>
    <path id="Path_301606" data-name="Path 301606" d="M10.738,4.855c-.242,0-.353.105-.353.353,0,6.918.037,13.825-.01,20.745l-.013,1.88c0,.189-.08.226-.234.112L.152,20.689a.311.311,0,0,1-.125-.379L6.526.243a.312.312,0,0,1,.3-.221C13.9.008,20.972-.017,28.042.005a.3.3,0,0,1,.283.2l1.45,4.44a.132.132,0,0,1,.006.041.145.145,0,0,1-.144.145c-6.28.031-12.6.017-18.9.017ZM31.6,10.842a.264.264,0,0,1,.251.184l3.033,9.331a.259.259,0,0,1-.1.309L17.7,33.084a.16.16,0,0,1-.087.027.154.154,0,0,1-.154-.152l0-10.16a.1.1,0,0,1,.1-.1h7.382a.237.237,0,0,0,.234-.2l.87-5.078c.026-.144-.036-.216-.184-.216L22.1,17.164l-4.4-.026a.189.189,0,0,1-.216-.216l0-1.746.063-4.111a.2.2,0,0,1,.225-.221H31.6Z" transform="translate(20.053 23.381)" fill="#c22700"/>
  </g>
</svg>
