<svg xmlns="http://www.w3.org/2000/svg" width="675.162" height="273.904" viewBox="0 0 675.162 273.904">
  <g id="Group_312715" data-name="Group 312715" transform="translate(1.389 1.006)" opacity="0.57">
    <path id="Path_301571" data-name="Path 301571" d="M310.975,325.431c67.977-99.395,210.4-170.227,345.039-165.7,152.913-5.041,299.176,57.523,327.535,180.948" transform="translate(-310.974 -159.451)" fill="none" stroke="#c22700" stroke-linecap="round" stroke-width="2" stroke-dasharray="6"/>
    <path id="Path_301574" data-name="Path 301574" d="M546.834,215.877c36.771-29.417,138.735-34.185,169.909,66.724" transform="translate(-54.793 -98.268)" fill="none" stroke="#c22700" stroke-linecap="round" stroke-width="2" stroke-dasharray="6"/>
    <path id="Path_301607" data-name="Path 301607" d="M553.2,210.062c24-29.569,99.239-24.765,124.863,41.738" transform="translate(-21.166 -60.584)" fill="none" stroke="#c22700" stroke-linecap="round" stroke-width="2" stroke-dasharray="6"/>
    <path id="Path_301610" data-name="Path 301610" d="M581.721,185.838c31.692-31.35,107.111-11.516,98.306,73.574" transform="translate(-13.96 -78.183)" fill="none" stroke="#c22700" stroke-linecap="round" stroke-width="2" stroke-dasharray="6"/>
    <path id="Path_301611" data-name="Path 301611" d="M619.842,206.195c14.661-8.762,39.673-4.381,47.145,22.844" transform="translate(-8.544 -44.706)" fill="none" stroke="#c22700" stroke-linecap="round" stroke-width="2" stroke-dasharray="6"/>
    <path id="Path_301608" data-name="Path 301608" d="M0,24.9C31.974-19.32,126.749-4.393,156.167,67.678" transform="matrix(0.891, -0.454, 0.454, 0.891, 480.754, 210.801)" fill="none" stroke="#c22700" stroke-linecap="round" stroke-width="2" stroke-dasharray="6"/>
    <path id="Path_301609" data-name="Path 301609" d="M0,7.18c22.256-17.2,71.933-2.173,73.864,30.974" transform="matrix(0.891, -0.454, 0.454, 0.891, 567.49, 192.013)" fill="none" stroke="#c22700" stroke-linecap="round" stroke-width="2" stroke-dasharray="6"/>
  </g>
</svg>
