<svg xmlns="http://www.w3.org/2000/svg" width="21.6" height="21.602" viewBox="0 0 21.6 21.602">
  <path id="instagram" d="M207.96,8434h9.679a5.969,5.969,0,0,1,5.96,5.963v9.673a5.97,5.97,0,0,1-5.96,5.964H207.96a5.97,5.97,0,0,1-5.96-5.964v-9.673A5.969,5.969,0,0,1,207.96,8434Zm9.679,19.68a4.048,4.048,0,0,0,4.044-4.044h0v-9.673a4.048,4.048,0,0,0-4.044-4.044H207.96a4.048,4.048,0,0,0-4.044,4.044v9.673a4.048,4.048,0,0,0,4.044,4.044Z" transform="translate(-202 -8434)" fill="#fff" fill-rule="evenodd"/>
</svg>
