<svg xmlns="http://www.w3.org/2000/svg" width="39.873" height="39.874" viewBox="0 0 39.873 39.874">
  <g id="hollanda" transform="translate(39.873) rotate(90)">
    <g id="Netherlands" transform="translate(0 0)">
      <path id="Oval-1-copy-4" d="M37.6,0A19.945,19.945,0,0,1,18.8,13.291,19.945,19.945,0,0,1,0,0H37.6Zm0,0" transform="translate(1.135 26.582)" fill="#009245" fill-rule="evenodd"/>
      <path id="Oval-1-copy-5" d="M38.739,13.291A20.032,20.032,0,0,0,38.739,0H1.134a20.032,20.032,0,0,0,0,13.291Zm0,0" transform="translate(0 13.291)" fill="#fff" fill-rule="evenodd"/>
      <path id="Oval-1-copy-5-2" data-name="Oval-1-copy-5" d="M37.6,13.291a19.945,19.945,0,0,0-37.6,0H37.6Zm0,0" transform="translate(1.135)" fill="#d80027" fill-rule="evenodd"/>
    </g>
  </g>
</svg>
