<svg xmlns="http://www.w3.org/2000/svg" width="234.744" height="69.787" viewBox="0 0 234.744 69.787">
  <g id="Layer_x0020_1" transform="translate(2.807 0.004)">
    <g id="_1797415655936" transform="translate(-2.807 -0.004)">
      <g id="Group_311605" data-name="Group 311605" transform="translate(0)">
        <path id="Path_297976" data-name="Path 297976" d="M16.3,7.375c-.368,0-.536.16-.536.536,0,10.505.056,21-.015,31.5l-.019,2.854c0,.288-.121.344-.355.171L.228,31.42a.473.473,0,0,1-.19-.575L9.907.371a.473.473,0,0,1,.454-.335C21.1.014,31.845-.025,42.581.01a.452.452,0,0,1,.43.309l2.2,6.742a.2.2,0,0,1,.009.063A.22.22,0,0,1,45,7.345c-9.536.048-19.14.026-28.7.026Zm31.673,9.091a.4.4,0,0,1,.381.279l4.606,14.17a.394.394,0,0,1-.151.469L26.869,50.244a.243.243,0,0,1-.132.041.233.233,0,0,1-.234-.231l.006-15.429a.156.156,0,0,1,.151-.158h11.21a.36.36,0,0,0,.355-.3l1.321-7.711c.039-.218-.054-.329-.279-.329l-5.713-.056-6.68-.039a.288.288,0,0,1-.329-.329l.006-2.651.1-6.243a.3.3,0,0,1,.342-.335H47.981Z" transform="translate(-0.007 0.004)" fill="#b72222"/>
        <path id="Path_297977" data-name="Path 297977" d="M300.094,49.9v5.023a.273.273,0,0,0,.272.272l11.329.006a.271.271,0,0,1,.272.272V62a.273.273,0,0,1-.272.272H300.365a.273.273,0,0,0-.272.272l.006,11.8a.273.273,0,0,1-.272.272l-7.344.006a.273.273,0,0,1-.272-.272l.007-31.492a.273.273,0,0,1,.272-.272l21.211.006a.271.271,0,0,1,.272.272l-.006,6.5a.271.271,0,0,1-.273.272H300.365a.273.273,0,0,0-.272.272h0Zm97.948,13.189V74.213a.351.351,0,0,1-.4.4l-7.041.006a.4.4,0,0,1-.45-.443l.007-31.321h0a.255.255,0,0,1,.246-.253q6.169-.039,12.525.026c6.213.056,10.957,4.206,10.793,10.533a8.962,8.962,0,0,1-4.872,7.932.321.321,0,0,0-.138.48l5.142,9.893c.13.253.247.244.348-.026L424.61,42.8a.346.346,0,0,1,.324-.227l5.534.019a.387.387,0,0,1,.394.272L441.92,73.292q.532,1.45.532-.1V43.028a.4.4,0,0,1,.45-.45h6.991a.368.368,0,0,1,.417.417l.006,24.2a.325.325,0,0,0,.368.368H463.5a.269.269,0,0,1,.266.272v6.574a.208.208,0,0,1-.21.208L434.5,74.609a.441.441,0,0,1-.463-.342l-1.215-4.124a.4.4,0,0,0-.376-.285H423.2a.435.435,0,0,0-.45.322l-1.36,4.061a.54.54,0,0,1-.513.372H406.7a.523.523,0,0,1-.506-.316l-5.339-11.253a.551.551,0,0,0-.519-.335l-1.905-.013a.345.345,0,0,0-.391.391Zm-.02-13.215.026,6.048a.227.227,0,0,0,.227.227l4.156-.013a3.348,3.348,0,0,0,3.473-3.2h0v-.112a3.35,3.35,0,0,0-3.486-3.187h0l-4.167.013a.227.227,0,0,0-.227.227Zm29.757,5.309-2.606,7.744c-.071.214.028.322.3.322l4.783.006c.249,0,.335-.121.259-.361l-2.454-7.711Q427.919,54.754,427.78,55.186Zm-53.886,7v5.162a.222.222,0,0,0,.221.221h13.424a.222.222,0,0,1,.221.221v6.611a.222.222,0,0,1-.221.221H366.265a.22.22,0,0,1-.221-.221l.006-31.593a.222.222,0,0,1,.221-.221h21.281a.221.221,0,0,1,.221.221l-.013,6.6a.22.22,0,0,1-.221.221H374.115a.222.222,0,0,0-.221.221l-.013,4.9a.221.221,0,0,0,.221.221h11.45a.222.222,0,0,1,.221.221l.019,6.554a.221.221,0,0,1-.221.221l-11.457-.006a.222.222,0,0,0-.221.221h0ZM339.935,42.875a.285.285,0,0,1,.285-.285l12.127-.019a11.363,11.363,0,0,1,11.444,11.292v0l.013,9.443A11.364,11.364,0,0,1,352.38,74.62h0l-12.107.019a.285.285,0,0,1-.285-.285l-.05-31.479Zm7.889,7.073V67.269a.335.335,0,0,0,.335.335h3.371a4.479,4.479,0,0,0,4.353-4.593V54.206a4.478,4.478,0,0,0-4.353-4.593h-3.371A.334.334,0,0,0,347.824,49.948ZM323.684,62.209l-.007,5.125a.241.241,0,0,0,.24.24l13.437-.006a.241.241,0,0,1,.24.24l-.013,6.567a.241.241,0,0,1-.24.24l-21.3.006a.241.241,0,0,1-.24-.24V42.834a.241.241,0,0,1,.24-.24h21.306a.241.241,0,0,1,.24.24v6.561a.241.241,0,0,1-.24.24H323.918a.241.241,0,0,0-.24.24l.013,4.859a.241.241,0,0,0,.24.24l11.374-.006a.241.241,0,0,1,.24.24v6.522a.241.241,0,0,1-.24.24H323.924a.241.241,0,0,0-.24.24Z" transform="translate(-229.023 -33.364)" fill="#fff"/>
      </g>
      <path id="Path_300776" data-name="Path 300776" d="M5.682-14.668H2.944v2.2H5.467v1.027H2.944v3.065H1.729V-15.7H5.682Zm6.659,6.293H8.229V-15.7h3.948v1.032H9.445v2.074h2.518v1.027H9.445V-9.4h2.9Zm2.547,0V-15.7H17q4.05,0,4.05,3.57A3.518,3.518,0,0,1,19.929-9.4a4.289,4.289,0,0,1-3.014,1.029ZM16.1-14.668V-9.4h.97a2.713,2.713,0,0,0,1.995-.7,2.677,2.677,0,0,0,.713-1.992q0-2.569-2.661-2.569ZM27.748-8.375H23.636V-15.7h3.948v1.032H24.851v2.074H27.37v1.027H24.851V-9.4h2.9Zm8.207,0h-1.42l-1.17-1.961a4.1,4.1,0,0,0-.309-.462,1.86,1.86,0,0,0-.306-.314,1.034,1.034,0,0,0-.34-.179A1.414,1.414,0,0,0,32-11.348h-.49v2.973H30.295V-15.7h2.411a3.487,3.487,0,0,1,.95.123,2.208,2.208,0,0,1,.756.37,1.727,1.727,0,0,1,.5.618,1.947,1.947,0,0,1,.181.866,2.12,2.12,0,0,1-.115.713,1.853,1.853,0,0,1-.327.577,2,2,0,0,1-.511.432,2.552,2.552,0,0,1-.672.276v.02a1.885,1.885,0,0,1,.347.248q.148.135.281.278a3.339,3.339,0,0,1,.263.324q.13.181.289.421Zm-4.449-6.339v2.38h1.011a1.5,1.5,0,0,0,.518-.087,1.186,1.186,0,0,0,.411-.25,1.133,1.133,0,0,0,.271-.4,1.366,1.366,0,0,0,.1-.526,1.045,1.045,0,0,0-.332-.822,1.389,1.389,0,0,0-.955-.3ZM44.069-8.375H42.736l-.659-1.864H39.2l-.633,1.864H37.235L39.977-15.7h1.369ZM41.755-11.23l-1.016-2.922a3.461,3.461,0,0,1-.1-.46h-.02a2.99,2.99,0,0,1-.1.46L39.513-11.23Zm8.62,2.855H46.32V-15.7h1.216v6.3h2.84Zm6.422,0V-15.7h2.115q4.05,0,4.05,3.57A3.518,3.518,0,0,1,61.839-9.4a4.289,4.289,0,0,1-3.014,1.029Zm1.211-6.293V-9.4h.97a2.713,2.713,0,0,0,1.995-.7,2.677,2.677,0,0,0,.713-1.992q0-2.569-2.661-2.569ZM68.564-8.252a3.294,3.294,0,0,1-2.536-1.027,3.771,3.771,0,0,1-.953-2.671,4,4,0,0,1,.97-2.819,3.409,3.409,0,0,1,2.636-1.052A3.221,3.221,0,0,1,71.166-14.8a3.784,3.784,0,0,1,.942,2.671,4.008,4.008,0,0,1-.965,2.835A3.347,3.347,0,0,1,68.564-8.252Zm.056-6.5A2.038,2.038,0,0,0,66.983-14a2.97,2.97,0,0,0-.631,1.977,3,3,0,0,0,.613,1.966,1.976,1.976,0,0,0,1.6.746,2.071,2.071,0,0,0,1.66-.71,2.962,2.962,0,0,0,.608-1.987,3.105,3.105,0,0,0-.59-2.028A1.994,1.994,0,0,0,68.62-14.754Zm1.042-1.609a.637.637,0,0,1-.442-.169.553.553,0,0,1-.186-.429.552.552,0,0,1,.179-.419.61.61,0,0,1,.434-.169.651.651,0,0,1,.457.171.544.544,0,0,1,.186.416.569.569,0,0,1-.179.424A.619.619,0,0,1,69.662-16.363Zm-2.125,0a.643.643,0,0,1-.455-.176.556.556,0,0,1-.189-.421.549.549,0,0,1,.181-.419.625.625,0,0,1,.442-.169.656.656,0,0,1,.452.171.538.538,0,0,1,.192.416.561.561,0,0,1-.184.424A.617.617,0,0,1,67.537-16.363Zm12.7,7.988H78.655l-2.549-3.351a1.85,1.85,0,0,1-.174-.255h-.02v3.606H74.7V-15.7h1.216v3.443h.02a1.685,1.685,0,0,1,.174-.25L78.563-15.7h1.456l-2.876,3.514Zm7.726-2.962q0,3.085-2.922,3.085-2.8,0-2.8-2.968V-15.7H83.46v4.229q0,2.155,1.675,2.155,1.614,0,1.614-2.079V-15.7h1.216Zm-1.8-5.036a.637.637,0,0,1-.442-.169.553.553,0,0,1-.186-.429.552.552,0,0,1,.179-.419.61.61,0,0,1,.434-.169.651.651,0,0,1,.457.171.544.544,0,0,1,.186.416.568.568,0,0,1-.179.424A.619.619,0,0,1,86.162-16.374Zm-2.125,0a.643.643,0,0,1-.455-.176.556.556,0,0,1-.189-.421.549.549,0,0,1,.181-.419.625.625,0,0,1,.442-.169.656.656,0,0,1,.452.171.538.538,0,0,1,.192.416.561.561,0,0,1-.184.424A.618.618,0,0,1,84.037-16.374Zm14.76,8H97.591v-4.74q0-.582.072-1.425h-.02a4.922,4.922,0,0,1-.2.69L95.257-8.375H94.42L92.228-13.81a5.117,5.117,0,0,1-.194-.73h-.02q.041.439.041,1.435v4.73H90.931V-15.7h1.711l1.926,4.878a7.212,7.212,0,0,1,.286.838h.026q.189-.577.306-.858L97.147-15.7H98.8Zm6.831-.291V-9.918a1.933,1.933,0,0,0,.4.276,3.1,3.1,0,0,0,.493.207,3.884,3.884,0,0,0,.521.13,2.778,2.778,0,0,0,.48.046,2.049,2.049,0,0,0,1.142-.255.84.84,0,0,0,.375-.741.808.808,0,0,0-.125-.452,1.312,1.312,0,0,0-.35-.35,3.675,3.675,0,0,0-.529-.3q-.3-.146-.651-.3-.373-.2-.695-.4a2.99,2.99,0,0,1-.559-.452,1.891,1.891,0,0,1-.373-.559,1.821,1.821,0,0,1-.135-.73,1.686,1.686,0,0,1,.232-.9,1.963,1.963,0,0,1,.613-.628,2.81,2.81,0,0,1,.866-.368,4.111,4.111,0,0,1,.991-.12,4,4,0,0,1,1.675.26v1.2a2.676,2.676,0,0,0-1.6-.449,2.874,2.874,0,0,0-.539.051,1.6,1.6,0,0,0-.48.169,1.039,1.039,0,0,0-.345.3.739.739,0,0,0-.133.444.84.84,0,0,0,.1.424,1.094,1.094,0,0,0,.3.327,3.054,3.054,0,0,0,.48.289q.283.14.656.3.383.2.723.419a3.408,3.408,0,0,1,.6.485,2.132,2.132,0,0,1,.409.59,1.732,1.732,0,0,1,.151.738,1.829,1.829,0,0,1-.225.94,1.811,1.811,0,0,1-.605.623,2.7,2.7,0,0,1-.876.347,4.939,4.939,0,0,1-1.047.107,4.459,4.459,0,0,1-.452-.028q-.268-.028-.549-.082a5.051,5.051,0,0,1-.531-.13A1.682,1.682,0,0,1,105.628-8.666Zm13.294.291h-1.333l-.659-1.864h-2.881l-.633,1.864h-1.328L114.83-15.7H116.2Zm-2.314-2.855-1.016-2.922a3.463,3.463,0,0,1-.1-.46h-.02a2.99,2.99,0,0,1-.1.46l-1.006,2.922Zm10.776,2.855h-1.328l-3.5-5.383a2.386,2.386,0,0,1-.22-.424h-.031a7.541,7.541,0,0,1,.041,1.006v4.8h-1.175V-15.7h1.415l3.381,5.256q.215.327.276.449h.02a6.508,6.508,0,0,1-.051-.986V-15.7h1.17Zm9.075,0h-1.333l-.659-1.864h-2.881l-.633,1.864h-1.328l2.743-7.324h1.369Zm-2.314-2.855-1.016-2.922a3.462,3.462,0,0,1-.1-.46h-.02a2.991,2.991,0,0,1-.1.46L131.9-11.23ZM143.02-15.7l-2.4,4.663v2.661H139.4v-2.636L137.065-15.7h1.384l1.44,3.141q.026.056.153.424h.015a2.9,2.9,0,0,1,.169-.424l1.507-3.141Zm3.426,7.324h-1.251V-15.7h1.251Zm-.644-8a.632.632,0,0,1-.442-.171.549.549,0,0,1-.186-.421.54.54,0,0,1,.184-.414.634.634,0,0,1,.444-.169.64.64,0,0,1,.444.166.537.537,0,0,1,.184.416.555.555,0,0,1-.184.419A.624.624,0,0,1,145.8-16.374Zm13.553.674-2.63,7.324h-1.359L152.782-15.7h1.328l1.808,5.557a3.426,3.426,0,0,1,.133.618h.02a3.256,3.256,0,0,1,.148-.628l1.849-5.547Zm6.327,7.324H161.57V-15.7h3.948v1.032h-2.733v2.074H165.3v1.027h-2.518V-9.4h2.9Zm11.367-6.293h-2.1v6.293h-1.216v-6.293h-2.1V-15.7h5.419Zm3.564,6.293h-1.251V-15.7h1.251Zm-.644-8a.631.631,0,0,1-.442-.171.549.549,0,0,1-.186-.421.54.54,0,0,1,.184-.414.634.634,0,0,1,.444-.169.64.64,0,0,1,.444.166.537.537,0,0,1,.184.416.555.555,0,0,1-.184.419A.624.624,0,0,1,179.969-16.374Zm8.8,7.692a4.44,4.44,0,0,1-2.058.429,3.366,3.366,0,0,1-2.554-1.006,3.666,3.666,0,0,1-.96-2.641,3.845,3.845,0,0,1,1.08-2.84,3.7,3.7,0,0,1,2.73-1.083,4.474,4.474,0,0,1,1.762.3v1.205a3.144,3.144,0,0,0-1.634-.439,2.565,2.565,0,0,0-1.928.761,2.8,2.8,0,0,0-.738,2.033,2.666,2.666,0,0,0,.69,1.928,2.4,2.4,0,0,0,1.813.718,3.246,3.246,0,0,0,1.8-.49Zm2.992.419a.733.733,0,0,1-.521-.2.64.64,0,0,1-.215-.483.653.653,0,0,1,.215-.49.728.728,0,0,1,.521-.2.743.743,0,0,1,.529.2.65.65,0,0,1,.217.49.636.636,0,0,1-.217.483A.748.748,0,0,1,191.759-8.263Zm7.466-.112H195.17V-15.7h1.216v6.3h2.84Zm6.373-6.293h-2.1v6.293h-1.216v-6.293h-2.1V-15.7H205.6Zm2.317,6.293V-15.7h2.115q4.05,0,4.05,3.57A3.518,3.518,0,0,1,212.957-9.4a4.289,4.289,0,0,1-3.014,1.029Zm1.211-6.293V-9.4h.97a2.713,2.713,0,0,0,1.995-.7A2.677,2.677,0,0,0,212.8-12.1q0-2.569-2.661-2.569Zm7.3,6.4a.733.733,0,0,1-.521-.2.64.64,0,0,1-.215-.483.653.653,0,0,1,.215-.49.728.728,0,0,1,.521-.2.743.743,0,0,1,.529.2.65.65,0,0,1,.217.49.636.636,0,0,1-.217.483A.748.748,0,0,1,216.423-8.263Zm3.073-.4V-9.918a1.932,1.932,0,0,0,.4.276,3.1,3.1,0,0,0,.493.207,3.884,3.884,0,0,0,.521.13,2.778,2.778,0,0,0,.48.046,2.049,2.049,0,0,0,1.142-.255.84.84,0,0,0,.375-.741.808.808,0,0,0-.125-.452,1.313,1.313,0,0,0-.35-.35,3.679,3.679,0,0,0-.529-.3q-.3-.146-.651-.3-.373-.2-.695-.4A2.988,2.988,0,0,1,220-12.52a1.891,1.891,0,0,1-.373-.559,1.821,1.821,0,0,1-.135-.73,1.686,1.686,0,0,1,.232-.9,1.962,1.962,0,0,1,.613-.628,2.809,2.809,0,0,1,.866-.368,4.111,4.111,0,0,1,.991-.12,4,4,0,0,1,1.675.26v1.2a2.676,2.676,0,0,0-1.6-.449,2.874,2.874,0,0,0-.539.051,1.6,1.6,0,0,0-.48.169,1.04,1.04,0,0,0-.345.3.739.739,0,0,0-.133.444.84.84,0,0,0,.1.424,1.094,1.094,0,0,0,.3.327,3.053,3.053,0,0,0,.48.289q.283.14.656.3.383.2.723.419a3.407,3.407,0,0,1,.6.485,2.132,2.132,0,0,1,.409.59,1.733,1.733,0,0,1,.151.738,1.829,1.829,0,0,1-.225.94,1.811,1.811,0,0,1-.605.623,2.7,2.7,0,0,1-.876.347,4.939,4.939,0,0,1-1.047.107,4.459,4.459,0,0,1-.452-.028q-.268-.028-.549-.082a5.051,5.051,0,0,1-.531-.13A1.682,1.682,0,0,1,219.5-8.666Zm3.468,1.558q0,.991-1.471.991-.24,0-.414-.015V-6.7a2.812,2.812,0,0,0,.363.031q.679,0,.679-.419,0-.378-.618-.378a1.808,1.808,0,0,0-.2.02v-.93H222v.48a1.1,1.1,0,0,1,.7.207A.7.7,0,0,1,222.965-7.108Zm8.508-7.559h-2.1v6.293h-1.216v-6.293h-2.1V-15.7h5.419Zm3.564,6.293h-1.251V-15.7h1.251Zm-.644-8a.632.632,0,0,1-.442-.171.549.549,0,0,1-.186-.421.54.54,0,0,1,.184-.414.634.634,0,0,1,.444-.169.64.64,0,0,1,.444.166.537.537,0,0,1,.184.416.555.555,0,0,1-.184.419A.624.624,0,0,1,234.393-16.374Z" transform="translate(-0.854 75.905)" fill="#fff"/>
    </g>
  </g>
</svg>
