<svg xmlns="http://www.w3.org/2000/svg" width="205.474" height="194.713" viewBox="0 0 205.474 194.713">
  <g id="Layer_x0020_1" transform="translate(0.13 0.13)">
    <g id="_2110846079904" transform="translate(0.12 0.12)">
      <path id="Path_303736" data-name="Path 303736" d="M139.212,32.291c-.579-4.377.166-3.041.493-3.339,2.025,3,.436,11.956,3.023,14.446l-3.643.516a6.28,6.28,0,0,0,1.652-1.526c-.815-2.335-.614-3.339-1-6.552-.189-1.566-.3-1.916-.516-3.551Zm-25.972,1.256,1.274,1.784c.843.912.5.327,1.176,1.337a9.259,9.259,0,0,1,1.411,3.924c-.109-.092-.258-.207-.333-.281l-.574-.6c-3.66-4.618-5.829-5.416-6.454-6.959,2.8-.034,1.377.379,3.494.792Zm20.407-3.758c1.876,2.645,1.383,11.033,3.534,14.6l-2.811.017c1.256-1.641.132-4.963-.264-7.045l-.993-6.07c.04-1.469-.034-.82.539-1.5Zm-20.407,3.758c-.12-1.073-.126-.493.2-1.193l8.474-.947,4.521,13.655c.034,0,.184-.017.218-.023l.184-.04c.436-.075-.723.046.482-.12.763-.109,2.048,1.067,2.065-1.377,0-.143-.034-.591-.052-.734-.333-2.966-2.892-10.752-1.744-12.266.935,1.038,3.121,11.859,3.655,14.423l-1.142.5c-.143.063-.579.241-.723.3a13.086,13.086,0,0,1-1.331.516l-10.568.792c2.329-3.884,1.044-12.174-4.246-13.482Zm55.731-7.711c.379.4.826-.775.723,2.9-.086,2.955-.717,6.076-.4,8.8l-2.14.281c2.2-1.968.006-9,1.819-11.979Zm-25.462,5.927c2.031-.935.436,0,1.578-.975-.172-2.243-2.18-.935.671-2.461,2.2,3.563-.367,11.578,2.473,14.4l-3.557.648c1.543-2.341,1.274.522,1.285-2.989.006-2.151-1.113-5.066-.706-9.093-.287.063-1.664.442-1.83.493-.207.057-.493.2-1.067.339.407-.155.717-.166,1.159-.367Zm8.921,3.959c.6,5.984.631,5.955-1.572,6.225,1.021-1.216.551.5.625-2.019l-.35-6.087c-.384-6.644-1.05-5.393.677-6.122.849,2.26.361,5.422.62,8Zm4.555-4.234c-2.22.029-.872.6-.436-.683.373-1.09-.1-1.979.344-2.955.384-.843-.189-.815,2.9-1.176a15.335,15.335,0,0,1,3.448-.184c2.679.935-1.675,9.994,1.446,11.968l-7.321,1.865c-.9-2.4-.677-5.347-.379-8.841Zm18.066.333c-.637,5.445-.344,4.3-2.106,5.009,2.249-3.465-.47-9.9,2.57-11.618a31.634,31.634,0,0,1-.459,6.609Zm32.7-4.762A4.48,4.48,0,0,1,208,25.372c.889-2.565-.069-.281.849-1.388.866,1.7.631,1.641,2.4,2.065-1.876.6-1.142.924-3.488,1.01ZM196.733,30.6c-1.107-.775-.683-1.119-.252-3.064,1.01-4.573.557-2.886,1.767-3.3.534,1.44-1.32,6.076-1.515,6.368Zm-8.032,2.22c2.926-1.411,1.36-2.593,2.656-6.965.591-1.991.086-1.073,1.337-1.572.413,1.291-.539,4.079-1.027,6.127-.08.327-.2.838-.281,1.17L188.7,32.825Zm0,0c-1.314.838-8.319,2.519-9.9,2.869l1.543-10.774,1.262.316-1.1,8.6c8.221.419,2.507-7.975,6.431-9.4.591,3.173-1.038,5.175-.878,8.56l2.633-.172Zm12.174-3.666c1.652-1.515.717-.029,2.134-5.353l1.606.648c-1.113.534-1.692.993-1.354,4.137l-2.392.574Zm-44.263-11.1c-7.619.138-30.287,4.383-35.083,3.414-.9,1.251,1.2.287-1.738,1.084L93.9,26.766c-.327.568-.063.631-.534.912,1.773.9,2.226-.2,2.031,2.077-.132,1.515-1.067,1.509-2.484,1.641,1.469,5.789-9.082,11.262-11.91,11.5.643,1.589.516.459.178,1.756l-5.938.138a.659.659,0,0,1-.075-.224.673.673,0,0,0-.063-.207c-1.107.4-2.587.775-3.867,1.159l-3.2,1.119a2.837,2.837,0,0,0-.2.413l-.631,1.274c-.034.04-.178.155-.207.189s-.241.3-.27.218l-.568,3.718c1.2,1.01,1.635.379,3,1.125l.2.3c.9,0,.7-.235.666.637-.1.057-.27.017-.316.166l-1.434.843.711,1.8c-.861-.143-1.147.316-2.737-2.7l-.04-.1c-1.549-1.635-.941-1.824-2.817-2.5.7,2.932,2.094,1.738,3.236,4.825.218.579.224,1.021.31,1.234.43,1.067.155.447.8,1.2-.321-2.266-.207-.734.293-1.124C72.7,60.576,92.161,61.2,99.8,55.5c4.32-3.219,2.645-3,9.122-3.247l54.446-8.8,30.12-7.854c4.722-1.268,10.889-2.381,14.624-4,1.83-.792,2.817-1.056,4.894-1.756,2.725-.924,6.713-2.478,8.1-4.435.585-.826,2.117-7.883-1.142-9.908,1.383,2.5-.04,2.123,1.5,7.212-3.133-.011-5.129-.522-8.571-.5-22.57.092-32.4,1.256-55.508,2.978-18.772,1.4-34.177,3.752-52.2,6.713-2.324.384-4.877,1.5-6.741.407,2.983-2.674,26.494-4.6,30.115-5.307,5.622-1.1,28.835-2.972,31.159-4.108l-3.1-4.848Z" transform="translate(-27.095 -6.68)" fill="none" stroke="#636268" stroke-linecap="round" stroke-linejoin="round" stroke-width="1" fill-rule="evenodd"/>
      <path id="Path_303737" data-name="Path 303737" d="M172.309,251.989l-.476-2.014,2-.224.62,3.775-2.926.143c1.3-1.015.189-.511.786-1.681Zm-4.968,4.257c2.433.826,5.4.6,8.244.476,2.719-.12,4.8.143,6.46-1.474l-1.566-.057c1.738-7.722,2.037-1.343,1.968-16.248-.029-5.972-.143-11.951-.178-17.929-.04-7.4.74-10.132-2.347-15.651-2.771-4.945-2.427-8.262-10.206-7.47-.952,1.555-5.416,5-6.2,11.165l-.189,34.55c-.1,6.678-3.161,11.532,4.016,12.639Z" transform="translate(-69.377 -84.377)" fill="none" stroke="#636268" stroke-linecap="round" stroke-linejoin="round" stroke-width="1" fill-rule="evenodd"/>
      <path id="Path_303738" data-name="Path 303738" d="M182.64,17.227l3.1,4.848c-2.324,1.136-25.536,3.012-31.159,4.108-3.62.706-27.137,2.633-30.115,5.307,1.865,1.09,4.418-.029,6.741-.407,18.021-2.96,33.425-5.313,52.2-6.713,23.11-1.721,32.937-2.886,55.508-2.978,3.442-.011,5.433.493,8.571.5-1.538-5.089-.109-4.716-1.5-7.212l-12.628-1.1h-.373l-50.35,3.637Z" transform="translate(-53.128 -5.862)" fill="none" stroke="#636268" stroke-linecap="round" stroke-linejoin="round" stroke-width="1" fill-rule="evenodd"/>
      <path id="Path_303739" data-name="Path 303739" d="M61.076,60.8l.568-3.718c.029.086.229-.178.27-.218s.172-.149.207-.189l.631-1.274a2.837,2.837,0,0,1,.2-.413l3.2-1.119c1.279-.384,2.76-.757,3.867-1.159a.627.627,0,0,1,.063.207.819.819,0,0,0,.075.224L76.09,53c.338-1.3.465-.166-.178-1.756,2.834-.241,13.379-5.714,11.91-11.5,1.411-.132,2.352-.12,2.484-1.641.2-2.272-.258-1.182-2.031-2.077.47-.281.207-.344.534-.912-2.129.011-35.381,6.437-37.349,10.092,1.136,2.679,3.7,1.027,4.268,7.24.063.04.912.47.918.47,1.44.964.981.952,1.761,1.836.063.075.172.178.235.247s.2.184.258.252l.574.551c-.092.086-.247.08-.287.241s-.224.189-.287.247c-.172.166-.809-.247-1.474,2.542l2.025,1.159c.373.172,1.147.574,1.618.815Z" transform="translate(-22.005 -15.035)" fill="none" stroke="#636268" stroke-linecap="round" stroke-linejoin="round" stroke-width="1" fill-rule="evenodd"/>
      <path id="Path_303740" data-name="Path 303740" d="M273.243,165.739c-1.09-2.123-.488-13.207-.155-14.871.488-2.427.247-2.048,3.351-1.985.849,2.651.178,6.414.029,9.53C276.266,162.658,277.288,165.59,273.243,165.739Zm-28.68-16.489c.436,3.678,1.859,14.228-.453,16.489-3.287-.419-2.456-.379-2.817-10.017-.2-5.215-1.842-7.682,3.276-6.472Zm-1.2,35.565-.419,9.988c1.486-1.417.958-.184,1.583-2.519.614-2.295-.906-3.873,1.578-8.038.734-1.239,1.492-3.018,2.392-4.291,3.89-5.5,5.2-5.009,5.192-14.923,0-3.85-1.239-10.321-.281-13.391l-.493-2.817,11.761-.361a8.048,8.048,0,0,1,.115,3.437c-.344,3.224-.929,2.9-1.13,3.15l.075,4.1c.574,3.155.264,6.632.264,9.908,0,3.385,4.314,10.1,6.391,12.943l1.32,1.406c2.037,2.5-.08,2.088,1.5,3.373,2.283,1.853-.723,1.773,1.67-.316-.339-6.758-6.839-11.807-6.988-14.515,10.149-1.5,12.025,3.316,12.61-8.927.212-4.446,2.5-17.045.826-20.075l-.442,4.67c-3.689-.115-7.458-.453-10.884-.459-3.867-.006-7.223.631-11.285.631-7.74,0-13.764-.539-21.836-.2.069-1.9.459-3.517-.287-4.808-1.406,2.851.5,15.376.752,19.6.654,11.033,1.107,9.661,12.846,9.323-1.027,4.194-6.225,7.361-6.816,13.1Z" transform="translate(-100.708 -60.937)" fill="none" stroke="#636268" stroke-linecap="round" stroke-linejoin="round" stroke-width="1" fill-rule="evenodd"/>
      <path id="Path_303741" data-name="Path 303741" d="M270.489,234.052c.224,2.788.981,1.1-.832,3.574-1.773.27-3.792-.017-3.133-2.53C267.076,232.991,269.382,233.737,270.489,234.052Zm-.516-18.652c-4.63,1.779-5.169-5.439.132-3.477C271.12,214.54,271.241,212.842,269.973,215.4Zm5.858-23.219c2.622,1.308.138-1.566,2.6,2.22,1.916,2.932.981,5.823.82,8.778l1.48,33.649c.539,4.693.855,4.182-1.119,5.255-1.916-1.073-.637.115-1.348-1.876-.178-.493-.218-1.928-.361-2.438-.924-3.322-.023-.614-2.932-2.8,0-5.967-.493-11.87-.643-17.929-.178-7.149,2.088-11.492-6-11.469-7.435.023-5.336,4.854-5.7,12.146-.287,5.674-.339,11.342-.39,17.252-.155.109-5,.878-3.224,6.661l.677,1.067c5.037,2.547,13.333.97,17.883.149,5.645-1.021-2.691,3.741,7.567-.161.987-5.192.511-39.868-.66-44.062-2.392,2.088.614,2.169-1.67.316-1.589-1.285.534-.878-1.5-3.374L280,194.161c-2.071-2.846-6.391-9.558-6.391-12.943,0-3.276.316-6.753-.264-9.908-1.044,1.13-.419-.941-1.038,2.53l-.132,10a18.31,18.31,0,0,0,3.655,8.33Z" transform="translate(-110.317 -73.095)" fill="none" stroke="#636268" stroke-linecap="round" stroke-linejoin="round" stroke-width="1" fill-rule="evenodd"/>
      <path id="Path_303742" data-name="Path 303742" d="M261.24,155.873c1.136-2.478.092-1.371,1.325-2.169,2.375.889,1.784,5.961,1.8,8.916.023,4.177.516,6.8.666,10.6.4,10.08-2.151,11.79-2.737,19.7-3.511.132-5.611-.08-3.861-4.55,1.692-4.326,7.9-12.06,4.831-21.7-.476-1.492-.126-.729-.855-1.641-.092,3.689.516,6.9.08,10.872-.39,3.54-1.779,3.941-3.264,6.758-4.5,8.543-3.173,5.657-3.574,16.483-.086,2.358-.115,35.255-1.182,37.177l1.314.447c.884-3.6-.5-1.13,2.134-2l-.677-1.067c-1.779-5.789,3.069-6.552,3.224-6.661.052-5.915.1-11.583.39-17.252.367-7.292-1.727-12.123,5.7-12.146,8.084-.023,5.818,4.32,6,11.469.149,6.058.643,11.962.643,17.929,2.914,2.186,2.008-.516,2.932,2.8.143.511.184,1.945.361,2.438.717,1.991-.568.809,1.348,1.876,1.974-1.073,1.658-.562,1.119-5.255l-1.48-33.649c.161-2.949,1.1-5.84-.82-8.778-2.473-3.787.017-.912-2.6-2.22.832,5.76,1.824,1.216.792,8.554l-2.748.746c-1.107-1.911-1.75-6.363-2.565-9.271-1.124-3.982-.981-5.668-.872-10.367.1-4.154.3-7.866.614-11.342.407-4.578-.792-8.021,1.922-8.87,1.1,1.606-.12,2.679.293,5.588.2-.252.786.075,1.13-3.15a8.042,8.042,0,0,0-.115-3.437l-11.761.361.493,2.817Z" transform="translate(-108.544 -65.162)" fill="none" stroke="#636268" stroke-linecap="round" stroke-linejoin="round" stroke-width="1" fill-rule="evenodd"/>
      <path id="Path_303743" data-name="Path 303743" d="M51.248,55.945c-1.681-1.09-.648.579-1.211-1.515C52.872,54.528,51.507,55.394,51.248,55.945ZM44.473,41.223c-.929,3.046,1.314,6.54,3.1,7.963.12,4.372-.172,1.784,1.182,5.163-1.073,4.492-6.311,9.845-6.764,14.613-.631,6.6.212,14.28-.694,20.74l5.02-1.354c.4-6.89-1.532-14.963.9-18.158a2.688,2.688,0,0,0,.809-1.951c0-.5-.017-2,.017-3.282,6.535,0,7.722,2.375,10.8.981l-.528-2.295c-.648-.752-.373-.132-.8-1.2-.086-.212-.092-.654-.31-1.233-1.147-3.087-2.542-1.893-3.236-4.825,1.876.666,1.268.861,2.817,2.5,1.136-1.234-.436-.293,1.3-.952.866-.327.929-.086,1.658.011-1.365-.746-1.8-.115-3-1.124-.476-.235-1.251-.637-1.618-.815L53.1,54.843c.66-2.783,1.3-2.375,1.474-2.542.057-.057.241-.08.287-.247s.2-.155.287-.241l-.574-.551c-.063-.063-.189-.178-.258-.252s-.172-.172-.235-.247c-.775-.884-.316-.872-1.761-1.836-.006-.006-.849-.43-.918-.47-.568-6.213-3.133-4.567-4.268-7.24C49.1,37.563,82.35,31.137,84.484,31.126l25.886-4.217c2.943-.8.838.166,1.738-1.084l-1.228-.034L93.658,28.94c-5.64.993-11.256,1.893-17.028,3.2-5.318,1.2-11.331,2.582-16.913,3.6-3.878.711-12.61,2.174-15.25,5.468Z" transform="translate(-17.674 -11.063)" fill="none" stroke="#636268" stroke-linecap="round" stroke-linejoin="round" stroke-width="1" fill-rule="evenodd"/>
      <path id="Path_303744" data-name="Path 303744" d="M48.146,136.446c1.228,1.056.413.27.6.688.5,1.107.207,8.525.212,10.436l.063,68.129c.04,8.577-.666,19.707.092,27.94l2.834-.321.017-98.273c.011-2.18.155-5.032.04-7.131-.092-1.7.321-1.87-1.147-2.289a3.465,3.465,0,0,0-2.719.82Z" transform="translate(-20.59 -57.851)" fill="none" stroke="#636268" stroke-linecap="round" stroke-linejoin="round" stroke-width="1" fill-rule="evenodd"/>
      <path id="Path_303745" data-name="Path 303745" d="M47.381,244.3c-.763-8.233-.057-19.363-.092-27.94l-.063-68.129c-.006-1.91.293-9.329-.212-10.436-.189-.419.62.367-.6-.688-3.3.029-2.146,3.207-2.134,11.124.034,30.35.906,67.08.126,95.789l2.978.287Z" transform="translate(-18.855 -58.516)" fill="none" stroke="#636268" stroke-linecap="round" stroke-linejoin="round" stroke-width="1" fill-rule="evenodd"/>
      <path id="Path_303746" data-name="Path 303746" d="M139.471,157.019c.1,3.391-.184,6.5-.086,9.931.143,4.934-.43,5.858,3.024,7.866.092-2.1,25.634-.757,30.591-1.056,3.018-.178,8.067-.746,10.333,1.371,4.555-3.781,1.583-18.239,1.727-24.653l-4.154-.04c-.2,3.046-.08,1.193-.981,2.243l.252,3.316.637,1.842,3.746.465c-.935.321-.924.029-1.664.281-1.819.608-.792.212-1.928,1.05,2.22,1.578,1.061.614,4.159,1.325-2.169,1.561-.625.476-4.412.935l.143,7.028-14.464.069c-7.269,2.238-4.114-.235-9.736-.178l-.453-2.628c-1.606-2.811.769-1.572-3.792-1.87-1.492-.1-1.7.287-3.19-.04,1.824-1.859,4.205-.04,6.162-1.325-.637-2.53.608-1.532-2.955-1.8-5.273-.384-1.343.82-3.029-.488l5.881-.011-.143-6.334c-2.094.637-4.59-.218-6.351,1.325,1.71,1.188-.35.666,2.915.809a31.167,31.167,0,0,0,3.689-.344c-1.348,1.113-.419.717-3.637,1.016a14.92,14.92,0,0,0-1.813.12c-1.612.281.04-.545-1.538.591a55.02,55.02,0,0,1,.052,7.958c-.3,3.075-.344,3.213-3.93,2.978l.694-16.185c-2.22-2.7-1.251-3.391.78-4.934l-2.49-.4c-.281,4.923-1.394,2.18-1.044,3.941a1.9,1.9,0,0,0,.109.247c1.354,3.884.006-3.672.528.975-2.783-.258-1.274-.3-3,.568a3.213,3.213,0,0,0,.557.3l2.662,1.027-2.863,1.027c-.126-.189-.447.166-.648.3,2.863,2.088,2.937-.4,3.293,1.343l-3.649.023Z" transform="translate(-59.477 -62.843)" fill="none" stroke="#636268" stroke-linecap="round" stroke-linejoin="round" stroke-width="1" fill-rule="evenodd"/>
      <path id="Path_303747" data-name="Path 303747" d="M53.423,100.62c-.775,1.756-.023,1.228-1.692.786C52.1,99.5,51.926,99.611,53.423,100.62ZM49.78,117.459l2.7.023c-.5-3.024-.39-1.142-.321-1.2.017-.017.143-.023.178-.04l1.107-.3a1.809,1.809,0,0,0,.493-.184,12.192,12.192,0,0,0-.838-1.7c-2.542.591-.918.293-1.469-.316.763-.975.069-.557,1.578-.4.792-.884.591.442.838-1.274.425-2.943-.052-1.406-.671-2.14-.815.476-.448.453-1.549.516-.287-1.624-.579-.981.654-1.52,1.153.264.459-.419.884,1.027a3.049,3.049,0,0,0,1.279-3.437l.229,10.694c2.995.207,5.026.683,6.454-.752-.534-.166-.092.436-.069-1.165l.493-8.089c.092-3.551.1-7.149.189-10.683l1.256.006c-.344-2.553.006-.82-.9-1.463-3.081,1.394-4.268-.981-10.8-.981-.029,1.279-.011,2.771-.017,3.282a2.665,2.665,0,0,1-.809,1.951c-2.438,3.2-.511,11.268-.9,18.158Z" transform="translate(-21.134 -40.173)" fill="none" stroke="#636268" stroke-linecap="round" stroke-linejoin="round" stroke-width="1" fill-rule="evenodd"/>
      <path id="Path_303748" data-name="Path 303748" d="M66.786,244.118l2.915-.155c-.993-4.349-.333-20.614-.339-26.225-.006-8.749.086-17.5.092-26.242.011-17.349.551-35.7-.1-52.926l-.166-1.647-2.157-.143c.425,1.83.1.006.35,1.211l.143,58.491c-.011.075-.057.212-.069.287s-.046.212-.052.287c-.729,6.621-.1,37.619-.625,47.068Z" transform="translate(-28.536 -58.375)" fill="none" stroke="#636268" stroke-linecap="round" stroke-linejoin="round" stroke-width="1" fill-rule="evenodd"/>
      <path id="Path_303749" data-name="Path 303749" d="M65.643,243.879c.534-9.449-.1-40.447.625-47.068.006-.075.04-.212.052-.287s.057-.207.069-.287l-.143-58.491c-.252-1.2.069.625-.35-1.211l-1.8-.316.046,107.016,1.5.637Z" transform="translate(-27.393 -58.136)" fill="none" stroke="#636268" stroke-linecap="round" stroke-linejoin="round" stroke-width="1" fill-rule="evenodd"/>
      <path id="Path_303750" data-name="Path 303750" d="M139.55,155.283l3.649-.023c-.356-1.744-.425.74-3.293-1.342.2-.132.522-.488.648-.3l2.863-1.027-2.662-1.027a3.018,3.018,0,0,1-.557-.3c1.733-.872.218-.826,3-.568-.522-4.647.826,2.909-.528-.975-.011-.04-.1-.207-.109-.247-.35-1.756.757.981,1.044-3.941l2.49.4,2.9.763-.011,3.276c-2.645-.046-1.784-.654-3.666.9l3.081.08.1,5.169c1.578-1.142-.075-.31,1.538-.591a13.788,13.788,0,0,1,1.813-.12c3.219-.3,2.289.1,3.637-1.015a31.283,31.283,0,0,1-3.689.344c-3.27-.143-1.2.379-2.915-.809,1.761-1.543,4.257-.688,6.351-1.325.488-7.917.447-4.917,1.916-5.875-.562,2.283-.407,3.024,1.331,4.274,1.285-1.509,1.245-1.549,1.555-4.682l5.026-.166,1.452,7.034c1.761-2.456.522.08,1.406-3.058.551-1.951.086-1.876,1.188-3.437.947,1.859.786,4.108.734,6.581l6.317-.425-.2,3.528-.138.78c-5.359-.2-4.584-.528-6.116.752,1.124.66-.27.2,1.543.453,3.138.442,3.505-.333,4.94.878-1.5,1.486,1.17.132-1.325.608-5,.952-3.9-1.394-5.032,1.383,1.681.448,1.836-.006,3.27.161,5.135.6,1.836-.522,3.27,1.583-1.348.465-4.555-.092-7.108.166l-.27.809c10.367-.235,6.839-.677,8.078,1.928-1.44,2.106.063,1.7-3.941,1.629-1.779-.034-3.614-.247-5.485-.258l-1.153.023,14.464-.069-.143-7.028.1-4.056-.637-1.842c-.155,4.142.872,10.046-.539,12.478-3.85-.275-2.84-3.058-2.846-6.85-.006-3.018-.155-6.1.052-9.134l3.081.189c-.935-1.038.413-.172-1.624-.918l-2.094-.769c.017-.866-1.216-4.492,4.1-2.725l.6,2.163,4.154.04c.126-5.978-1.124-5.37-6.724-5.4-5.886-.034-35.479-.6-37.212.723-1.641,2.117-1.715,8.359-1.652,11.211Z" transform="translate(-59.556 -61.107)" fill="none" stroke="#636268" stroke-linecap="round" stroke-linejoin="round" stroke-width="1" fill-rule="evenodd"/>
      <path id="Path_303751" data-name="Path 303751" d="M247.64,191.4c-1.79,3.322-1.251,20.838-1.251,26.035,0,4.257.149,8.571-.069,12.8-.241,4.693-1.228,7.4,4.584,8.434,1.067-1.916,1.1-34.819,1.182-37.177.4-10.82-.924-7.94,3.574-16.483,1.486-2.817,2.874-3.219,3.264-6.758.442-3.97-.166-7.183-.08-10.872.379-2.5-.138-7.149-1.17-9.157-.958,3.069.281,9.541.281,13.391.006,9.914-1.3,9.42-5.192,14.922-.9,1.274-1.652,3.052-2.392,4.291-2.479,4.165-.964,5.743-1.578,8.038-.625,2.329-.1,1.1-1.583,2.519l.419-9.988Z" transform="translate(-104.978 -67.515)" fill="none" stroke="#636268" stroke-linecap="round" stroke-linejoin="round" stroke-width="1" fill-rule="evenodd"/>
      <path id="Path_303752" data-name="Path 303752" d="M151.833,252.053c1.05-1.48.052,1.342.407-5.232.149-2.731.189-5.806.212-8.554.057-6.9-.172-27.4,1.715-32.874,1.285-3.735,3.919-8.112,7.894-9.507,1.876-1.084,3.425-.717,5.823-.39.975-1.084.178-.694,2.02-1.136.224-.052,2.329-.086,2.685-.1.648.763.43-.539,1.342,1.6,2.226-1.658,6.454-.252,11.641-1.2-2.266-2.117-7.315-1.555-10.333-1.371-4.957.293-30.493-1.044-30.591,1.056,2.375,1.687,7.665.425,10.878.97-7.189,10.723-6.156,11.09-6.179,26.345-.006,5.542.04,11.061.069,16.6.029,5.141-1.434,12.237,2.41,13.787Z" transform="translate(-61.73 -82.375)" fill="none" stroke="#636268" stroke-linecap="round" stroke-linejoin="round" stroke-width="1" fill-rule="evenodd"/>
      <path id="Path_303753" data-name="Path 303753" d="M236.96,141.512c.746,1.285.356,2.9.287,4.808,8.072-.344,14.1.2,21.836.2,4.062,0,7.418-.637,11.285-.631,3.425.006,7.2.344,10.884.459l.442-4.67c-1.01-1.853.069-.809-1.572-1.44l-32.323-.178c-2.995-.023-9.415-1.193-10.838,1.457Z" transform="translate(-101.08 -59.653)" fill="none" stroke="#636268" stroke-linecap="round" stroke-linejoin="round" stroke-width="1" fill-rule="evenodd"/>
      <path id="Path_303754" data-name="Path 303754" d="M162.475,154.789l.143,6.334-5.881.011c1.692,1.308-2.243.1,3.029.488,3.563.258,2.312-.734,2.955,1.8-1.962,1.291-4.337-.534-6.162,1.325,1.5.327,1.7-.063,3.19.04,4.555.3,2.18-.935,3.792,1.87-.052-1.033-.235-2.972-.178-3.964.172-3.041.717-2.92,1.371-3.626.8,4.217.9,7.82,5.4,8.422,1.865.252,2.742-.4,3.488-2.054.528-1.182.562-3.127,1.36-3.8,1.733-1.469-.78-.843,1.182-.2.092.511.2,2.6.333,3.9,2.553-.258,5.76.293,7.108-.166-1.434-2.1,1.859-.981-3.27-1.583-1.429-.166-1.589.287-3.27-.161,1.142-2.777.04-.43,5.032-1.383,2.5-.476-.178.878,1.325-.608-1.434-1.211-1.8-.436-4.94-.878-1.813-.252-.419.207-1.543-.453,1.532-1.279.757-.947,6.116-.752l.138-.78-6.667.178.545-3.282c.052-2.473.212-4.722-.734-6.581-1.1,1.561-.637,1.486-1.188,3.437-.884,3.138.356.6-1.406,3.058l-1.452-7.034-5.026.166c-.31,3.133-.27,3.167-1.555,4.682-1.738-1.251-1.893-1.991-1.331-4.274-1.469.958-1.429-2.042-1.916,5.875Z" transform="translate(-66.807 -63.303)" fill="none" stroke="#636268" stroke-linecap="round" stroke-linejoin="round" stroke-width="1" fill-rule="evenodd"/>
      <path id="Path_303755" data-name="Path 303755" d="M150.222,44.682c5.284,1.308,6.575,9.6,4.246,13.482l10.568-.792a13.629,13.629,0,0,0,1.331-.516c.143-.057.579-.241.723-.3l1.142-.5c-.534-2.559-2.719-13.385-3.655-14.423-1.147,1.509,1.411,9.3,1.744,12.266.017.143.052.591.052.734-.017,2.444-1.3,1.268-2.065,1.377-1.2.172-.04.052-.482.12-.029.006-.155.04-.184.04s-.184.017-.218.023L158.9,42.536l-8.474.947c-.321.7-.316.12-.2,1.193Z" transform="translate(-64.078 -17.815)" fill="none" stroke="#636268" stroke-linecap="round" stroke-linejoin="round" stroke-width="1" fill-rule="evenodd"/>
      <path id="Path_303756" data-name="Path 303756" d="M46.83,40.955C49.469,37.662,58.2,36.2,62.08,35.488c5.577-1.021,11.589-2.4,16.913-3.6,5.772-1.308,11.383-2.2,17.028-3.2l17.223-3.15c-1.555-1.348-14.458,1.371-17.521,1.8L60.255,33.181c-6.294,1.159-11.945,2.76-13.425,7.774Z" transform="translate(-20.031 -10.795)" fill="none" stroke="#636268" stroke-linecap="round" stroke-linejoin="round" stroke-width="1" fill-rule="evenodd"/>
      <path id="Path_303757" data-name="Path 303757" d="M196.216,254.246c3.884-.465,2.427-4.4,2.456-12.88.04-12.421,2.347-36.552-5.152-41.113-1.245,1.5,1.343,1.268-1.779,1.268.476-1.7.516.12-.218-.528l-2.932-1.922c-.1-.281-.39-.2-.591-.281,2.117,3.781,5.232,6.753,6.581,10.545,1.193,3.356,1.09,31.7,1.348,38.64a22.144,22.144,0,0,1,.161,3.127l.12,3.144Z" transform="translate(-80.209 -84.809)" fill="none" stroke="#636268" stroke-linecap="round" stroke-linejoin="round" stroke-width="1" fill-rule="evenodd"/>
      <path id="Path_303758" data-name="Path 303758" d="M157.17,254.137c.889.843-.184.3,1.8,1.211a16.284,16.284,0,0,0,2.065.591,27.2,27.2,0,0,0,4,.384c-7.183-1.107-4.119-5.961-4.016-12.639l.189-34.55c.78-6.156,5.25-9.61,6.2-11.165-3.976,1.394-6.6,5.772-7.894,9.507-1.888,5.479-1.658,25.967-1.715,32.874-.023,2.748-.063,5.823-.212,8.554-.356,6.569.637,3.746-.407,5.232Z" transform="translate(-67.067 -84.459)" fill="none" stroke="#636268" stroke-linecap="round" stroke-linejoin="round" stroke-width="1" fill-rule="evenodd"/>
      <path id="Path_303759" data-name="Path 303759" d="M187.335,254.789c1.859.023,2.576.367,3.333-1.429l-.12-3.144a22.224,22.224,0,0,0-.161-3.127c-.258-6.942-.155-35.29-1.348-38.64-1.348-3.792-4.469-6.758-6.581-10.545l-1.635-.855c-2.4-.333-3.947-.694-5.823.39,7.78-.792,7.435,2.519,10.207,7.47,3.087,5.519,2.306,8.256,2.347,15.651.034,5.978.155,11.951.178,17.929.069,14.905-.229,8.531-1.968,16.248l1.566.057Z" transform="translate(-74.668 -83.924)" fill="none" stroke="#636268" stroke-linecap="round" stroke-linejoin="round" stroke-width="1" fill-rule="evenodd"/>
      <path id="Path_303760" data-name="Path 303760" d="M284.553,184.981a18.31,18.31,0,0,1-3.655-8.33l.132-10c.614-3.471-.006-1.4,1.038-2.53l-.075-4.1c-.413-2.909.8-3.982-.293-5.588-2.714.849-1.515,4.286-1.922,8.87-.31,3.477-.516,7.189-.614,11.342-.109,4.693-.252,6.386.872,10.367.82,2.909,1.463,7.361,2.565,9.271l2.748-.746c1.033-7.332.04-2.788-.792-8.554Z" transform="translate(-119.04 -65.899)" fill="none" stroke="#636268" stroke-linecap="round" stroke-linejoin="round" stroke-width="1" fill-rule="evenodd"/>
      <path id="Path_303761" data-name="Path 303761" d="M263.718,156.619c1.033,2.008,1.549,6.661,1.17,9.157.723.912.379.149.855,1.641,3.075,9.639-3.133,17.378-4.831,21.7-1.75,4.464.344,4.676,3.861,4.55.591-7.906,3.133-9.621,2.737-19.7-.149-3.8-.637-6.426-.666-10.6-.017-2.949.574-8.026-1.8-8.916C263.81,155.247,264.848,154.146,263.718,156.619Z" transform="translate(-111.022 -65.908)" fill="none" stroke="#636268" stroke-linecap="round" stroke-linejoin="round" stroke-width="1" fill-rule="evenodd"/>
      <path id="Path_303762" data-name="Path 303762" d="M233.011,38.888c-1.543.126-.6,1.452.2-3.528l-4.5.39a25.566,25.566,0,0,0-.252,6.569l.132,5.123c5.617.275,3.787-1.251,4.423-8.548Z" transform="translate(-97.418 -15.142)" fill="none" stroke="#636268" stroke-linecap="round" stroke-linejoin="round" stroke-width="1" fill-rule="evenodd"/>
      <path id="Path_303763" data-name="Path 303763" d="M231.307,38.545c-.631,7.3,1.193,8.824-4.423,8.548l-.132-5.123A25.33,25.33,0,0,1,227,35.4l4.5-.39c-.8,4.98-1.744,3.66-.2,3.528Zm-5.7,1.061c-.3,3.494-.522,6.437.379,8.841l7.321-1.865c-3.121-1.968,1.233-11.033-1.446-11.968a15.335,15.335,0,0,0-3.448.184c-3.092.361-2.513.333-2.9,1.176-.448.975.029,1.865-.344,2.955-.436,1.279-1.779.711.436.683Z" transform="translate(-95.713 -14.798)" fill="none" stroke="#636268" stroke-linecap="round" stroke-linejoin="round" stroke-width="1" fill-rule="evenodd"/>
      <path id="Path_303764" data-name="Path 303764" d="M244.854,160.295c.361,9.639-.465,9.6,2.817,10.017,2.312-2.26.889-12.811.453-16.489-5.118-1.216-3.471,1.256-3.276,6.472Z" transform="translate(-104.27 -65.51)" fill="none" stroke="#636268" stroke-linecap="round" stroke-linejoin="round" stroke-width="1" fill-rule="evenodd"/>
      <path id="Path_303765" data-name="Path 303765" d="M168.59,174.62l.453,2.628c5.622-.063,2.467,2.415,9.736.178l1.153-.023a5.967,5.967,0,0,0,1.342-3.3l.27-.809c-.138-1.3-.241-3.391-.333-3.9-1.962-.643.551-1.268-1.182.2-.8.677-.832,2.616-1.36,3.8-.74,1.658-1.618,2.306-3.488,2.054-4.5-.6-4.6-4.205-5.4-8.422-.654.706-1.2.579-1.371,3.626-.057,1,.126,2.932.178,3.964Z" transform="translate(-71.854 -71.27)" fill="none" stroke="#636268" stroke-linecap="round" stroke-linejoin="round" stroke-width="1" fill-rule="evenodd"/>
      <path id="Path_303766" data-name="Path 303766" d="M300.387,170.222c4.045-.149,3.023-3.081,3.224-7.326.149-3.115.82-6.879-.029-9.53-3.1-.063-2.863-.442-3.351,1.985C299.9,157.015,299.3,168.1,300.387,170.222Z" transform="translate(-127.851 -65.421)" fill="none" stroke="#636268" stroke-linecap="round" stroke-linejoin="round" stroke-width="1" fill-rule="evenodd"/>
      <path id="Path_303767" data-name="Path 303767" d="M152.258,161.81l-.1-5.169-3.081-.08-.694,16.185c3.586.235,3.637.1,3.93-2.978a55.026,55.026,0,0,0-.052-7.958Z" transform="translate(-63.32 -66.807)" fill="none" stroke="#636268" stroke-linecap="round" stroke-linejoin="round" stroke-width="1" fill-rule="evenodd"/>
      <path id="Path_303768" data-name="Path 303768" d="M274.447,39.438l-2.633.172c-.161-3.391,1.469-5.387.878-8.56-3.924,1.423,1.79,9.816-6.431,9.4l1.1-8.6-1.262-.316L264.55,42.306c1.583-.35,8.589-2.031,9.9-2.869Z" transform="translate(-112.841 -13.305)" fill="none" stroke="#636268" stroke-linecap="round" stroke-linejoin="round" stroke-width="1" fill-rule="evenodd"/>
      <path id="Path_303769" data-name="Path 303769" d="M207.9,159.9l-.252-3.316-3.081-.189c-.207,3.035-.057,6.116-.052,9.134.006,3.792-1,6.575,2.846,6.85,1.411-2.427.39-8.336.539-12.478Z" transform="translate(-87.2 -66.734)" fill="none" stroke="#636268" stroke-linecap="round" stroke-linejoin="round" stroke-width="1" fill-rule="evenodd"/>
      <path id="Path_303770" data-name="Path 303770" d="M203.747,40.316c-1.142.97.453.04-1.578.975-.442.2-.752.212-1.159.367.574-.143.866-.281,1.067-.338.166-.046,1.538-.43,1.83-.493-.4,4.028.711,6.942.706,9.093-.006,3.511.264.648-1.285,2.989l3.557-.648c-2.846-2.828-.275-10.838-2.473-14.4-2.851,1.52-.843.218-.671,2.461Z" transform="translate(-85.755 -16.208)" fill="none" stroke="#636268" stroke-linecap="round" stroke-linejoin="round" stroke-width="1" fill-rule="evenodd"/>
      <path id="Path_303771" data-name="Path 303771" d="M196.9,52.387a6.38,6.38,0,0,1-1.652,1.526l3.643-.516c-2.582-2.49-1-11.451-3.024-14.446-.321.3-1.067-1.038-.493,3.339.218,1.635.333,1.991.516,3.551.384,3.213.184,4.211,1,6.552Z" transform="translate(-83.263 -16.672)" fill="none" stroke="#636268" stroke-linecap="round" stroke-linejoin="round" stroke-width="1" fill-rule="evenodd"/>
      <path id="Path_303772" data-name="Path 303772" d="M186.162,55.023l2.811-.017c-2.151-3.557-1.658-11.951-3.534-14.6-.568.677-.5.029-.539,1.5l.993,6.07c.4,2.083,1.526,5.4.264,7.045Z" transform="translate(-78.888 -17.295)" fill="none" stroke="#636268" stroke-linecap="round" stroke-linejoin="round" stroke-width="1" fill-rule="evenodd"/>
      <path id="Path_303773" data-name="Path 303773" d="M215.706,51.018c2.2-.27,2.169-.241,1.572-6.225-.258-2.582.229-5.749-.62-8-1.733.734-1.061-.516-.677,6.122l.35,6.087C216.251,51.517,216.727,49.808,215.706,51.018Z" transform="translate(-91.943 -15.752)" fill="none" stroke="#636268" stroke-linecap="round" stroke-linejoin="round" stroke-width="1" fill-rule="evenodd"/>
      <path id="Path_303774" data-name="Path 303774" d="M188.5,182.524c1.87.011,3.706.224,5.485.258,4,.075,2.5.476,3.941-1.629-1.239-2.6,2.289-2.157-8.078-1.928a5.99,5.99,0,0,1-1.342,3.3Z" transform="translate(-80.422 -76.392)" fill="none" stroke="#636268" stroke-linecap="round" stroke-linejoin="round" stroke-width="1" fill-rule="evenodd"/>
      <path id="Path_303775" data-name="Path 303775" d="M244.25,45.489l2.14-.281c-.316-2.725.316-5.84.4-8.8.1-3.678-.339-2.5-.723-2.9C244.256,36.488,246.453,43.521,244.25,45.489Z" transform="translate(-104.187 -14.353)" fill="none" stroke="#636268" stroke-linecap="round" stroke-linejoin="round" stroke-width="1" fill-rule="evenodd"/>
      <path id="Path_303776" data-name="Path 303776" d="M147.674,46.36c-2.123-.413-.694-.826-3.494-.792.631,1.543,2.794,2.341,6.454,6.959l.574.6c.069.075.224.184.333.281a9.259,9.259,0,0,0-1.411-3.924c-.671-1.01-.333-.43-1.176-1.337L147.68,46.36Z" transform="translate(-61.53 -19.493)" fill="none" stroke="#636268" stroke-linecap="round" stroke-linejoin="round" stroke-width="1" fill-rule="evenodd"/>
      <path id="Path_303777" data-name="Path 303777" d="M254.336,44.038c1.767-.711,1.474.436,2.106-5.009a31.249,31.249,0,0,0,.459-6.609c-3.041,1.715-.321,8.153-2.57,11.618Z" transform="translate(-108.484 -13.889)" fill="none" stroke="#636268" stroke-linecap="round" stroke-linejoin="round" stroke-width="1" fill-rule="evenodd"/>
      <path id="Path_303778" data-name="Path 303778" d="M198.037,163.543l.2-3.523-6.317.419-.545,3.282Z" transform="translate(-81.646 -68.282)" fill="none" stroke="#636268" stroke-linecap="round" stroke-linejoin="round" stroke-width="1" fill-rule="evenodd"/>
      <path id="Path_303779" data-name="Path 303779" d="M186.789,197.234c.2.086.493,0,.591.281l2.932,1.922c.734.648.688-1.176.218.528,3.121,0,.534.235,1.779-1.268-.373-1.147.4-.367-1.1-1.956-.918-2.146-.694-.843-1.343-1.6-.361.017-2.461.052-2.685.1-1.842.442-1.044.052-2.02,1.136l1.635.855Z" transform="translate(-78.999 -83.253)" fill="none" stroke="#636268" stroke-linecap="round" stroke-linejoin="round" stroke-width="1" fill-rule="evenodd"/>
      <path id="Path_303780" data-name="Path 303780" d="M148.644,152.894c1.882-1.549,1.027-.947,3.666-.9l.011-3.276-2.9-.763C147.387,149.5,146.418,150.192,148.644,152.894Z" transform="translate(-62.89 -63.141)" fill="none" stroke="#636268" stroke-linecap="round" stroke-linejoin="round" stroke-width="1" fill-rule="evenodd"/>
      <path id="Path_303781" data-name="Path 303781" d="M207.225,153.09c.9-1.05.775.8.981-2.243l-.6-2.163c-5.307-1.767-4.079,1.859-4.1,2.725l2.094.769c2.042.74.688-.12,1.624.918Z" transform="translate(-86.772 -63.245)" fill="none" stroke="#636268" stroke-linecap="round" stroke-linejoin="round" stroke-width="1" fill-rule="evenodd"/>
      <path id="Path_303782" data-name="Path 303782" d="M281.8,39.323l2.691-1.245c.086-.333.2-.843.281-1.17.488-2.048,1.44-4.836,1.027-6.127-1.251.5-.746-.419-1.337,1.572-1.3,4.378.27,5.554-2.656,6.965Z" transform="translate(-120.194 -13.19)" fill="none" stroke="#636268" stroke-linecap="round" stroke-linejoin="round" stroke-width="1" fill-rule="evenodd"/>
      <path id="Path_303783" data-name="Path 303783" d="M275.684,245.313c1.262-2.559,1.147-.861.132-3.477C270.52,239.874,271.06,247.092,275.684,245.313Z" transform="translate(-116.029 -103.013)" fill="none" stroke="#636268" stroke-linecap="round" stroke-linejoin="round" stroke-width="1" fill-rule="evenodd"/>
      <path id="Path_303784" data-name="Path 303784" d="M272.3,281.425c-.66,2.513,1.365,2.8,3.133,2.53,1.813-2.478,1.061-.786.832-3.574C275.152,280.065,272.846,279.319,272.3,281.425Z" transform="translate(-116.088 -119.423)" fill="none" stroke="#636268" stroke-linecap="round" stroke-linejoin="round" stroke-width="1" fill-rule="evenodd"/>
      <path id="Path_303785" data-name="Path 303785" d="M295.276,37.068c.2-.293,2.048-4.928,1.515-6.368-1.216.419-.757-1.268-1.767,3.3-.43,1.951-.855,2.289.252,3.064Z" transform="translate(-125.638 -13.156)" fill="none" stroke="#636268" stroke-linecap="round" stroke-linejoin="round" stroke-width="1" fill-rule="evenodd"/>
      <path id="Path_303786" data-name="Path 303786" d="M303.01,35.3l2.392-.574c-.339-3.144.235-3.6,1.354-4.137l-1.606-.648c-1.423,5.33-.482,3.838-2.134,5.353Z" transform="translate(-129.235 -12.832)" fill="none" stroke="#636268" stroke-linecap="round" stroke-linejoin="round" stroke-width="1" fill-rule="evenodd"/>
      <path id="Path_303787" data-name="Path 303787" d="M315,33.345c2.347-.086,1.612-.407,3.488-1.01-1.767-.425-1.526-.367-2.4-2.065-.918,1.107.04-1.176-.849,1.388a4.464,4.464,0,0,0-.247,1.687Z" transform="translate(-134.342 -12.972)" fill="none" stroke="#636268" stroke-linecap="round" stroke-linejoin="round" stroke-width="1" fill-rule="evenodd"/>
      <path id="Path_303788" data-name="Path 303788" d="M211.44,169.756c3.781-.453,2.243.625,4.412-.935-3.1-.711-1.939.252-4.159-1.325,1.136-.838.109-.442,1.928-1.05.74-.247.734.046,1.664-.281l-3.746-.465Z" transform="translate(-90.201 -70.703)" fill="none" stroke="#636268" stroke-linecap="round" stroke-linejoin="round" stroke-width="1" fill-rule="evenodd"/>
      <path id="Path_303789" data-name="Path 303789" d="M178.946,290.608c-.6,1.176.511.665-.786,1.681l2.926-.143-.62-3.775-.052,1.951-1.474.287Z" transform="translate(-76.015 -122.995)" fill="none" stroke="#636268" stroke-linecap="round" stroke-linejoin="round" stroke-width="1" fill-rule="evenodd"/>
      <path id="Path_303790" data-name="Path 303790" d="M53.45,105.735c1.675.442.918.97,1.692-.786C53.645,103.939,53.817,103.83,53.45,105.735Z" transform="translate(-22.853 -44.501)" fill="none" stroke="#636268" stroke-linecap="round" stroke-linejoin="round" stroke-width="1" fill-rule="evenodd"/>
      <path id="Path_303791" data-name="Path 303791" d="M55,120.958l-.017.029c-.425-1.452.27-.763-.884-1.027-1.234.539-.941-.1-.654,1.52,1.107-.063.74-.04,1.549-.516Z" transform="translate(-22.743 -51.205)" fill="none" stroke="#636268" stroke-linecap="round" stroke-linejoin="round" stroke-width="1" fill-rule="evenodd"/>
      <path id="Path_303792" data-name="Path 303792" d="M179.176,290.608l1.474-.287.052-1.951-2,.224Z" transform="translate(-76.245 -122.995)" fill="none" stroke="#636268" stroke-linecap="round" stroke-linejoin="round" stroke-width="1" fill-rule="evenodd"/>
      <path id="Path_303793" data-name="Path 303793" d="M57.741,77.225c.252-.551,1.624-1.417-1.211-1.515C57.092,77.8,56.06,76.135,57.741,77.225Z" transform="translate(-24.166 -32.342)" fill="none" stroke="#636268" stroke-linecap="round" stroke-linejoin="round" stroke-width="1" fill-rule="evenodd"/>
      <path id="Path_303794" data-name="Path 303794" d="M54.749,128.2l.109-.706c-1.515-.166-.815-.585-1.578.4.551.608-1.073.9,1.469.316Z" transform="translate(-22.775 -54.319)" fill="none" stroke="#636268" stroke-linecap="round" stroke-linejoin="round" stroke-width="1" fill-rule="evenodd"/>
      <path id="Path_303795" data-name="Path 303795" d="M28.373,333.53c-.109.109-4.613,1.515-4.613,1.515l4.509,1.6-.608-1.618.706-1.5Z" transform="translate(-10.197 -142.245)" fill="#636268" fill-rule="evenodd"/>
      <line id="Line_608" data-name="Line 608" x2="29.438" y2="0.063" transform="translate(17.464 192.782)" fill="none" stroke="#636268" stroke-linecap="round" stroke-linejoin="round" stroke-width="0.5"/>
      <path id="Path_303796" data-name="Path 303796" d="M80.64,333.64c.109.109,4.613,1.515,4.613,1.515l-4.509,1.6.608-1.618-.706-1.5Z" transform="translate(-34.444 -142.292)" fill="#636268" fill-rule="evenodd"/>
      <path id="Path_303797" data-name="Path 303797" d="M45.123.19C45.014.3,40.51,1.7,40.51,1.7l4.509,1.6-.608-1.618.706-1.5Z" transform="translate(-17.337 -0.15)" fill="#636268" fill-rule="evenodd"/>
      <line id="Line_609" data-name="Line 609" x2="163.597" y2="0.063" transform="translate(27.08 1.532)" fill="none" stroke="#636268" stroke-linecap="round" stroke-linejoin="round" stroke-width="0.5"/>
      <line id="Line_610" data-name="Line 610" y1="68.967" x2="196.494" transform="translate(8.411 16.483)" fill="none" stroke="#636268" stroke-linecap="round" stroke-linejoin="round" stroke-width="0.5" stroke-dasharray="2.494 1.247"/>
      <path id="Path_303798" data-name="Path 303798" d="M331.79.3c.109.109,4.613,1.515,4.613,1.515l-4.509,1.6L332.5,1.8,331.8.3Z" transform="translate(-141.504 -0.197)" fill="#636268" fill-rule="evenodd"/>
      <path id="Path_303799" data-name="Path 303799" d="M17.555,80.873c-.109-.109-1.515-4.613-1.515-4.613l-1.6,4.509,1.618-.608,1.5.706Z" transform="translate(-6.224 -32.577)" fill="#636268" fill-rule="evenodd"/>
      <line id="Line_611" data-name="Line 611" x1="0.063" y2="27.149" transform="translate(9.77 47.59)" fill="none" stroke="#636268" stroke-linecap="round" stroke-linejoin="round" stroke-width="0.5"/>
      <path id="Path_303800" data-name="Path 303800" d="M17.445,129.15c-.109.109-1.515,4.613-1.515,4.613l-1.6-4.509,1.618.608,1.5-.706Z" transform="translate(-6.177 -55.123)" fill="#636268" fill-rule="evenodd"/>
      <line id="Line_612" data-name="Line 612" x1="0.063" y2="38.393" transform="translate(194.836 0.436)" fill="none" stroke="#636268" stroke-linecap="round" stroke-linejoin="round" stroke-width="0.5"/>
      <line id="Line_613" data-name="Line 613" x1="0.063" y2="61.887" transform="translate(23.115)" fill="none" stroke="#636268" stroke-linecap="round" stroke-linejoin="round" stroke-width="0.5"/>
      <line id="Line_614" data-name="Line 614" x1="17.137" y1="0.063" transform="translate(12.461 43.207)" fill="none" stroke="#636268" stroke-linecap="round" stroke-linejoin="round" stroke-width="0.5"/>
      <line id="Line_615" data-name="Line 615" x1="29.598" y1="0.063" transform="translate(0 78.594)" fill="none" stroke="#636268" stroke-linecap="round" stroke-linejoin="round" stroke-width="0.5"/>
    </g>
  </g>
</svg>
