<svg xmlns="http://www.w3.org/2000/svg" width="215.277" height="77.25" viewBox="0 0 215.277 77.25">
  <g id="Layer_x0020_1" transform="translate(24954.811 -46430.309)">
    <g id="_105553247346432" transform="translate(-24954.811 46430.309)">
      <path id="Path_303805" data-name="Path 303805" d="M21197.053,50974.789a7.966,7.966,0,0,1-1.766.164l-8.678,1.973c-.242.1-.408.137-.732.25a28.375,28.375,0,0,0-6.471,3.34,25.514,25.514,0,0,0-4.2,3.617l-2.371,3.145c-.018.027-.064.125-.082.16a25.2,25.2,0,0,0-1.908,3.961,27.324,27.324,0,0,0-1.057,4.8,14.017,14.017,0,0,0,.068,4.563,6.3,6.3,0,0,1,.082,1.02,17.78,17.78,0,0,0,2.047,5.746,15.9,15.9,0,0,0,1.652,2.316c.018.016.041.039.059.059l.836.957a.583.583,0,0,0,.057.063l1.686,1.559c.021.023.258.219.26.223a24.97,24.97,0,0,0,2.316,1.531,1.129,1.129,0,0,1,.3.18c.205.141.172.137.264.2a26.435,26.435,0,0,0,2.633,1.34c.143.07.49.258.635.313.453.184.969.281,1.467.469l.621.316c.973.359,1.488.391,2.359.664l8.129,1.563c.584.074,1.311.008,1.908.074l1.811.18a58.463,58.463,0,0,1,7.064.773l1.549.328c.016.008.592.227.691.25a21.545,21.545,0,0,1,3.672,1.246l.32.152c.078.043.221.117.318.172.2.105.475.254.639.344a4.621,4.621,0,0,1,2.516,3.441,7.883,7.883,0,0,1-1.812,4.871,11.4,11.4,0,0,1-4.252,3.559,15.464,15.464,0,0,1-3.432,1.02c-.221.051.059.023-.346.1a35.606,35.606,0,0,1-7.527.332,26.407,26.407,0,0,1-6.668-1.172l-3.029-1.164a.754.754,0,0,1-.08-.039l-.473-.246a.754.754,0,0,1-.08-.039l-1.119-.562c-.246-.156,0,0-.273-.2-.027-.02-.107-.082-.135-.1l-3.572-2.559a7.129,7.129,0,0,1-1.025-.883l-.24-.242-1.736-1.742a1.121,1.121,0,0,0-.559-.4.964.964,0,0,0-.777.105l-4.908,4.449c-.09.082-.184.16-.254.223l-3.475,3.133a14.659,14.659,0,0,0-2.344,2.227.685.685,0,0,0-.135.5l.861,1.23.064.063a.782.782,0,0,1,.063.055l.248.23c.018.016.043.039.061.059l.119.117c.018.02.043.043.061.063s.043.043.061.059l7.59,5.605c.023.016.049.039.07.055a.711.711,0,0,1,.068.047c.029.02.109.078.139.1l2.145,1.207a15.665,15.665,0,0,0,2.156.992l2.557,1.133c3.209,1.609,9.158,2.672,12.754,2.973,1.258.1,2.625.1,3.906.1s2.561,0,3.83-.082a32.205,32.205,0,0,0,5.211-.641c1.016-.246,2.174-.344,3.188-.664a24.589,24.589,0,0,0,2.955-1l5.215-2.687a.713.713,0,0,1,.063-.051l.2-.172a.4.4,0,0,0,.064-.055l.705-.508a5.278,5.278,0,0,0,.533-.422c.143-.121.359-.27.535-.422a.508.508,0,0,0,.063-.051l2.932-2.824c.359-.4.508-.68.865-1.062l2.746-4.105c.018-.035.063-.129.078-.164l.08-.156c.066-.137.115-.23.158-.32l.242-.477c.014-.027.027-.059.039-.086l.379-.812a19,19,0,0,0,1.334-4.434,22.912,22.912,0,0,0-.184-8.891,3.976,3.976,0,0,0-.227-.707,17.327,17.327,0,0,0-1.279-3.547c-.23-.465-.391-.953-.65-1.371-.248-.4-.543-.77-.748-1.184a9.455,9.455,0,0,0-1.672-2.16c-.316-.344-.643-.648-1.016-1.02a14.219,14.219,0,0,0-2.668-2.121c-.184-.113-.477-.23-.643-.324a17.37,17.37,0,0,0-2.572-1.395l-5.906-1.875c-1.105-.285-2.109-.34-3.223-.625a40.883,40.883,0,0,0-4.516-.426,3.523,3.523,0,0,1-.775-.129,33.419,33.419,0,0,0-3.893-.086c-1.3,0-2.551-.016-3.844-.055a12.191,12.191,0,0,1-2.963-.469l-3.525-.922a9.572,9.572,0,0,1-3.2-1.711c-.146-.133-.092-.1-.238-.238-.088-.082-.186-.164-.252-.227-2.625-2.359-1.687-5.824.6-8.129l.357-.363a10.56,10.56,0,0,1,3.637-2.242l2.262-.723a23.787,23.787,0,0,1,13.484.8c.539.184.986.426,1.391.547a19.578,19.578,0,0,1,3.178,1.629,21.7,21.7,0,0,1,4.906,3.969c1.625,1.629,1.426,1.422,3.244-.3l9.186-8.445c1.059-1.043,0-1.66-.682-2.281l-3.227-2.641c-.459-.277-.656-.492-1.119-.809-.229-.152-.3-.234-.574-.4l-1.148-.773a4.4,4.4,0,0,0-.678-.391l-5.271-2.547c-1.924-.625-3.932-1.336-5.963-1.836a61.585,61.585,0,0,0-6.729-1.066A52.066,52.066,0,0,0,21197.053,50974.789Z" transform="translate(-21016.898 -50974.656)" fill="#fff" fill-rule="evenodd"/>
      <path id="Path_303806" data-name="Path 303806" d="M-3313.722,51087.969a34.859,34.859,0,0,0,.07,4.426,7.229,7.229,0,0,1,.186.965l1.634,7.5c.124.371.169.527.26.813l.294.906a8.78,8.78,0,0,0,.378.824l2.677,5.367a27.938,27.938,0,0,0,2.162,3.227l2.883,3.348c.1.105.135.141.24.242l1.494,1.387a19.113,19.113,0,0,0,2.491,2.18c.021.012.05.035.071.051l.617.465a11.911,11.911,0,0,0,2.373,1.59,2.024,2.024,0,0,1,.378.227s.189.141.27.191l1.108.691c1.585.781,3.106,1.59,4.728,2.234a39.507,39.507,0,0,0,5.231,1.734c1.966.473,3.987.633,5.958,1a27.168,27.168,0,0,0,6.373.008,17.787,17.787,0,0,0,2.149-.141,7.7,7.7,0,0,1,.975-.152,37.75,37.75,0,0,0,10.021-2.676,6.849,6.849,0,0,1,.8-.285c.222-.082.582-.281.8-.391l3.485-1.918c.041-.023.179-.113.219-.141,1.262-.781,2.257-1.6,3.431-2.441l.42-.3c.138-.109.061-.043.2-.16.18-.148.155-.125.319-.277.018-.016.042-.043.059-.059l2.342-2.094a26.687,26.687,0,0,0,2.536-2.746l1.595-1.9a1.53,1.53,0,0,0-.052-1.187c-.229-.406-.713-.551-1.075-.836l-1.861-1.383c-.232-.2.023,0-.2-.16l-.641-.441c-.019-.016-.043-.043-.061-.059s-.1-.094-.125-.117l-.709-.488a.824.824,0,0,1-.064-.059l-5.009-3.746c-1.114-.758-1.89-1.906-2.913-.848l-4.155,4c-.1.078-.18.133-.272.207l-.191.164-.061.055a17.853,17.853,0,0,1-7.23,3.914l-3.9.754a14.287,14.287,0,0,0-1.7.145c-1.829.418-5.405-.09-7-.437-.687-.148-1.412-.406-2.093-.629l-1.626-.539c-.007,0-.447-.219-.489-.242-.332-.168-.555-.266-.879-.426l-2.081-1.168a.768.768,0,0,1-.078-.043.76.76,0,0,1-.077-.047l-.644-.418c-.023-.016-.055-.031-.077-.047l-1.176-.867c-.018-.02-.042-.043-.06-.062l-2.159-1.914c-.087-.086-.121-.121-.181-.18l-1.662-1.816c-.083-.105-.2-.293-.3-.418l-.371-.473a15.876,15.876,0,0,1-2.214-3.895,22.355,22.355,0,0,1-1.262-4.363,26.1,26.1,0,0,1-.326-4.551,17.082,17.082,0,0,1,.877-6.129,8.327,8.327,0,0,1,.428-1.371c.324-.617.48-1.418.813-2.074l.628-1.285a.8.8,0,0,0,.042-.078l2.182-3.34c.115-.145.139-.18.274-.332l.416-.414a2.195,2.195,0,0,0,.179-.18,1.649,1.649,0,0,0,.258-.34c.033-.043.229-.3.264-.34.08-.086.224-.211.311-.285l1.205-1.078c.123-.125.175-.18.3-.3l1.367-1.027c.433-.316.834-.578,1.348-.93a20.534,20.534,0,0,1,6.854-2.6c.38-.086.7-.1,1.028-.187a30.308,30.308,0,0,1,5.393-.3,21.127,21.127,0,0,1,9.415,2.273c.284.137.551.273.8.395l2.428,1.527a20.586,20.586,0,0,1,4.01,3.785l1.246,1.379c.205.129-.074.02.24.109a2.317,2.317,0,0,0,2.007-.437c.05-.035.153-.113.209-.148l4.032-3.16.066-.055,5.388-4.211c1.57-1.285,1.081-1.7-.309-3.117l-2.575-2.707a36.606,36.606,0,0,0-3.393-2.961c-1.026-.7-1.988-1.625-3.037-2.25l-4.01-2.352c-.326-.156-.457-.152-.791-.285l-2.483-1.133a37.194,37.194,0,0,0-3.666-1.215,43.572,43.572,0,0,0-9.339-1.352,41.328,41.328,0,0,0-12.41,1.527l-6.837,2.633a39.076,39.076,0,0,0-5.068,2.961l-1.165.879c-.13.1-.224.18-.336.262s-.24.164-.349.246l-2.264,1.93a32.784,32.784,0,0,0-3.938,4.336c-.176.234-.354.379-.538.66a5.7,5.7,0,0,1-.513.688c-.713.895-1.235,1.891-1.851,2.824-.364.551-.7,1.453-1.074,1.938a9.6,9.6,0,0,0-.895,1.977l-1.08,2.527a21.2,21.2,0,0,0-.882,2.691c-.125.707-.033.414-.3.914-.455.852-.459,2.621-.771,3.66l-.139,1.422a5.393,5.393,0,0,1-.173.988A23.4,23.4,0,0,0-3313.722,51087.969Z" transform="translate(3381.113 -51050.285)" fill="#e92c30" fill-rule="evenodd"/>
      <path id="Path_303807" data-name="Path 303807" d="M-23122.139,51542.945c-.178,2,.012,8.773.012,11.676a10.04,10.04,0,0,0,.289,3.676c.98.031,20.34-.07,20.607.105.613.875.32,5.348.32,6.895v47.742c0,4.762-1.586,3.57,9.395,3.57,1.553,0,3.129.031,4.68-.008,2.252-.047,1.994.121,1.994-2.6,0-6.141-.178-12.32-.164-18.473,0-1.527.018-31.754-.107-32.707a14.534,14.534,0,0,1,.129-4.426c1.172-.219,8.924-.18,10.262-.211,2.213-.051,7.184.031,9.127-.086a1.1,1.1,0,0,0,.871-.355c.193-2.043.033-8.766.033-11.637,0-1.094.268-2.707-.314-3.52-2.236-.176-4.912-.02-7.2-.02h-46.783C-23120.574,51542.566-23121.277,51542.41-23122.139,51542.945Z" transform="translate(23122.215 -51540.574)" fill="#fff" fill-rule="evenodd"/>
      <path id="Path_303808" data-name="Path 303808" d="M5322.338,56902a8.11,8.11,0,0,1,1.153.219l3.361.719a27.508,27.508,0,0,1,4.3,1.055l-.423.645c-1.089.969-3.975.645-5.152.262-.062-.016-.2-.062-.272-.086l-2.559-1.4c-.017-.02-.04-.043-.055-.062l-.054-.066A1.353,1.353,0,0,1,5322.338,56902Zm-1.008-4.109c-.662.258-.644,1.039-.664,1.664a2.325,2.325,0,0,1-.462,1.395l-.8,1.121a.8.8,0,0,0-.046.07.734.734,0,0,0-.042.078l-2.823,4.852c-1.222,1.6-2.093,4.531-.581,6.422l.388.445c2.025,2.023,5.43.012,6.558,1.477l.685,1.117a1.3,1.3,0,0,1,.109.25c.09.23.12.359.193.523a2.945,2.945,0,0,1,.333.852l.24.957c.193,1.273.1,3.363.408,4.52a7.769,7.769,0,0,0,.612,1.918l.884.9a2.93,2.93,0,0,0,2.6-.109,8.658,8.658,0,0,0,1.49-.914l.614-.578a.815.815,0,0,1,.06-.062l.54-.539c.016-.016.042-.039.058-.059l.726-1.1c.013-.023.029-.055.042-.078l.087-.141a2.655,2.655,0,0,0,.528-.906,9.69,9.69,0,0,0,.55-2.016l.274-1.5a5.9,5.9,0,0,1,.764-1.75l.24-.336c.014-.02.033-.051.046-.074s.031-.055.045-.078l1.02-1.742c.124-.215.12-.215.25-.477.064-.129.121-.238.2-.4.012-.023.03-.051.042-.074s.028-.055.04-.082c.058-.125.012.031.106-.258l.817-2.293c.247-.605-.02.086.068-.164l1.132-4.34c.482-.34.569-.582,1.255-.527l.56.684s.191.277.2.285l1.91,2.77a.58.58,0,0,0,.056.063.754.754,0,0,0,.636.152c.186-.262.1-.246.2-.473l.622-1.645a8.7,8.7,0,0,0,.2-2.734,10.827,10.827,0,0,0-.75-2.211c-.068-.113-.246-.363-.288-.43l-4.793-6.359a.766.766,0,0,0-.068-.051l-.9-.781a1.237,1.237,0,0,0-.4-.312l-.92-.641c-1.1-.762-3.513-2.266-4.666-2.094a.787.787,0,0,0-.7.406,1.377,1.377,0,0,0-.179.309c-.166.328-.275.852-.416,1.141l-.237.363c-.869.938-2.337.324-3.5.492-1.822.262-1.933,2.7-2.443,3.172-.172.156-.072.082-.3.2a1.4,1.4,0,0,1-1.147.008A2.949,2.949,0,0,0,5321.33,56897.895Z" transform="translate(-5218.418 -56871.957)" fill="#fff" fill-rule="evenodd"/>
      <path id="Path_303809" data-name="Path 303809" d="M3812.233,56774.32c2.439.012,4.716-2.656,6.962-3.387a6.653,6.653,0,0,1,2.3-.273c1.072.023,1.514.172,2.251-.457a.737.737,0,0,0,.063-.059l1.082-1.207c.9-1.023.306-1.219.11-1.57a6.875,6.875,0,0,0-2.156.273c-.256.055-.558.184-.885.277a20.815,20.815,0,0,0-6.741,3.109l-.538.418a12.434,12.434,0,0,0-2.339,2.23C3812.144,56774.074,3812.223,56773.875,3812.233,56774.32Z" transform="translate(-3720.624 -56747.66)" fill="#fff" fill-rule="evenodd"/>
      <path id="Path_303810" data-name="Path 303810" d="M2425.2,62005.367a21.154,21.154,0,0,0,.606,5.852c.084.332.084.66.162.934l1.541,3.73c.012.023.028.059.04.078s.028.059.04.082l.875,1.516c.285.438.129.344.442.543.9.582.821-1.4.954-2.082a9.919,9.919,0,0,0-.343-2.637c-.01-.027-.023-.059-.033-.086l-.031-.094a3.866,3.866,0,0,0-.3-.766l-3.475-6.477c-.15-.293-.065-.18-.228-.383Z" transform="translate(-2338.299 -61967.859)" fill="#fff" fill-rule="evenodd"/>
    </g>
  </g>
</svg>
