<svg xmlns="http://www.w3.org/2000/svg" width="187.408" height="194.462" viewBox="0 0 187.408 194.462">
  <g id="Layer_x0020_1" transform="translate(-0.02 -0.131)">
    <path id="Path_301229" data-name="Path 301229" d="M101.536,173.125c1.489-.436,4.407-2.947,5.737-3.982.9-.7,4.641-.451,6.576-.627a53.2,53.2,0,0,0,10.7-1.616,13.949,13.949,0,0,0,4.883-2.475l1.311-1.335,0,17.523-31.343-.02c.2-.338,1.769-.682,2.08-2.662a36.8,36.8,0,0,0,.052-4.806ZM50.045,60.628a1.47,1.47,0,0,1,1.76,1.023,1.539,1.539,0,1,1-2.974.787c-.231-1.021.3-1.564,1.215-1.811Zm-.387-.911a2.454,2.454,0,0,0,1.3,4.734,2.425,2.425,0,0,0,1.716-3.018A2.4,2.4,0,0,0,49.657,59.717Zm51.675,1.041c2.1-.967,2.963,2.029,1.378,2.719a1.554,1.554,0,0,1-2.123-1.979c.228-.65.259-.517.744-.74Zm.165-1.066a2.451,2.451,0,0,0,.986,4.8C105.579,64.031,104.81,59.036,101.5,59.693Zm-25.8,15.664a1.532,1.532,0,1,1,.343.2A26.456,26.456,0,0,1,77.5,73.116c-.442.113-.482.426-.934,1.113a3.651,3.651,0,0,1-.875,1.129Zm-1-2.885a4.616,4.616,0,0,0-.533,1.705,2.478,2.478,0,0,0,1.062,2.013c-.141.325-.74,1.042-.637,1.242.18.079.713-.858.832-1.079.94.219,1.69.462,2.592-.252,2.543-2.012-.155-6.167-3.317-3.629ZM77.96,48.309c-2.511.3-2.494-2.157-1.419-2.712l.466.721a8.282,8.282,0,0,1,.953,1.991Zm.493-.214c-.492-.257-.523-.486-.936-1.3a4.606,4.606,0,0,1-.648-1.381c1.612-.474,2.692,1.065,1.585,2.685Zm-2.485-3.955c.074.8.332.315-.134.794-3.109,3.195,2.591,6.412,3.874,2.743.5-1.443-.275-3.469-2.828-3.2C75.738,44.594,76.728,44.663,75.968,44.139ZM16.794,129.769l-.018.134.015,17.521-.013-.051,0,15.916c-.638-.183-.9-.582-1.387-.674a15.641,15.641,0,0,1,1.457,4.959l.377-.229c-.1-1.713.932-3.279,1.351-4.759-.459.173-.935.638-1.372.646l.007-39.866c.378.136.936.555,1.366.761-.193-1-.78-1.634-1.259-3.843-.082-.377-.119-.973-.4-1.226l-.02.11a21.382,21.382,0,0,1-1.5,4.91c.475-.077.88-.484,1.376-.675l.022,6.367ZM38.938,192.7l-.348.225.605.4c1.469-.089,3.077.875,4.413,1.264-.188-.529-.478-.822-.682-1.343l75.045.006,1.971-.012c2.557-.015.55,0,2.9.025l3.118.029c-.2.5-.45.729-.67,1.3.9-.264,1.714-.677,2.528-.939a13.341,13.341,0,0,0,2.53-.672c-.839-.319-1.828-.355-2.682-.649-.818-.281-1.554-.684-2.42-.908l.265.492.447.859-82.983,0,.044-.2.62-1.169L41,192.39c-1.211.069.062-.035-.654-.325-.416.445-.566.525-1.277.3l-.034-1.134c.592.211.164.5.655.706l0-.978c-.483-.134-.816-.086-1.029.464-.287.743.274.774.277,1.28ZM81.032,67.676c.049.3.065.187-.226.047-.3.661-.9,1.331-1.227,2-2.188-.864-4.746-5.562-4.538-9.227a11.271,11.271,0,0,1,1.615-5.258,9.472,9.472,0,0,1,3.28-3.353c.578.631,1.427,2.928,1.916,3.172-.036-.658-1.34-2.524-1.654-3.326l.582-.428a11,11,0,0,1,14.8,4.15,9.978,9.978,0,0,1,1.458,5.562c-.036.359-.022-.031-.029.317-.156,7.985-9.054,13.912-17.308,8.608l1.552-2.456c0-.02.008-.067.01-.085l-.044-.174a.129.129,0,0,0-.046-.091l-.137.548ZM76.38,68.722a9.973,9.973,0,0,1,1.553,1.63l.739.47c-.1.607-.161.227-.288.82.494-.276.054-.144.562-.527a22.1,22.1,0,0,0,2.684,1.4,24.817,24.817,0,0,0,3.43.817l.031,4.334c.389-.544.221-1.386.22-2.042q0-1.149-.006-2.3A12.342,12.342,0,0,0,97.157,66.4c.991-1.956.938-2.777,1.329-5.025l.67-.172c-.041-.011-.082-.022-.127-.031-.084-.016-.4-.016-.514-.02-.605-3.309-.48-5.291-3.156-8.445a13.372,13.372,0,0,0-9.986-4.162c-.2-1.062.04-3.5-.057-4.465l-.148-.526c-.318.689-.044,3.9-.124,4.975-3.045.926-1.88.038-5.455,1.831a14.344,14.344,0,0,0-2.518,2.173,8.227,8.227,0,0,0-.709.7c-2.109,2.62-2.358,4.867-2.71,7.9-.609.045-1.134-.087-1.473.217l1.483.026a16.09,16.09,0,0,0,.878,4.085,18.363,18.363,0,0,0,1.841,3.25Zm18.9,75.049a9.57,9.57,0,0,0-2.61.147A9.03,9.03,0,0,0,95.4,144l2.678-.038a13.587,13.587,0,0,1-1.133,5.366,12.863,12.863,0,0,1-19.132,5.323,4.272,4.272,0,0,1-.9-.651c-1.323-1.3-2.244-1.693-3.591-4.615a12.394,12.394,0,0,1-1.151-5.363l4.589-.06c-.579-.445-3.581-.141-4.584-.188a12.7,12.7,0,0,1,2.26-7.058l1.307-1.8c1.259.539,1.687,2.108,2.946,2.657-.4-.846-1.984-2.026-2.527-2.846.474-.8,2.615-2.047,3.756-2.564,1.1-.5,3.831-1.332,5.151-1.011.017.621.008,1.255.006,1.877,0,.914-.164,1.465.294,1.918l-.063-3.854a12.471,12.471,0,0,1,8.937,3.775c-.371.653-2.26,2.24-2.442,2.686.526-.2.278-.125.686-.594.2-.231.416-.433.628-.645a5.734,5.734,0,0,1,1.381-1.159,12.5,12.5,0,0,1,3.579,8.695l-2.8-.082ZM75.8,155.013c.568.212,1.617,1.139,2.473,1.6.736.394,2.3.885,2.8,1.2l.843.3,3.126.3.007,2.906.073,2.3c.324-.343.192-1.747.222-2.3l-.016-2.947,2.9-.234c.281-.253,3.848-1.141,5.983-3.055.441-.4.26-.342.754-.635.616.523,3.176,3.172,3.557,3.35l-3.306-3.55c2.639-3.132,4.159-5.6,4.238-10.273-.353-6.783-2.928-7.883-3.865-9.979-.168-.376-.01.1-.776-.545-.405-.344-.819-.622-1.289-.985a14.372,14.372,0,0,0-6.414-2.623,11.6,11.6,0,0,0-4.1.02c-1.336.22-2.627.81-3.633.959a31.469,31.469,0,0,0-1.944-3.951c0,.682,1.466,3.138,1.781,4.047-.308.284-1.67.9-2.687,1.68a13.344,13.344,0,0,0-5.287,7.988,14.233,14.233,0,0,0,2.435,12.014c.246.3.282.4.5.633.274.3.3.233.534.535-.28.605-1.131,1.176-1.631,1.68-.316.319-.46.6-.784.91a3.5,3.5,0,0,0-.8.814c.975-.584,2.543-2.641,3.536-3.1l.771.944ZM85.167,41.7a2.2,2.2,0,0,0,.172-1.11,20.545,20.545,0,0,1,12.149,3.476l2.812,2.281a20.6,20.6,0,0,1,6.138,14.569,20.159,20.159,0,0,1-6.207,14.643A19.936,19.936,0,0,1,85.3,81.319c.007-.552.177-1.523-.2-1.925l-.013,1.914a19.693,19.693,0,0,1-11.737-4.474,19.02,19.02,0,0,1-3.138-3.086c-4.856-6.179-5.724-13.386-2.848-20.876a22.973,22.973,0,0,1,3.906-5.994,22.793,22.793,0,0,1,2.661-2.291c2.582-2,7.812-4.189,10.953-3.938a.534.534,0,0,1,.054.116l.146.483c.052.234-.066.078.083.453ZM70.937,76.583c.253-.124.166-.119.107.16.4.137.684.514,1.326,1.069a20.384,20.384,0,0,0,4.61,2.882,23.665,23.665,0,0,0,8.044,2l.088,2.03c.353-.35.21-1.457.2-2.027,5.173,0,10.631-1.55,14.405-4.833a17.647,17.647,0,0,0,1.512-1.312,25.544,25.544,0,0,0,2.522-2.989,21.7,21.7,0,0,0,2.115-21.615A21.883,21.883,0,0,0,85.388,39.2c-.219-.787.219-2.247-.221-2.819l-.119,2.857A21.724,21.724,0,0,0,69.007,74.395l1.93,2.188Zm-3.431,95.956c5.914,3.321,10.225,4.773,17.379,4.967l.25.479.315-.481c6.334-.142,9.285-1.222,14.727-3.525,0,1.629.344,3.912-.718,4.872-.975.882-3.57.466-5.1.481-3.766.038-7.544,0-11.312.007-3.72.007-7.448,0-11.17,0-1.809,0-3.689.315-4.283-1.3a32.284,32.284,0,0,1-.087-5.5Zm17.574,1.537c-2.482.437-2.537-2.264-1.274-2.817a1.52,1.52,0,0,1,1.526,2.627c-.015-.516.075-.916-.164-1.249a3.948,3.948,0,0,0-.087,1.439ZM38.027,157.158c.063,1.511,1.4,4,2.355,5.251l1.249,1.428c2.3,2.588,4.064,2.827,6.606,3.907-1.655.127-5.658.021-7.752.023-.549,0-2.231.213-2.454-.172C37.99,167.523,37.935,157.865,38.027,157.158Zm67.891,8.516c-1.816,1.079-3.244-.805-2.223-2.1s3.335-.342,2.5,1.8c-.618-.246-.906-1.122-1.6-1.318.11.431,1,1.207,1.322,1.616Zm-42.835-.755c-.688-2.527,1.5-3.072,2.421-2.042,1.008,1.132.115,3.136-2,2.374.164-.814,1.171-1.063,1.688-1.935-.375.013-.154-.224-1.021.757-.415.47-.483.693-1.092.846Zm43.508,1.413.759.764a25.188,25.188,0,0,1-4.25,3.521,31.9,31.9,0,0,1-17.766,5.519l-.007-1.111c.5-.416.67-.272,1.118-.842a2.545,2.545,0,0,0,.055-3.037c-.39-.606-.61-.467-1.17-.929l0-.954a25.1,25.1,0,0,0,15.618-5.6c.564-.456,1.125-1.025,1.672-1.421a2.843,2.843,0,0,0,.515.425,3.94,3.94,0,0,0-.693,1.9,2.423,2.423,0,0,0,2.519,2.43,2.781,2.781,0,0,0,1.628-.661Zm-42.659-8.5c.617.615,1.94,2.866,2.878,3.431-.19.665-.276.314-.415.847l.674-.428,1.655,1.508c5.115,3.965,9.068,5.82,16.3,6.072l.062.811c-.048.015-.1-.013-.124.029-.075.155-1.085-.162-1.965.624a2.287,2.287,0,0,0-.917,1.756c-.069,1.815,1.284,2.67,2.977,2.556l.006,1.125c-5.332-.38-8.911-.85-13.331-2.968a31.693,31.693,0,0,1-9.563-6.8l.527-.532c1.266.448,2.321,1.014,3.507-.194,2.116-2.154-1.078-5.8-3.529-3.53-1.507,1.4-.284,3.161-.118,3.567-.406.222-.316.258-.8.5-.121-.371-4.991-5.916-5.093-7.546-.855-.71-2.41-5.707-2.62-6.517A32.916,32.916,0,0,1,53,144.009c1.468-.066.62.167,1.41,1.112a2.379,2.379,0,0,0,1.513.872,2.3,2.3,0,0,0,2.726-2l1.275-.016c-.175,7.994,3.539,12.287,4,13.864Zm52.059-5.093-.355,1.4c-.014.034-.03.072-.045.1l-.183.3a30.724,30.724,0,0,1-2.077,4.735,6.329,6.329,0,0,1-.438.914l-.308.526-.059.087a1.568,1.568,0,0,1-.2.258,33.1,33.1,0,0,1-4.7,5.864,5.13,5.13,0,0,1-.79-.808c.527-1.216.941-2.242-.213-3.342-1.136-1.083-2.083-.757-3.385-.175-.159-.294-.224-.317-.376-.584.456-.567.923-1.039,1.462-1.638a25.175,25.175,0,0,0,6.027-15.613l.137-.754.566,0c.1.4.118,2.866,2.542,2.825,2.4-.04,2.241-2.091,2.548-2.812l1.108-.014c-.068,2.256-.432,7.059-1.252,8.728Zm-2.1-8.825c.41.167.717-.045,1.213.283a1.529,1.529,0,1,1-.172-.493Zm-59.123-.283a1.528,1.528,0,0,1,2.908-.761c.409.817.1.744-.289,1.044.406.193.615-.051.165.623a1.6,1.6,0,0,1-2.693-.34c.162-.141,0-.057.331-.188.042-.017.3-.067.394-.094-.028-.016-.078-.057-.092-.029s-.074-.023-.094-.029-.163-.047-.2-.06l-.427-.165Zm66.235.406,2.65-.027,2.527-.033c.479.186,3.7,5.419,4.071,7.147.791.939.492,3.8.5,5.233.01,2.212.238,3.29-.665,5.115l-.208.331c-1.14,1.854-3.045,3.033-5.744,3.777l-.78.211c-3.813,1.336-9.933,1.092-14.154,1.584.307-.452.786-.906,1.1-1.3.406-.507.711-.773,1.163-1.378l2.108-2.93.64-1.109c.012-.017.04-.054.061-.081l.451-.945c.265-.406.257-.67.641-.964a8.8,8.8,0,0,1,.912-2.24,4.094,4.094,0,0,1,.62-1.559l.173-.787.5-1.508.857-4.7c.042-.755.124-1.507.148-2.259.04-1.275-.185-1.37.364-1.717l.2-.1c-.509-.025-.222.1-.532-.162-.083-1.565-.146-2.966-.356-4.5-.2-1.44-.627-2.784-.826-4.111a18.224,18.224,0,0,1,2.291,1.927,24.007,24.007,0,0,1,2.223,2.16,14.458,14.458,0,0,0,1.059,1.063l3.014,3.6-4.648.019c-.583.107-.338-.195-.363.252ZM104.4,125.1c-1.374-1.173.319-3.347,1.938-2.356,1.426.873.544,3.312-1.688,2.671.379-.67.9-.938,1.175-1.441-.7.408-.752.877-1.425,1.126Zm-38.5-.422a1.537,1.537,0,0,1-2.009-2.32,1.558,1.558,0,0,1,2.622.937,1.232,1.232,0,0,1-.056.618l-.373.527c-.388-.3-.562-.685-.986-.843.1.509.519.732.8,1.08Zm50.527,12.181a33.2,33.2,0,0,1,.8,6.884l-1.233.029c-.376-.661-.728-1.821-2.4-1.833a2.367,2.367,0,0,0-2.361,1.86l-.874-.028-.264-3.245a25.1,25.1,0,0,0-5.49-12.507,17.911,17.911,0,0,1-1.219-1.491l.515-.5c1.054.327,2.27.925,3.278-.255.917-1.072.808-1.88.325-3.2l.858-.718,2.6,3.071a32.616,32.616,0,0,1,5.466,11.937ZM106.8,143.99l2.11.031c.4,2.8-1.1,7.706-2.118,9.929a24.87,24.87,0,0,1-4.914,7.063c-1.022-.636-1.433-1.828-2.271-2a12.259,12.259,0,0,0,1.96,2.153c-.11.3.139.062-.261.293a15.777,15.777,0,0,1-2.7,2.262,17.628,17.628,0,0,1-3.351,1.847c-2.015,1.307-6.863,2.276-9.808,2.292l-.13-.3a6.023,6.023,0,0,0-.153-2.081l-.112,2.352c-4.18.443-9.646-1.7-13.1-3.907a12.109,12.109,0,0,1-1.614-1.226l-.774-.64a3.854,3.854,0,0,1-.761-.819c-.257-.061-.347.031-.712-.642.544-.655,1.91-1.476,2.154-2.266a7.885,7.885,0,0,0-2.3,2.133l-.515-.608c-1.516-.937-3.555-4.869-4.32-6.619a23.166,23.166,0,0,1-1.848-9.227l1.373-.051c-.321-.248-.821-.158-1.366-.18a22.88,22.88,0,0,1,4.225-13.3l1.9-2.483c.17-.214.479-.457.8-.78.573.083.086-.174.533.241-.1-.788-.675-.178.932-1.587a20,20,0,0,1,5.5-3.47,9.6,9.6,0,0,0,1.53,2.894L75.333,122.3c1.984-1.3,6.981-2.129,9.552-2.123l.283.41.225-.431a23.871,23.871,0,0,1,13.489,4.385,11.341,11.341,0,0,1,3.2,2.952l.075.08c.108.083.394.05,1.1.941,3.433,4.347,5.844,9.355,5.714,15.268-.4,0-.794,0-1.189,0-.1,0-.467.007-.548.023-.388.078-.211,0-.431.184ZM66.5,125.378l.785.693c-.564.808-1.675,1.884-2.816,3.506-3.08,4.376-4.289,8.586-4.565,14.213l-1.039.005c-.318-.635-.406-2.845-2.807-2.641a2.379,2.379,0,0,0-2.146,2.027c-.169.849.147.631-.927.61.41-5.049.681-8.459,2.931-13.142a33.192,33.192,0,0,1,2.867-5.052c.607-.829,1.161-1.465,1.735-2.224l2.023-2.134a1.611,1.611,0,0,1,.275.2c.142.106.172.148.311.246-.605,1.3-1.062,2.113.013,3.4a2.45,2.45,0,0,0,3.359.3Zm-9.916,36.355c.277.166,1.881,2.6,2.3,3.095.28.333.352.433.569.7l1.937,2.226c-4.546-.089-12.607-.408-15.778-2.611a7.446,7.446,0,0,1-2.111-1.334,12.115,12.115,0,0,1-4.02-6.445,25.71,25.71,0,0,1-.434-2.987c-.293-2.57-.221-7.683-.213-10.3l2.614-.113c-.028-.069-.075-.118-.09-.09s-.072-.03-.094-.034c-.746-.161-1.646.016-2.423-.12-.016-3.387-.211-10.955.189-14.3a6.865,6.865,0,0,1,1.058-3.306,3.931,3.931,0,0,1,.7-.847,6.849,6.849,0,0,1,1.855-1.114,83.489,83.489,0,0,1,9.007-2.725c3.52-.776,6.558-1.105,10.25-1.626-.3.5-2.282,2.483-3.043,3.448a33.324,33.324,0,0,0-7.224,20.5c-.544.047-1.035-.053-1.338.156l1.343.1c.036,10.881,4.361,15.555,4.947,17.72Zm28.488-44.9a1.519,1.519,0,0,1,.363-3.015,1.54,1.54,0,0,1-.112,3.077c-.019-.311,0-.545-.01-.843-.017-.755-.012-.6-.15-.781l-.092,1.562Zm-31.1-3.09,6.356-2.85,3.3,7.292-7.753.025C55.468,116.99,54.14,114.833,53.978,113.74Zm61.009,3.212-.143.384a3.162,3.162,0,0,1-.749,1.5l.037.051-.135.315-2.1,4.628c-.335-.361-2.006-2.3-2.107-2.512a7.906,7.906,0,0,1-1.195-1.115,5.091,5.091,0,0,1-1.117-1.153c-.413-.186-.319-.264-.775-.617l3.255-7.133c1.964-.214,4.651,2.021,6.522,2.421l-.189.483a14.077,14.077,0,0,1-1.31,2.745Zm-29.65-4.142-.031-.9c6.831-.208,13.064,2.362,18.352,5.881L108.1,121.5c-.192.362-.05.165-.344.477-.123.131-.221.188-.388.342-1.19-.577-2.2-1.32-3.577-.074a2.4,2.4,0,0,0-.755,1.744c-.023,1.1.46,1.208.679,1.834l-.57.524c-.532-.319-.4-.376-.782-.744a25.664,25.664,0,0,0-17.067-6.789l.02-.909c.585-.294,2.455-.428,2.469-2.545.014-2.147-1.837-2.268-2.446-2.545Zm-4.08,6.249-1.227.256a34.571,34.571,0,0,0-5.184,1.679c-.029-.017-.067-.088-.077-.064l-.457-.427c.09.927.762.361-1.363,1.444-2.553,1.3-3.671,2.665-5.434,3.959-.316-.208-.407-.388-.726-.633.236-.635.573-.726.613-1.717a2.412,2.412,0,0,0-2.313-2.545c-.866-.042-1.257.387-1.838.547l-.5-.531a4.839,4.839,0,0,1,.7-.681l1.523-1.3c.8-.678,3.3-2.611,4.155-2.746a4.055,4.055,0,0,1,1.565-.942l.764-.394a8.01,8.01,0,0,1,.8,1.573c.236.434.569,1.08.85,1.545l.3.846c.232-.275.205.074.094-.413l-.442-1.09a14.4,14.4,0,0,1-1.3-2.614l1.531-.642,1.164-.349,1.982-.744.692-.118,1.726-.44a30.672,30.672,0,0,1,6.218-.628l.015.919c-.694.4-.9.237-1.478.839a2.364,2.364,0,0,0-.053,3.327c.639.655.832.477,1.523.925l.017.908-3.83.25Zm11.7-7.662c.492-.32,14.875-.125,15.467-.136a44.667,44.667,0,0,1-2.132,4.716,5.51,5.51,0,0,1-.765,1.486,11.658,11.658,0,0,1-1.321-.924,26,26,0,0,0-4.458-2.612,34.33,34.33,0,0,0-4.963-1.962,8.061,8.061,0,0,1-1.828-.567Zm24.739-.152,1.527,0,33.992.015c-.048.879-.715,3.6-1.377,4.22l-.1.731,1.159-.575.209-.066,0,60.441-.162.023-1.181-.67a17.233,17.233,0,0,0,.886,2.454,19.211,19.211,0,0,1,.64,2.8l-15.383-.046-.062.009-6.865.015.01-14.627c0-1.6-.27-3.287.54-4.336l.167-.351c.17-1.074.6-2.031.74-3.364a16.116,16.116,0,0,0,.008-3.981c-.528-3.637-1.676-4.553-2.189-6.3l-.155-.334c-.022-.022-.054-.091-.062-.07L128,144c1.18.007,4.393.232,5.262-.078a2.466,2.466,0,0,0-1.144-.146c-.429,0-.853.006-1.283,0l-.984-.011-2.145.057a16.05,16.05,0,0,0-1.81-2.452,29.451,29.451,0,0,1-1.988-2.273,1.824,1.824,0,0,1-.4-.463l-4.324-3.986c-.449-.436-1.051-.823-1.521-1.252-.936-.742-.959-.477-1.433-1.738a33.94,33.94,0,0,0-3.411-6.4c.7-2.283,5.168-10.793,5.469-12.164a33.561,33.561,0,0,1-3.9-1.81l3.3-.036Zm-24.532-.212c-.03-.378,4.891-10.993,5.152-11.216a27.732,27.732,0,0,1,3.117,1.387l9.6,4.381a14.483,14.483,0,0,1-.848,1.969c-.362.715-.576,1.318-.927,2.046-.908,1.887.243,1.443-4.434,1.438-3.875,0-7.789.055-11.656,0Zm-17.615-7.244,2.049-.812,2.451,7.844-1.187.233-3.314-7.265Zm16.029,7.226-1.054,0,2.5-7.934,1.773.78-3.221,7.148Zm19.862-9.311,10.568,4.66c.585.286.883.745.42,1.41-.763,1.1-1.878.339-2.981-.109l-6.079-2.689a23.327,23.327,0,0,0-3.118-1.263,7.8,7.8,0,0,1,1.19-2.008Zm-52.433.034a9.164,9.164,0,0,1,1.162,1.937c-.922.254-2.029.865-2.985,1.244L51.1,107.592c-.392.174-3.365,1.805-3.277-.434.033-.839.547-.72,2.013-1.4,1.049-.487,2.1-.893,3.045-1.331l6.13-2.689Zm30.183,8.886-3.872-.072c-.012-.617.144-2.059-.152-2.455l-.1,2.459-3.634.086c-.425-1.257-.8-2.492-1.211-3.775a37.908,37.908,0,0,1-1.193-3.85c.717-.266,5.484-4.077,5.781-4.122.356-.053.147-.12.353.181l.285-.511,4.6,3.423a6.981,6.981,0,0,1,1.5,1.21l-2.359,7.427Zm-12.011.239c.2.184.056-.025.211.247.006.011.087.226.1.257l-1.681.492-4.6,1.689c-.58.366-1.451.693-2.158,1.127L64.9,117.314a1.034,1.034,0,0,1-.1.053l-5.455-11.784c1.086-.313,5.42-2.539,6.305-2.794.227.55.559,1.168.821,1.719l.641,1.327c.212.337.019.22.375.35l-1.68-3.6,6.327-2.82c.435.607,4.993,10.645,5.041,11.094Zm35.046-10.5a6.561,6.561,0,0,1,1.078-1.752l8.933,4c.462.216,2.657,1.078,2.82,1.442a1.2,1.2,0,0,1-.656,1.5c-.84.311-1.115-.352-3.073-1.176s-7.893-3.309-9.1-4.013Zm-54.946-1.8c.228.725.676,1.112.905,1.878L47.843,104.9c-.4.2-1.509,1.485-2.331.192-.864-1.358.927-1.7,1.921-2.165.533-.251,1-.439,1.573-.69.52-.226,1.11-.543,1.647-.751,1.853-.719,5.048-2.42,6.627-2.925Zm56.8-1.21a5.97,5.97,0,0,1,1.093-1.875c2.037.828,4.189,1.9,6.247,2.85.995.461,5.555,2.419,6.149,2.863.42,3.09-2.686.9-2.692.9l-7.239-3.222A25.879,25.879,0,0,0,114.084,97.351ZM56.352,97.3c-2.258.873-4.571,2.019-6.872,3.012-1.158.5-2.289,1.043-3.433,1.521a4.023,4.023,0,0,0-.858.41c-.352.248-.263.309-.646.493a1.217,1.217,0,0,1-1.6-.466c-.684-1.2.689-1.594,2.284-2.26l6.715-3.039a27.322,27.322,0,0,1,3.426-1.486l.981,1.814Zm50.763-1.425,1.127.532a13.757,13.757,0,0,0-.962,1.777l-.872-.377.707-1.933Zm-43.864.009A4.143,4.143,0,0,1,63.9,97.9c-.606.016-1.007-1.227-1.168-1.8Zm11.071-.99c.823-.352,1.6-.746,2.447-1.09.4-.164,1.98-1.023,2.347.36.352,1.326-.74,1.5-1.645,1.9l-4.91,2.031c-.809.294-1.58.818-2.436,1.053l-.706-2.031,4.9-2.219Zm26.037,4.279c-.962-.286-1.779-.907-2.659-1.151a17.316,17.316,0,0,1-2.535-1c-2.033-.86-4.5-1.453-3.787-3.015.459-1.01,1.423-.6,2.311-.188,1.71.793,6.422,2.691,7.366,3.315l-.7,2.04Zm15.573-4.97a14.739,14.739,0,0,1,1.08-1.844c1.7.576,12.9,5.885,13.047,6.153.354.664-.4,2.436-2.075,1.176a40.286,40.286,0,0,0-4.508-2.13c-1.64-.678-6.376-3.019-7.544-3.355ZM53.5,92.385l.978,1.784c-3.615,1.733-7.584,3.354-11.3,5.069-.709.327-1.07.919-1.829.875-.9-.053-1.2-.8-.961-1.736L53.5,92.385Zm54.874-.016,1.788.825a12.238,12.238,0,0,1-1.11,1.841l-1.38-.639.7-2.027ZM62.728,94.451l-1.316.575-1.141-1.86c.823-.294.473-.121,1.064.307l-.176-.693.88-.354.689,2.027Zm10.789,4.772a21.286,21.286,0,0,0,2.528-1.051c1.729-.759,3.8-1.248,4.322-2.733a2.637,2.637,0,0,0-.511-2.635c-.067-.074-.292-.264-.311-.288-.194-.235-.1.094-.163-.264-.117-.706.6-.393,2.093-.3A58.339,58.339,0,0,0,88.4,92c3.688-.3,1.918-.327,2.682.166-.173.768-1.368.933-1.181,2.648.311,2.863,5.424,3.095,7.015,4.574l-1.573,3.193-5.416-2.449c-.968-.461-4.083-3.036-4.609-3.286-.009-.57-.01-1.142-.007-1.712,0-.227.02-.648,0-.853l-.106-.436a.14.14,0,0,0-.044-.087,11.17,11.17,0,0,0-.067,3.285c-1.343.628-2.766,2.241-4.759,3.167l-5.353,2.4-1.471-3.383Zm45.792-7.535a13.208,13.208,0,0,0,.979-1.719c.77.176,9.09,4.124,10.107,4.611.82.392,3.041.924,2.065,2.31a1.2,1.2,0,0,1-1.72.192,44.529,44.529,0,0,0-4.869-2.341l-4.948-2.263a10.057,10.057,0,0,1-1.613-.79ZM68.142,93.566a46.456,46.456,0,0,0,4.748-2.079c2.811-1.357,2.352-.136,5.131.021-.266.429.062.022-.245.309l-4.334,1.922a45.464,45.464,0,0,1-4.589,1.97l-.712-2.143ZM51.128,91.791a31.68,31.68,0,0,0-3.447,1.5c-2.149.93-6.211,2.769-8.14,3.888a1.167,1.167,0,0,1-1.7-1.414c.141-.339.35-.357.765-.526,3.239-1.317,8.135-3.948,11.464-5.293a12.736,12.736,0,0,1,1.053,1.848ZM92.3,91.524a27.717,27.717,0,0,1,2.8-.751c.742-.211,1.644.325,2.384.663a51.12,51.12,0,0,0,4.868,2.167l-.738,2.118A96.524,96.524,0,0,1,92.3,91.524ZM56.04,89c.431.451,3.6,5.83,3.848,6.257.623,1.062,3.445,5.561,3.675,6.273a22.639,22.639,0,0,1-2.348,1.278,24.2,24.2,0,0,0-1.806-3.123l-5.569-9.394Zm50.82,12.576a23.976,23.976,0,0,1,1.84-3.265c.663-1.085,1.216-2.007,1.86-3.086l2.817-4.677a8.236,8.236,0,0,0,.855-1.566,9.345,9.345,0,0,1,2.327,1.35,2.552,2.552,0,0,1-.438.833l-5.145,8.569a28.449,28.449,0,0,1-1.911,3.049c-.792-.355-1.391-.87-2.2-1.207ZM59.286,89.664a9.823,9.823,0,0,1,.906,1.944L59.4,91.9c-.152-.315-.29-.555-.488-.917a5.768,5.768,0,0,1-.54-1l.91-.319Zm49.69,1.345a4.85,4.85,0,0,1,.8-2.009l2.265,1.02a6.7,6.7,0,0,1-1.151,1.868ZM97.66,89.9c.6-.383,2.423-1.247,2.888-1.106a28.232,28.232,0,0,1,3.046,1.407l-.654,2.083A41.14,41.14,0,0,1,97.66,89.9Zm-30.828.315a29.507,29.507,0,0,1,3.007-1.374c.614-.146,2.694,1.044,2.846,1.164l-5.051,2.219a15.526,15.526,0,0,1-.8-2.009ZM60.884,89.3c.016.031.034.069.049.1l.223.622c.113.324.235.687.34.97l-1.079.457c-.265-.694-.673-1.256-.866-1.96l1.154-.479a1.036,1.036,0,0,1,.178.288Zm60.278-.612a21.413,21.413,0,0,1,1.057-1.88l9.723,4.532c.978.457,2.326,1.021,3.135,1.506.192.939-.019,1.708-.991,1.756-.672.033-1.169-.577-1.834-.873l-7.367-3.383a27.443,27.443,0,0,0-3.723-1.658Zm-71.9-.027c-1.14.32-10.874,4.9-12.108,5.69A1.185,1.185,0,0,1,35.392,94c-.724-1.367,1.566-1.914,2.469-2.343,1.2-.571,2.223-1.059,3.445-1.637l6.9-3.169a12.081,12.081,0,0,1,1.053,1.814Zm62.441-.4a6.359,6.359,0,0,1-1.467-.763c.274-.606-.106-.506,1.406-.034,1.71.534,2.134,1.864.061.8Zm-54.394-.081a9.5,9.5,0,0,1,2.781-1.077c.122.6.234.481-1.039,1.009-.51.212-1,.464-1.483.612Zm44.674-.4a15.087,15.087,0,0,1,1.46-.972c.616-.422.722-.539,1.417-.011l-.663,2.052-1.788-.779a1.014,1.014,0,0,1-.269-.161l-.157-.13ZM63.655,85.7l5.12,13.845-2.272.812L61.365,86.5Zm2.651,3.106-.715-2.075c.641-.235.949.169,1.5.462.491.261.9.31,1.243.739Zm40.457-3.163,2.348.875-5.089,13.91-2.434-.812,5.175-13.973ZM124.052,83.8c.548.037,13.493,6.191,13.571,6.339.135.945-.22,1.7-1.129,1.713-.569.005-1.247-.678-1.843-.954-3.239-1.5-8.836-4.223-11.623-5.375l1.024-1.723ZM35.416,91.053c-.293.158-1.745,1.646-2.506.2-.715-1.357.712-1.481,2.556-2.413,1.437-.726,10.066-4.91,10.946-5.056l.973,1.728L35.416,91.053Zm78.32-8.2.544.266a5.654,5.654,0,0,1-.584,1.1c-.524.924-.455.683-.737.585l.778-1.947Zm11.175-.433c.265-.714.764-1.089.9-1.8a23.726,23.726,0,0,1,3.732,1.664c1.722.909,10.322,4.731,10.561,5.165.271.932-.173,1.728-1.2,1.655-.732-.052-.466-.358-1.961-1.054-3.078-1.432-9.358-4.535-12.032-5.631Zm-91.772,5.8c-.614.273-2.082,1.657-2.76.323-.67-1.316.709-1.6,2.875-2.62l11.222-5.309,1.035,1.75L33.139,88.22Zm26.184-2.453-1.41-3.88,4.276,2.595c.335.252.065.041.24.18l-3.106,1.106Zm55.7-6.369,1.162.609a11.171,11.171,0,0,1-1.067,1.827l-.889-.467.794-1.97ZM55.333,81.78a5.535,5.535,0,0,1-1.071-1.857c.738-.078.223.312.934.822a3.224,3.224,0,0,1-.24-.81c.779.563.956.316,1.257,1.527l-.879.318Zm71.447-2.5a9.4,9.4,0,0,1,1.09-1.76c1.194.427,2.772,1.292,4,1.88l9.936,4.765c1.962.883.548,3.039-1.291,1.727-1.015-.725-13.138-6.189-13.733-6.612Zm-83.112.09c-.707.194-13.079,6.014-13.913,6.593-.658.457-1.4.558-1.86-.165-.813-1.267.862-1.7,2.952-2.7,1.268-.605,2.611-1.228,3.923-1.876,1.335-.659,2.594-1.251,3.937-1.877,1.183-.552,2.667-1.421,3.907-1.85l1.055,1.876Zm72.988,2.574c.325-.6.587-.971.963-1.58l3.889-6.356a32.805,32.805,0,0,1,4.976,3.029c-.533,1.11-1.325,2.216-1.959,3.3-.545.929-5.271,9.012-5.845,9.6l-4.956-3,2.933-4.991Zm-.954-4.409a13.967,13.967,0,0,1,.574-1.561c.689.194,1.071.693,1.843.785l-.121.285c-.131.262-.308.545-.465.817l-.557.806-1.471-.607.2-.525Zm-71.81-.464c.227-.284.087-.125.388-.347l3.136-1.882c.584.412,1.105.769,1.635,1.129l1.6,1.076a17.987,17.987,0,0,1,2.068,3.169c.68,1.21,3.686,5.854,3.952,6.719a42.719,42.719,0,0,1-5.092,3.026c-.165-.649-4.99-8.413-5.77-9.759a26.643,26.643,0,0,0-1.921-3.131Zm83.335-1.59a8.027,8.027,0,0,1,.97-1.79l8.941,4.248c1.353.7,3.02,1.493,4.464,2.191,2.133,1.031,4.18,1.444,3.492,2.826-.571,1.149-1.713.4-2.26.049l-15.607-7.525ZM27.6,82.967c-.531.324-1.53,1.257-2.207.106-.65-1.106.344-1.5,1.146-1.881,2.214-1.061,14.791-7.251,15.639-7.486a10.48,10.48,0,0,1,1.074,1.745L27.6,82.967Zm89.259-8.475a5.233,5.233,0,0,0,.561-1.979,18.412,18.412,0,0,1,2.527,1.191l-.982,1.776a4.412,4.412,0,0,1-2.106-.988Zm12.18-2.14a7.883,7.883,0,0,1,1.088-1.779c2.587,1.032,9.971,4.923,13.2,6.4.683.313,3.951,1.8,4.329,2.136.122.725.1,1.136-.4,1.494a1.076,1.076,0,0,1-1.351.028c-1.629-1.093-13.944-6.809-16.873-8.283ZM36.919,74.431a9.865,9.865,0,0,1-1.541.914c-.526.309-1.1.454-1.669.718a18.493,18.493,0,0,0-3.14,1.611,23.62,23.62,0,0,0-3.432,1.566c-.569.273-1.081.512-1.65.771l-.762.493a1.2,1.2,0,0,1-2.035-.909c.049-.719.743-.863,1.283-1.115a22.272,22.272,0,0,1,3.307-1.485c.359-.538,2-1.073,2.6-1.324.116-.109,3.644-1.809,3.831-1.862l1.541-.888c.394-.228,1.151-.462,1.682-.731l3.429-1.627L41.4,72.449c-1.361.362-3.334,1.777-4.481,1.982Zm77.394,2.889-3.27,8.425a31.392,31.392,0,0,1-4.174-1.551l2.558-2.548c.762-.679,3.379-4.614,3.643-4.789l2.638-5.505.741.313c-.148.864-1.86,4.231-2.137,5.655Zm2.629-8.066c.092-.253.232-.568.323-.827a13.868,13.868,0,0,1,1.958.856l1.8.883c.013-.026.058.032.085.052.746.239,1.411.755,2.268.967l-.885,1.6c-.344-.061-.351.006-.558-.288-.922-.552-.516-.45-1.33-.109-.694-.359-1.49-.727-2.116-1.109-.823-.5.422-.2-.689-.717a8.805,8.805,0,0,1-1.151-.453Zm13.951-.042c.3-.542.727-1.232,1.035-1.768l9.168,4.423c1.062.555,8.872,4.253,9.039,4.532.393,1.452-.791,2.139-1.831,1.42a7.764,7.764,0,0,0-1.135-.7c-.506-.262-.745-.352-1.251-.584l-7.613-3.706c-1.443-.733-6.67-3.01-7.413-3.616ZM36.506,70.63a3.1,3.1,0,0,1-1.213.617l-.853.442-1.149.6-2.627,1.275c-.409.21-.951.435-1.374.642a2.536,2.536,0,0,1-.673.264l-1.542.792c-1.107.628-2.48,1.113-3.5,1.685-1.205.674-2.737,1.936-3.309.372-.368-1,.308-1.176.944-1.472L24.64,74.2a9.932,9.932,0,0,1,1.727-.822l.438-.258c.157-.077.253-.108.393-.171.329-.148.528-.267.855-.45l1.24-.569c.4-.259,1.182-.573,1.706-.837.629-.317,1.158-.623,1.7-.874l.9-.353,1.736-.894a23.167,23.167,0,0,1,3.16-1.517l1.045,1.859c-.945.271-2.161,1.2-3.041,1.318Zm82.086-5.688,6.591,3.167c-.21.746-.75,1.177-.983,1.849a21.371,21.371,0,0,1-3.216-1.439c-1-.458-2.158-1.154-3.21-1.521l.819-2.055Zm31.846,7.482c.42.209.787.432,1.2.647.253.132.38.16.573.266.591.327.231-.01.458.437.491,1.3-1,1.871-1.875,1.269a18.231,18.231,0,0,0-2.486-1.325l-12.921-6.307a23.77,23.77,0,0,0-2.6-1.22,8.495,8.495,0,0,1,1.029-1.855l16.624,8.087ZM33.784,67.932a46.466,46.466,0,0,1-5.272,2.65c-.693.3-1.1.554-1.815.831a50.088,50.088,0,0,1-4.838,2.416l-2.37,1.308c-1.09.652-1.962-.2-1.728-1.486.109-.223,8.418-4.258,9.387-4.727l9.492-4.58,1.008,1.624a14.756,14.756,0,0,1-3.863,1.965Zm86.058-6.425,7.283,3.465-1.065,1.888a60.872,60.872,0,0,1-6.962-3.4l.744-1.953ZM67.48,81.169l-.448-.472c-.545-.349-.795-.895-1.3-1.324a18.733,18.733,0,0,1-2.253-2.844c-.364-.5-.7-1.013-1.015-1.528a27.476,27.476,0,0,1,14.19-39.846c1.671-.64,6.524-1.925,8.423-1.565.029.67-.016.656.257.974l-.009-1.058c8.443-.049,14.363,2.735,19.986,7.839a8.938,8.938,0,0,1,.894.944,25.7,25.7,0,0,1,4.821,7.2C115.23,58.483,114,70.213,107.672,77.9c-.244.3-.554.626-.777.918a28.557,28.557,0,0,1-5.451,4.879c-5.26,3.2-9.011,4.772-16.143,4.712.01-.551.128-1.484-.2-1.832L85.063,88.4a27.2,27.2,0,0,1-15.992-5.867,11.831,11.831,0,0,1-1.591-1.365Zm69.3-17.631c.942-.035,1.112-.631,1.554-1.021.676.388,1.677.774,2.456,1.174l7.183,3.558c1.647.8,3.238,1.581,4.842,2.375a10.5,10.5,0,0,1,2.323,1.23,1.193,1.193,0,0,1-1.5,1.662c-.18-.064-.752-.538-1.133-.741-.415-.22-.809-.388-1.24-.591l-7.118-3.491c-1.547-.8-3.244-1.666-4.838-2.374-.762-.339-1.632-.772-2.375-1.152-.475-.243-.753-.4-1.223-.618-.134-.063-.465-.205-.57-.264l-.523-.469c.794.2,1.323.754,2.16.723ZM35.651,62.911c.092.195.185-.038-.067.209L26.3,67.661c-1.606.765-3.18,1.585-4.828,2.387l-3.63,1.746c-.864.435-.485.5-1.012.7a1.144,1.144,0,0,1-1.414-1.724L27.4,64.792c1.452-.719,3.233-1.651,4.747-2.268.487.525.636,1.054,1.7,1.008.633-.028,1.5-.744,1.81-.621Zm88.065,10.77a15.22,15.22,0,0,1,1.8-3.367l5.625-9.276,2.29,1.154c-.311.9-6.5,10.686-7.549,12.7a23.619,23.619,0,0,1-2.172-1.209ZM39.408,61.037c.326.876.6.689.692,1.851a13.207,13.207,0,0,0,1.686,5.647c1.734,3.21,3.262,3.916,4.44,5.361a7.546,7.546,0,0,1-1.638.961c-.13-.133-7.2-11.7-7.63-12.7l2.45-1.118Zm85.609-1.085c.709.356,1.3.674,1.976,1a16.249,16.249,0,0,1,1.9.957c-.117.5-.253.526-.495.963-.2.366-.29.549-.488.855a10.96,10.96,0,0,1-1.931-.924c-1.151-.583-4.905-2.171-5.616-2.747l.673-1.968a11.955,11.955,0,0,1,2.079.944c.613.325,1.209.572,1.9.919Zm-91.483,2.1c.23-.544,1.064-.771,1.65-1.057l5.33-2.525c-.141.574-.21.523-.7.783l-4.464,2.185c-.557.257-1.309.848-1.811.614Zm99.218-1.761c-.523-.26-3.777-1.593-3.795-2.052.139-.069.146-.168.588,0,.084.031.388.186.488.236.362.181.657.34,1.037.517.7.325,1.372.628,2.006.965,1.1.583,3.619,1.528,3.845,2.127-.533.2-1.508-.479-2.1-.76-.744-.352-1.337-.666-2.068-1.029Zm-11.131-3.781c.87.2,1.152.788,2.145.644.961-.14.919-.71,1.42-1.156l2.622,1.2c-.319,1.418-.475,2.061,1.231,2.823.421.188.665.16.746.541a42.481,42.481,0,0,1-4.153-1.925c-.746-.352-1.377-.711-2.07-1.052a10.59,10.59,0,0,1-1.786-.911l-.154-.166Zm-4.357,7.72a44.92,44.92,0,0,0,.12-5.144c-.22-3.379.135-1.808.713-4.283.874.244,1.512.762,2.289,1.017a39.292,39.292,0,0,1-1.513,4.294,25.406,25.406,0,0,1-1.609,4.116ZM41.92,53.511c.352,1.221.156.869-.381,2.091-.449,1.021-.484.829-1.52,1.323l-19.15,9.4c-1.337.653-2.546,1.236-3.883,1.914-.586.3-1.377.6-1.9.931s-1.077,1.071-1.953.441a1.22,1.22,0,0,1,.033-1.944L41.92,53.511ZM123.447,55.3c.252.2.132.054.248.383-.393.149-.591-.041-1.071-.272-.3-.145-.627-.288-.948-.451-.666-.339-1.222-.653-1.887-.96s-1.238-.569-1.917-.893c-1.539-.734-1.539-.521-1.7-1.261l7.278,3.453ZM6.936,47.408a1.5,1.5,0,1,1-.784.666A1.91,1.91,0,0,1,6.936,47.408Zm155.3.041c1.925-.866,3.027,2.108,1.2,2.828C161.849,50.9,160.174,48.378,162.239,47.449Zm-48.273-1.125a27.766,27.766,0,0,1,2.932,1.39c1.033.5,1.867.907,2.843,1.391l16.85,8.327c3.867,1.861,7.532,3.819,11.253,5.572l8.424,4.159c3.216,1.663.867,3.268-.4,2.388-.954-.661-18.892-9.455-21.045-10.485l-16.877-8.285c-.781-.391-2.316-.819-2.692-1.557l-1.284-2.9ZM29.115,36.476c1.917-.759,2.675,2.353.965,2.879a1.528,1.528,0,0,1-1.981-.979,1.4,1.4,0,0,1,1.016-1.9Zm111.274-.026a1.519,1.519,0,0,1,.95,2.881A1.519,1.519,0,1,1,140.389,36.451ZM34.954,38.517A23.214,23.214,0,0,0,37.331,37.4c.913-.419,1.474-.682,2.3-1.094l18.6-9.108c.819-.4,1.592-.746,2.4-1.145a3.6,3.6,0,0,1,2.569-.7c1.057.249,1.268.977,1.7,1.837l3.4,7.1a62.117,62.117,0,0,0-7.236,3.936c-3.377,2.252-11.787,8.142-14.561,10.611-.411.366-.875,1.015-1.311,1.372a30.016,30.016,0,0,1-3.763,1.837l-.777-1.559c-.158.22-.2-.176-.029.41l.548,1.261L16.994,64.012c-9.01,4.211-8.107,5.32-10.846-.141L4.992,61.487c-1.381-2.79-3.829-6.12-1.656-7.464l31.4-15.3,1.451,3.033c.039.085.182.4.233.469.184.258.056.2.335.265-.439-1.274-1.459-2.666-1.8-3.979Zm73.495.238c-.587-.089.078.151-.276-.121s.109.146-.143-.144c0,0-.186-.322-.248-.4-.172-.088-3.876-3.493-5.493-4.159a17.9,17.9,0,0,1,1.04-2.209c.6-1.265,2.439-5.624,3.435-6.193,1.342-.767,3.6.81,4.682,1.333l47.337,23.078c1.461.692,2.882,1.431,4.276,2.094,5.615,2.671,5.813,2.26,3.729,6.651-.693,1.46-1.358,2.853-2.081,4.29-1.355,2.692-1.917,5.583-4.773,4.216l-6.468-3.144c-6.942-3.44-14.58-7-21.467-10.5l-8.551-4.174c-1.546-.687-2.989-1.442-4.381-2.124l-6.406-3.213-2.747-3.621c-.886-1.178-1.144-1.082-1.465-1.662ZM79.088,32.885a8.407,8.407,0,0,1-1.491.561,11.364,11.364,0,0,1-1.5.443,14.253,14.253,0,0,0-2.653,1.177c-3.846,1.525-7.824,5.246-10.265,8.387a28.753,28.753,0,0,0-5.2,24.046A29.162,29.162,0,0,0,68.17,83.576c7.671,6.233,16.163,5.962,16.9,6.33l.015.8c-8.287.139-11.464-1.563-18.35-5.27-4.5-2.424-7.017-4.173-10.936-6.6-2.887-1.788-1.855-1.233-2.854-2.889-.006.008-.209-.085-.03.517.043.144.216.5.256.584-1.082-.667-2.047-1.386-3.137-2.057-7.369-4.539-11.4-12.311-6.339-20.62a19.362,19.362,0,0,1,4.958-5.511C55.9,43.485,62.311,38.231,70.832,34.441c.031-.02.076-.041.1-.053l1.873-.967c2.089-1.335,4.132-1.559,6.591-2.125l5.686-.546L85,32.074c-.769.189-2.167.215-3,.328a26,26,0,0,1-2.911.483ZM115.12,67.99a25.657,25.657,0,0,1-1.285,4.186,18.523,18.523,0,0,1-1.849,3.432c-.118.706-2.61,4.127-3.183,4.7l-3.972,3.806c-4.151,3.838-12.969,6.94-19.5,6.586l.016-.9c7.069-.271,10.962-1.289,16.135-4.514A26.721,26.721,0,0,0,105.19,82.5a7.71,7.71,0,0,0,.7-.577c2.949-2.8,3.634-4.2,5.546-7.261a19.516,19.516,0,0,0,1.489-3.1l1.149-3.259a33.98,33.98,0,0,1,.592-3.625c1.153-8.32-1.438-15.86-6.5-22.227A28.144,28.144,0,0,0,98.83,35.1c-4.606-2.189-7.749-2.808-13.511-3l-.015-1.37c10.941.076,19.921,4.751,25.68,13.286a30.258,30.258,0,0,1,5.08,16.477c.016,1.611-.309,6.316-.944,7.495ZM53.366,24.676c1.913-.648,2.747,2.48.763,2.944A1.52,1.52,0,0,1,53.366,24.676Zm62.776,0c2.058-.619,2.577,2.436.889,2.923A1.528,1.528,0,1,1,116.141,24.68Zm2.874.733-1.126-1.475a3.447,3.447,0,0,0-2.761.2,2.616,2.616,0,0,0-.983,2.463,16.878,16.878,0,0,1-2.837-1.452c2.486-5.924,2.6-5.344,6.478-4.485,3.357.744,6.443,1.521,9.722,2.439A119.576,119.576,0,0,1,145.4,29.538a79.789,79.789,0,0,1,13.108,8.234c.631.5,1.1.778,1.7,1.266l3.36,2.721c1.155.958,2.119,1.939,3.239,2.844,1.332,1.077,2.726,2.076,2.022,3.687a41.959,41.959,0,0,0-1.877,4.053A15.932,15.932,0,0,1,164.114,51c.49-.688,1.207-.866,1.158-2.243a2.51,2.51,0,0,0-1.357-2.119c-1.068-.574-3.439-.339-3.531,2.529l-13.967-6.792c-.791-.4-4.037-1.836-4.494-2.242.54-.579,1.3-.841,1.3-2.262,0-2.945-4.847-3.74-4.883.533L133.1,35.9c-1.725-.835-3.315-1.675-5.121-2.523l-10.256-4.992c.3-.447.7-.492,1.012-1.068a3.9,3.9,0,0,0,.276-1.908ZM29.624,27.529c1.242-.521,2.509-.991,3.854-1.478.675-.245,1.3-.4,2.008-.646l10.029-3c2.867-.752,5.654-1.368,8.551-2.053,3.195-.755,2.972.674,5.054,4.792-.022.022-.055.052-.069.063l-2.829,1.428c-.052-1.33-.17-1.85-1.015-2.5a2.46,2.46,0,0,0-3.891,2.216c.134,1.3.828,1.432,1.3,2.041C51,29.4,40,34.493,37.163,35.968l-5.221,2.5a2.461,2.461,0,0,0-3.7-2.661,2.534,2.534,0,0,0-1.153,2.319,2.93,2.93,0,0,0,1.336,2.008c-.291.325-17.555,8.664-18.341,9.039l-.131-.421a2.46,2.46,0,0,0-4.919.144c.038,1.192.618,1.508,1.191,2.1a11.529,11.529,0,0,1-2.646,1.273A26.131,26.131,0,0,1,1.4,47.486c-.053-1.314.734-1.581,1.387-2.061.853-.627,2.174-2.136,3.574-3.21l3.742-3.049a79.054,79.054,0,0,1,16.787-10.5,24.56,24.56,0,0,1,2.422-1c.513.6.709,1.809,1.327,2.2-.208-.791-.784-1.5-1.019-2.328Zm127.2,7.311a9.1,9.1,0,0,1-1.1-.766c-.415-.28-.691-.314-1-.718-.564-.294-1.422-.893-1.975-1.255-7.723-5.049-15.849-7.685-24.671-10.261l-9.951-2.587c16.8-.13,33.734.142,50.477-.006,1.013-.009,1.124-.091,1.388.192a62.636,62.636,0,0,1,.1,6.415c0,6.23-.177,14.055.019,19.924l-6.432-5.667c-2.621-2.2-4.194-3.279-6.849-5.271ZM.091,19.327l.022.945L.1,34.391l.012,0L.1,40.786l.025.1c-.2,2.4.1,4.966-.1,7.3l.231.429L2.311,53C.921,54.451.661,55.654,1.7,57.853c.657,1.387,1.715,3.186,2.219,4.63l.183.228L6.355,67.34c1.454,2.4,3.763,1.406,4.926,1.034-.065,1.77.868,2.607,2.516,2.83a2.516,2.516,0,0,0,2.48,2.754,2.774,2.774,0,0,0,1.471,2.535l1.07.26.055.5a2.388,2.388,0,0,0,2.415,2.189,2.589,2.589,0,0,0,2.441,2.763c.335.925.261,2.483,2.594,2.782.231,1.766.726,2.461,2.489,2.742.415,2.11.65,2.2,2.563,2.816A2.513,2.513,0,0,0,33.8,93.22c.305.94.243,2.467,2.605,2.78.107,2.518,1.67,2.415,2.5,2.814l0,.831c.366.364.55.777.991,1.167a4.21,4.21,0,0,0,1.554.723l.453,1.763.5.354a5.315,5.315,0,0,0,1.52.631L44.1,105.3A2.426,2.426,0,0,0,46.434,107a2.538,2.538,0,0,0,1.776,2.61c1.284.425,2.446-.344,3.525-.821l6.284-2.686c.676.846,1.038,2.455,1.676,3.433-.431.535-6.389,3.014-7.554,3.619l.968,2.356a9.5,9.5,0,0,1,1.374,2.807l-1.437-.089-28.186-.007h-.127l29.751.237a1.389,1.389,0,0,1,.27.454,1.6,1.6,0,0,1,.04.191l-.027.283c-2.508.713-4.669.921-8.223,2.023-7.135,2.214-8.953,2.815-9.106,11.9-.058,3.46.085,6.941.013,10.4a6.3,6.3,0,0,0-1.29.206l1.321.071c-.208,5.778.311,11.466.3,17.387a45.736,45.736,0,0,1-.028,6.4c-2.881.332-20.742-.253-22.586.107.923.417,19.58-.012,22.583.114v7.875l.021,7.778,0,10.8c.341-.409.108.119.217-.616.191-1.286-.274-22.861.024-25.8,1.052-.174,6.954-.046,8.83-.047l2.133-.006c.566.036.35-.075.649.187l3.28.475c2.491.285,4.889.45,7.422.56,1.311.057,2.46-.218,3.388.543a14.974,14.974,0,0,0,2.347,1.745l0,4.383a11.422,11.422,0,0,0,.122,2.3,5.641,5.641,0,0,0,.889,1.615l.374.395a7.385,7.385,0,0,0,2.009.545c.881.043,1.606.056,2.414.119,1.6.126,3.456-.066,5.087.018,1.362-.066,2.735-.035,4.1-.024l4,.126a22.567,22.567,0,0,0,.1,4.177c.426-.53.106-3.347.179-4.278l7.457.006,21.774-.011,16.152-.015c.091,2.028-.237,12.71.109,13.543.113-.164.054.021.117-.3l.027-6.334c0-2.231-.09-4.694.024-6.9,4.635-.138,9.442,0,14.112-.009l41.847-.009c.042-.007.08-.015.118-.024l.205-.08a.4.4,0,0,0,.094-.049l-3.219-.082a38.451,38.451,0,0,1,1.443-4.763c-.546.213-.756.459-1.388.706l.038-14.9-.009-.174-.01-3.465,0-.011.005-3.523,0-.028.022-6.876-.011-.269-.012-3.436,0,.013.008-3.508,0-.082.013-6.834-.008-.314,0-6.9-.005-.118V119.29l.012-.3-.01-27.98.007-67.332,1.338.738c-.236-1.272-1.1-2.262-1.143-3.657-.272-.371-.1-.158-.253-.646-.2-.637,0-.48-.341-.587-.036,1.869-.974,3.316-1.405,4.916l1.135-.686c.3.3.126-.152.222.537l-.008,37.616c-.169,31.746.179,63.705,0,95.444-.035,6.33.145,12.778,0,19.089-.355.267-.123.045-.206-.013-.583-.179-.548-.386-1.169-.59.476,1.714,1.15,2.695,1.44,4.746l-30.491.021a24.912,24.912,0,0,1,.632-2.772,20.849,20.849,0,0,0,.922-2.424,4.169,4.169,0,0,0-1.185.709c-.392-.283-.212-1.321-.211-1.8l.013-43.833c.011-1.784-.125-14.353.058-14.984.995.157-.253.079,1.318.736a15.988,15.988,0,0,0-.985-2.719l-.492-2.231c.344-.007.711.018,1.012.011.828-.02.693-.077.918-.254l-40.231-.015c-2.119,0-2-.32-4.39-1.306l1.567-3.627a21.493,21.493,0,0,1,3.151,1.287c3.454,1.448,6.04,3.521,7.977,1.42a2.4,2.4,0,0,0,.518-1.749c1.867-.3,1.9-1.141,2.357-1.6l.232-1.191,1.249-.384a2.712,2.712,0,0,0,1.215-2.358c2.365-.4,2.314-1.739,2.552-2.8a2.428,2.428,0,0,0,2.447-2.671c1.85-.552,2.231-.809,2.567-2.808l1.047-.2c.212-.24.139-.175.468-.334a3.1,3.1,0,0,0,.924-1.707c.046-.956-.033-.279.254-.545a2.427,2.427,0,0,0,1.668-.913c.587-.676.47-.9.694-1.839,1.713-.23,2.229-1.055,2.46-2.765l.5.067c.145-.208-.1-.129.438-.225.488-.354.779-.414,1.117-.913a3.042,3.042,0,0,0,.44-1.284c.246-.965,2.232.007,2.538-3.106a8.841,8.841,0,0,0,1.645-.546,4.15,4.15,0,0,0,.821-2.24l.591.029c.135-.2,1.055-.5,1.408-.964a3.548,3.548,0,0,0,.544-1.827,2.5,2.5,0,0,0,2.481-2.67c1.016-.347,1.208-.252,1.88-.923.615-.614.563-1.016.684-1.968l1.227.448,1.615.007c1.079-.426,1.127-.369,1.787-1.113.4-.45.739-1.529,1.067-1.784a6.849,6.849,0,0,1,1.369-2.687l.062-.4.306-.528a40.649,40.649,0,0,1,2.118-4.5c1.187-2.318.671-3.2-.659-4.824l2.123-4.422.031-.152a4.227,4.227,0,0,0,.012-2.113l.1-27.079h9.7l7.344-.041.037-.118-7.381-.036-9.728-.016L170.306.131c-.343.366-.237.49-.229,1.114l-.029,17.716c-1.206.229-14.19.065-16.585.067-4.2.005-35.777.247-37.258-.149a3.782,3.782,0,0,0-3.188.464c-.865.688-2.591,4.116-2.938,5.262-1.308-.441-2.066-1.146-3.785-.383a4.589,4.589,0,0,0-2.093,2.56c-.985,2.095-2.016,4.232-3.1,6.373-3.235-1.16-4.5-2.474-9.6-3.32l-6.321-.53-5.428.461-1.328.364-.911.145-1.137.3c-.491.152-1.108.261-1.587.432-.556.2-.892.566-1.534.573-.309.389-.456.379-.914.538l-.788.326a6.041,6.041,0,0,1-1.644.947l-.46.133a28.474,28.474,0,0,0-1.584-3.367c-.915-1.824-1.963-5.036-3.7-5.912-1.718-.865-2.4-.023-3.736.322a29.386,29.386,0,0,1-1.565-3.089c-1.753-3.559-3.039-2.866-5.815-2.3-3.337.683-7.708,1.845-10.973,2.744l-7,2.131a7.705,7.705,0,0,1-1.99.694l-4.13,1.476-.223-.512,2.253-1.451a12.766,12.766,0,0,0,2.453-1.144l-1.371-.324c.2-.4-.023-.074.277-.411,1.51-1.692,7.348-5.056,9.176-5.961,9.64-4.773,21.737-6.5,32.625-6.575,2.387-.016,5.412.352,7.544.261-.224.68-.655.931-.886,1.679,1.458-.262,2.364-1.031,4.285-1.2a8.217,8.217,0,0,0,.087,2.48c.357-.513.12-1.778.158-2.523l.552-.233a2.055,2.055,0,0,1-.557-.291c0-.625.176-1.894-.152-2.32a6.273,6.273,0,0,0-.077,2.278c-1.711-.136-2.855-.881-4.285-1.342l.474,1.027a90.455,90.455,0,0,0-28.665,2.287c-6.2,1.616-13.844,4.659-18.781,8.666l-2.169,1.709-.37-1.378a13.661,13.661,0,0,0-1.149,2.343,13.264,13.264,0,0,0-1.363,2.285l-.637-.542.59,1.381a48.337,48.337,0,0,0-8.119,3.9C16.6,32.705,8.448,38.266,5,41.555L1.879,44.369c-.342.3-.621.392-.89.67-.21.217-.405.552-.65.8L.329,3.308C3.54,3.748,3.748,4.38,5.545,4.82a14.582,14.582,0,0,1-.714-1.369l80.231.015a7.4,7.4,0,0,0,.1,2.417c.338-.475,0-1.5.225-2.431l80.149,0c.017.415-.458.913-.631,1.389l4.774-1.51c.025-.009.086,0,.1-.048s.07-.03.1-.051a19.407,19.407,0,0,0-2.6-.674c-.938-.3-1.423-.674-2.385-.9a9.41,9.41,0,0,1,.642,1.35L4.811,2.988a7.73,7.73,0,0,0,.725-1.344c-1.813.494-2.984,1.3-5.21,1.52C.348,2.612.34,2.082.343,1.532L.187.141C.034.488-.047,17.76.09,19.329Z" transform="translate(0)" fill="#636268" fill-rule="evenodd"/>
  </g>
</svg>
