<svg xmlns="http://www.w3.org/2000/svg" width="173.395" height="51.549" viewBox="0 0 173.395 51.549">
  <g id="Layer_x0020_1" transform="translate(2.807 0.004)">
    <g id="_1797415655936" transform="translate(-2.807 -0.004)">
      <g id="Group_311605" data-name="Group 311605" transform="translate(0)">
        <path id="Path_297976" data-name="Path 297976" d="M12.044,5.447c-.272,0-.4.118-.4.4,0,7.76.042,15.508-.011,23.269l-.014,2.108c0,.212-.089.254-.262.126L.17,23.207a.349.349,0,0,1-.141-.425L7.32.273A.35.35,0,0,1,7.655.026C15.587.01,23.524-.019,31.455.006a.334.334,0,0,1,.318.228L33.4,5.215a.148.148,0,0,1,.006.046.162.162,0,0,1-.161.163c-7.044.035-14.138.019-21.2.019Zm23.4,6.715a.3.3,0,0,1,.281.206l3.4,10.467a.291.291,0,0,1-.112.347L19.849,37.112a.18.18,0,0,1-.1.03.172.172,0,0,1-.173-.171l0-11.4a.115.115,0,0,1,.112-.117h8.28a.266.266,0,0,0,.262-.224l.976-5.7c.029-.161-.04-.243-.206-.243l-4.22-.042-4.934-.029a.213.213,0,0,1-.243-.243l0-1.958.07-4.611a.221.221,0,0,1,.252-.248h15.5Z" transform="translate(-0.007 0.004)" fill="#b72222"/>
        <path id="Path_297977" data-name="Path 297977" d="M298.034,47.986V51.7a.2.2,0,0,0,.2.2l8.368,0a.2.2,0,0,1,.2.2v4.817a.2.2,0,0,1-.2.2h-8.37a.2.2,0,0,0-.2.2l0,8.715a.2.2,0,0,1-.2.2l-5.424,0a.2.2,0,0,1-.2-.2l0-23.261a.2.2,0,0,1,.2-.2l15.668,0a.2.2,0,0,1,.2.2l0,4.8a.2.2,0,0,1-.2.2h-9.846a.2.2,0,0,0-.2.2h0Zm72.349,9.742v8.215a.259.259,0,0,1-.294.294l-5.2,0a.292.292,0,0,1-.332-.327l0-23.135h0a.188.188,0,0,1,.182-.187q4.557-.029,9.251.019c4.589.042,8.093,3.107,7.972,7.78a6.619,6.619,0,0,1-3.6,5.859.237.237,0,0,0-.1.355l3.8,7.308c.1.187.182.18.257-.019l7.686-21.155a.256.256,0,0,1,.24-.168l4.087.014a.286.286,0,0,1,.291.2l8.169,22.476q.393,1.071.393-.07V42.909a.293.293,0,0,1,.332-.332h5.164a.272.272,0,0,1,.308.308l0,17.874a.24.24,0,0,0,.272.272h9.467a.2.2,0,0,1,.2.2v4.856a.154.154,0,0,1-.155.153l-21.463,0a.326.326,0,0,1-.342-.252l-.9-3.046a.3.3,0,0,0-.278-.211h-6.833a.321.321,0,0,0-.332.238l-1,3a.4.4,0,0,1-.379.275H376.779a.386.386,0,0,1-.374-.233l-3.944-8.312a.407.407,0,0,0-.383-.248l-1.407-.01a.255.255,0,0,0-.289.289Zm-.014-9.761.019,4.468a.168.168,0,0,0,.168.168l3.07-.01a2.473,2.473,0,0,0,2.565-2.364h0v-.083a2.474,2.474,0,0,0-2.575-2.354h0l-3.078.01a.168.168,0,0,0-.168.168Zm21.98,3.921-1.925,5.72c-.053.158.021.238.219.238l3.533,0c.184,0,.248-.089.192-.267l-1.813-5.7Q392.452,51.57,392.349,51.889Zm-39.8,5.167v3.813a.164.164,0,0,0,.163.163h9.916a.164.164,0,0,1,.163.163v4.883a.164.164,0,0,1-.163.163H346.911a.163.163,0,0,1-.163-.163l0-23.336a.164.164,0,0,1,.163-.163h15.719a.164.164,0,0,1,.163.163l-.01,4.878a.163.163,0,0,1-.163.163h-9.916a.164.164,0,0,0-.163.163l-.01,3.616a.164.164,0,0,0,.163.163h8.458a.164.164,0,0,1,.163.163l.014,4.841a.164.164,0,0,1-.163.163l-8.462,0a.164.164,0,0,0-.163.163h0ZM327.462,42.8a.211.211,0,0,1,.211-.211l8.958-.014a8.393,8.393,0,0,1,8.453,8.341v0l.01,6.975a8.394,8.394,0,0,1-8.438,8.355h0l-8.943.014a.211.211,0,0,1-.211-.211L327.464,42.8Zm5.827,5.225V60.814a.248.248,0,0,0,.248.248h2.49a3.308,3.308,0,0,0,3.215-3.393v-6.5a3.307,3.307,0,0,0-3.215-3.393h-2.49A.247.247,0,0,0,333.289,48.02Zm-17.831,9.057,0,3.786a.178.178,0,0,0,.177.177l9.926,0a.178.178,0,0,1,.177.177l-.01,4.851a.178.178,0,0,1-.177.177l-15.733,0a.178.178,0,0,1-.177-.177v-23.3a.178.178,0,0,1,.177-.177h15.738a.178.178,0,0,1,.177.177v4.846a.178.178,0,0,1-.177.177h-9.921a.178.178,0,0,0-.177.177l.01,3.589a.178.178,0,0,0,.177.177l8.4,0a.178.178,0,0,1,.177.177v4.817a.178.178,0,0,1-.177.177h-8.407a.178.178,0,0,0-.177.177Z" transform="translate(-245.537 -35.77)" fill="#fff"/>
      </g>
      <path id="Path_300776" data-name="Path 300776" d="M4.649-15.423H2.626V-13.8H4.49v.758H2.626v2.264h-.9v-5.41h2.92Zm4.919,4.648H6.53v-5.41H9.447v.762H7.428v1.532h1.86v.758H7.428v1.6H9.567Zm1.882,0v-5.41h1.562Q16-16.185,16-13.548a2.6,2.6,0,0,1-.83,2.013,3.168,3.168,0,0,1-2.226.76Zm.894-4.648v3.89h.717a2,2,0,0,0,1.473-.521,1.977,1.977,0,0,0,.526-1.471,1.708,1.708,0,0,0-1.966-1.9Zm8.6,4.648H17.91v-5.41h2.916v.762H18.808v1.532h1.86v.758h-1.86v1.6h2.139Zm6.062,0H25.96L25.1-12.224a3.026,3.026,0,0,0-.228-.341,1.374,1.374,0,0,0-.226-.232.764.764,0,0,0-.251-.132,1.044,1.044,0,0,0-.306-.042h-.362v2.2h-.894v-5.41H24.61a2.576,2.576,0,0,1,.7.091,1.631,1.631,0,0,1,.558.274,1.276,1.276,0,0,1,.372.457,1.438,1.438,0,0,1,.134.639,1.566,1.566,0,0,1-.085.526,1.369,1.369,0,0,1-.241.426,1.477,1.477,0,0,1-.377.319,1.885,1.885,0,0,1-.5.2v.015a1.393,1.393,0,0,1,.257.183q.109.1.208.206a2.466,2.466,0,0,1,.194.24q.1.134.213.311Zm-3.286-4.682V-13.7h.747a1.107,1.107,0,0,0,.383-.064.876.876,0,0,0,.3-.185.837.837,0,0,0,.2-.294,1.009,1.009,0,0,0,.072-.389.772.772,0,0,0-.245-.607,1.026,1.026,0,0,0-.706-.219ZM33-10.775h-.985l-.487-1.377H29.4l-.468,1.377h-.981l2.026-5.41h1.011Zm-1.709-2.109-.751-2.158a2.556,2.556,0,0,1-.072-.34h-.015a2.208,2.208,0,0,1-.075.34l-.743,2.158Zm6.367,2.109h-3v-5.41h.9v4.652h2.1Zm4.744,0v-5.41h1.562q2.992,0,2.992,2.637a2.6,2.6,0,0,1-.83,2.013,3.168,3.168,0,0,1-2.226.76Zm.894-4.648v3.89h.717a2,2,0,0,0,1.473-.521,1.977,1.977,0,0,0,.526-1.471,1.708,1.708,0,0,0-1.966-1.9Zm7.8,4.739a2.433,2.433,0,0,1-1.873-.758,2.785,2.785,0,0,1-.7-1.973,2.951,2.951,0,0,1,.717-2.083,2.518,2.518,0,0,1,1.947-.777,2.379,2.379,0,0,1,1.835.755,2.8,2.8,0,0,1,.7,1.973A2.96,2.96,0,0,1,53-11.454,2.472,2.472,0,0,1,51.1-10.685Zm.042-4.8a1.505,1.505,0,0,0-1.209.555,2.194,2.194,0,0,0-.466,1.46,2.215,2.215,0,0,0,.453,1.453,1.46,1.46,0,0,0,1.185.551,1.53,1.53,0,0,0,1.226-.524,2.188,2.188,0,0,0,.449-1.468,2.294,2.294,0,0,0-.436-1.5A1.473,1.473,0,0,0,51.138-15.487Zm.77-1.188a.47.47,0,0,1-.326-.125.408.408,0,0,1-.138-.317.408.408,0,0,1,.132-.309.45.45,0,0,1,.321-.125.481.481,0,0,1,.338.126.4.4,0,0,1,.138.307.42.42,0,0,1-.132.313A.457.457,0,0,1,51.908-16.676Zm-1.569,0a.475.475,0,0,1-.336-.13.411.411,0,0,1-.14-.311A.405.405,0,0,1,50-17.427a.462.462,0,0,1,.326-.125.485.485,0,0,1,.334.126.4.4,0,0,1,.141.307.414.414,0,0,1-.136.313A.456.456,0,0,1,50.339-16.676Zm9.382,5.9h-1.17L56.668-13.25a1.367,1.367,0,0,1-.128-.189h-.015v2.664h-.9v-5.41h.9v2.543h.015a1.245,1.245,0,0,1,.128-.185l1.815-2.358h1.075l-2.124,2.6Zm5.707-2.188q0,2.279-2.158,2.279-2.067,0-2.067-2.192v-3.309h.9v3.124q0,1.592,1.237,1.592,1.192,0,1.192-1.536v-3.18h.9ZM64.1-16.683a.47.47,0,0,1-.326-.125.408.408,0,0,1-.138-.317.408.408,0,0,1,.132-.309.45.45,0,0,1,.321-.125.481.481,0,0,1,.338.126.4.4,0,0,1,.138.307.42.42,0,0,1-.132.313A.457.457,0,0,1,64.1-16.683Zm-1.569,0a.475.475,0,0,1-.336-.13.411.411,0,0,1-.14-.311.405.405,0,0,1,.134-.309.462.462,0,0,1,.326-.125.485.485,0,0,1,.334.126.4.4,0,0,1,.141.307.414.414,0,0,1-.136.313A.456.456,0,0,1,62.526-16.683Zm10.9,5.908h-.89v-3.5q0-.43.053-1.053h-.015a3.636,3.636,0,0,1-.147.509l-1.615,4.044H70.2l-1.619-4.014a3.78,3.78,0,0,1-.143-.54h-.015q.03.324.03,1.06v3.494h-.83v-5.41h1.264l1.422,3.6a5.327,5.327,0,0,1,.211.619h.019q.14-.426.226-.634l1.449-3.588h1.219Zm5.046-.215v-.924a1.428,1.428,0,0,0,.3.2,2.288,2.288,0,0,0,.364.153,2.869,2.869,0,0,0,.385.1,2.052,2.052,0,0,0,.355.034,1.514,1.514,0,0,0,.843-.189.621.621,0,0,0,.277-.547A.6.6,0,0,0,80.9-12.5a.969.969,0,0,0-.258-.258,2.715,2.715,0,0,0-.39-.224q-.224-.108-.481-.224-.275-.147-.513-.3a2.208,2.208,0,0,1-.413-.334,1.4,1.4,0,0,1-.275-.413,1.345,1.345,0,0,1-.1-.54,1.245,1.245,0,0,1,.172-.662,1.45,1.45,0,0,1,.453-.464,2.075,2.075,0,0,1,.639-.272,3.037,3.037,0,0,1,.732-.089,2.954,2.954,0,0,1,1.237.192v.887a1.976,1.976,0,0,0-1.185-.332,2.123,2.123,0,0,0-.4.038,1.183,1.183,0,0,0-.355.125.768.768,0,0,0-.255.223.546.546,0,0,0-.1.328.621.621,0,0,0,.075.313.808.808,0,0,0,.221.241,2.255,2.255,0,0,0,.355.213q.209.1.485.224.283.147.534.309a2.517,2.517,0,0,1,.441.358,1.575,1.575,0,0,1,.3.436,1.28,1.28,0,0,1,.111.545,1.351,1.351,0,0,1-.166.694,1.338,1.338,0,0,1-.447.46,1.991,1.991,0,0,1-.647.257,3.648,3.648,0,0,1-.773.079,3.294,3.294,0,0,1-.334-.021q-.2-.021-.406-.06a3.731,3.731,0,0,1-.392-.1A1.242,1.242,0,0,1,78.474-10.99Zm9.819.215h-.985l-.487-1.377H84.694l-.468,1.377h-.981l2.026-5.41h1.011Zm-1.709-2.109-.751-2.158a2.557,2.557,0,0,1-.072-.34h-.015a2.21,2.21,0,0,1-.075.34l-.743,2.158Zm7.959,2.109h-.981l-2.584-3.977a1.763,1.763,0,0,1-.162-.313h-.023a5.57,5.57,0,0,1,.03.743v3.546h-.868v-5.41H91L93.5-12.3q.158.241.2.332h.015a4.807,4.807,0,0,1-.038-.728v-3.486h.864Zm6.7,0h-.985l-.487-1.377H97.648l-.468,1.377H96.2l2.026-5.41h1.011Zm-1.709-2.109-.751-2.158a2.558,2.558,0,0,1-.072-.34H98.7a2.208,2.208,0,0,1-.075.34l-.743,2.158Zm6.556-3.3-1.773,3.445v1.966h-.9v-1.947L101.7-16.185h1.022l1.064,2.32q.019.042.113.313h.011a2.142,2.142,0,0,1,.124-.313l1.113-2.32Zm2.53,5.41H107.7v-5.41h.924Zm-.475-5.908a.466.466,0,0,1-.326-.126.406.406,0,0,1-.138-.311.4.4,0,0,1,.136-.306.468.468,0,0,1,.328-.125.473.473,0,0,1,.328.123.4.4,0,0,1,.136.307.41.41,0,0,1-.136.309A.461.461,0,0,1,108.149-16.683Zm10.011.5-1.943,5.41h-1l-1.909-5.41h.981l1.336,4.1a2.531,2.531,0,0,1,.1.457h.015a2.4,2.4,0,0,1,.109-.464l1.366-4.1Zm4.673,5.41H119.8v-5.41h2.916v.762h-2.018v1.532h1.86v.758h-1.86v1.6h2.139Zm8.4-4.648h-1.554v4.648h-.9v-4.648h-1.551v-.762h4Zm2.632,4.648h-.924v-5.41h.924Zm-.475-5.908a.466.466,0,0,1-.326-.126.406.406,0,0,1-.138-.311.4.4,0,0,1,.136-.306.469.469,0,0,1,.328-.125.473.473,0,0,1,.328.123.4.4,0,0,1,.136.307.41.41,0,0,1-.136.309A.461.461,0,0,1,133.386-16.683Zm6.5,5.682a3.28,3.28,0,0,1-1.52.317,2.486,2.486,0,0,1-1.886-.743,2.708,2.708,0,0,1-.709-1.951,2.84,2.84,0,0,1,.8-2.1,2.73,2.73,0,0,1,2.017-.8,3.3,3.3,0,0,1,1.3.223v.89a2.323,2.323,0,0,0-1.207-.324,1.9,1.9,0,0,0-1.424.562,2.065,2.065,0,0,0-.545,1.5A1.969,1.969,0,0,0,137.218-12a1.773,1.773,0,0,0,1.339.53,2.4,2.4,0,0,0,1.328-.362Zm2.21.309a.541.541,0,0,1-.385-.149.473.473,0,0,1-.158-.357.483.483,0,0,1,.158-.362.537.537,0,0,1,.385-.151.549.549,0,0,1,.39.151.48.48,0,0,1,.16.362.47.47,0,0,1-.16.357A.553.553,0,0,1,142.1-10.692Zm5.515-.083h-3v-5.41h.9v4.652h2.1Zm4.707-4.648h-1.554v4.648h-.9v-4.648h-1.551v-.762h4Zm1.712,4.648v-5.41h1.562q2.992,0,2.992,2.637a2.6,2.6,0,0,1-.83,2.013,3.168,3.168,0,0,1-2.226.76Zm.894-4.648v3.89h.717a2,2,0,0,0,1.473-.521,1.977,1.977,0,0,0,.526-1.471,1.708,1.708,0,0,0-1.966-1.9Zm5.39,4.731a.541.541,0,0,1-.385-.149.473.473,0,0,1-.158-.357.483.483,0,0,1,.158-.362.537.537,0,0,1,.385-.151.549.549,0,0,1,.391.151.48.48,0,0,1,.16.362.47.47,0,0,1-.16.357A.553.553,0,0,1,160.314-10.692Zm2.27-.3v-.924a1.427,1.427,0,0,0,.3.2,2.289,2.289,0,0,0,.364.153,2.869,2.869,0,0,0,.385.1,2.052,2.052,0,0,0,.355.034,1.514,1.514,0,0,0,.843-.189.621.621,0,0,0,.277-.547.6.6,0,0,0-.092-.334.97.97,0,0,0-.258-.258,2.716,2.716,0,0,0-.39-.224q-.224-.108-.481-.224-.275-.147-.513-.3a2.208,2.208,0,0,1-.413-.334,1.4,1.4,0,0,1-.275-.413,1.345,1.345,0,0,1-.1-.54,1.245,1.245,0,0,1,.172-.662,1.45,1.45,0,0,1,.453-.464,2.075,2.075,0,0,1,.639-.272,3.037,3.037,0,0,1,.732-.089,2.954,2.954,0,0,1,1.237.192v.887a1.976,1.976,0,0,0-1.185-.332,2.123,2.123,0,0,0-.4.038,1.183,1.183,0,0,0-.355.125.768.768,0,0,0-.255.223.546.546,0,0,0-.1.328.621.621,0,0,0,.075.313.808.808,0,0,0,.221.241,2.255,2.255,0,0,0,.355.213q.209.1.485.224.283.147.534.309a2.517,2.517,0,0,1,.441.358,1.575,1.575,0,0,1,.3.436,1.28,1.28,0,0,1,.111.545,1.351,1.351,0,0,1-.166.694,1.338,1.338,0,0,1-.447.46,1.991,1.991,0,0,1-.647.257,3.648,3.648,0,0,1-.773.079,3.294,3.294,0,0,1-.334-.021q-.2-.021-.406-.06a3.731,3.731,0,0,1-.392-.1A1.242,1.242,0,0,1,162.584-10.99Zm2.562,1.151q0,.732-1.087.732-.177,0-.306-.011v-.419a2.077,2.077,0,0,0,.268.023q.5,0,.5-.309,0-.279-.457-.279a1.336,1.336,0,0,0-.147.015v-.687h.513v.355a.815.815,0,0,1,.521.153A.516.516,0,0,1,165.146-9.839Zm6.284-5.584h-1.554v4.648h-.9v-4.648h-1.551v-.762h4Zm2.632,4.648h-.924v-5.41h.924Zm-.475-5.908a.466.466,0,0,1-.326-.126.406.406,0,0,1-.138-.311.4.4,0,0,1,.136-.306.469.469,0,0,1,.328-.125.473.473,0,0,1,.328.123.4.4,0,0,1,.136.307.41.41,0,0,1-.136.309A.461.461,0,0,1,173.587-16.683Z" transform="translate(-1.083 60.656)" fill="#fff"/>
    </g>
  </g>
</svg>
