<svg id="linkedin" xmlns="http://www.w3.org/2000/svg" width="21.545" height="21.604" viewBox="0 0 21.545 21.604">
  <g id="Group_16251" data-name="Group 16251" transform="translate(7.458 6.733)">
    <path id="Path_10770" data-name="Path 10770" d="M593.157,795.889c0,.486.171.714.686.714,1.028-.028,2.086-.028,3.115,0,.6.029.857-.143.828-.829-.028-2.229-.028-4.429,0-6.658a5.909,5.909,0,0,1,.172-1.428,2.242,2.242,0,0,1,2.428-1.829c1.2.028,1.829.6,2.057,1.914a7.4,7.4,0,0,1,.115,1.372c0,2.257.029,4.543,0,6.8,0,.486.171.657.629.657q1.629-.042,3.257,0c.6.029.743-.257.743-.8-.029-1.457.029-2.914-.029-4.372-.057-1.829-.057-3.657-.257-5.458a4.14,4.14,0,0,0-2.857-3.829c-2.4-.743-4.629-.515-6.429,1.686a8.443,8.443,0,0,1,0-.857c.086-.657-.171-.914-.857-.886-.943.057-1.886.029-2.858,0-.543-.029-.8.143-.8.743C593.186,787.2,593.157,791.546,593.157,795.889Z" transform="translate(-593.1 -781.763)" fill="#fff"/>
  </g>
  <g id="Group_16252" data-name="Group 16252" transform="translate(0.314 7.084)">
    <path id="Path_10771" data-name="Path 10771" d="M571.986,782.993c-1.057.029-2.115.029-3.2,0-.543-.028-.686.229-.686.714v13.116c0,.514.2.686.714.686,1.057-.029,2.114-.029,3.2,0,.6.029.743-.229.714-.771-.029-2.143,0-4.286,0-6.458s-.029-4.343,0-6.515C572.758,783.135,572.558,782.964,571.986,782.993Z" transform="translate(-568.1 -782.99)" fill="#fff"/>
  </g>
  <g id="Group_16253" data-name="Group 16253" transform="translate(0 0)">
    <path id="Path_10772" data-name="Path 10772" d="M569.629,763.542a2.729,2.729,0,0,0,2.686-2.629,2.785,2.785,0,0,0-2.686-2.715,2.672,2.672,0,0,0,0,5.344Z" transform="translate(-567 -758.198)" fill="#fff"/>
  </g>
</svg>
