<svg xmlns="http://www.w3.org/2000/svg" width="108.729" height="77.249" viewBox="0 0 108.729 77.249">
  <g id="Page-1" transform="translate(-0.1 -0.3)" opacity="0.995">
    <g id="ce-logo" transform="translate(0.1 0.3)">
      <path id="Shape" d="M42.372,65.657V77.049h0l-3.8.2A38.575,38.575,0,0,1,38.575.1c1.3,0,2.6.1,3.8.2h0V11.692h0a23.387,23.387,0,0,0-3.8-.3,27.182,27.182,0,0,0,0,54.364,23.792,23.792,0,0,0,3.8-.1ZM78.348,32.778h22.285V44.571H78.348a27.225,27.225,0,0,0,26.583,21.286,23.386,23.386,0,0,0,3.8-.3h0V76.949h0c-1.3.1-2.5.2-3.8.2a38.575,38.575,0,1,1,0-77.149c1.3,0,2.6.1,3.8.2h0V11.692h0a24.318,24.318,0,0,0-3.8-.3A27.417,27.417,0,0,0,78.348,32.778Z" transform="translate(0)" fill="#8987a2" fill-rule="evenodd"/>
    </g>
  </g>
</svg>
