<svg xmlns="http://www.w3.org/2000/svg" width="39.873" height="39.874" viewBox="0 0 39.873 39.874">
  <g id="slovenya" transform="translate(0)">
    <g id="c" transform="translate(0)">
      <g id="Group_311622" data-name="Group 311622">
        <g id="Group_311620" data-name="Group 311620">
          <path id="Path_298005" data-name="Path 298005" d="M20.395,0A19.925,19.925,0,0,0,1.85,12.609H6.529v6c0,2.693,4.875,4.883,4.875,4.883S16.28,21.3,16.28,18.605v-6H38.94A19.925,19.925,0,0,0,20.395,0ZM15.189,18.154c0,2.084-3.784,3.777-3.784,3.777s-3.777-1.693-3.777-3.777V11.232h7.561Z" transform="translate(-0.458)" fill="#fff"/>
          <path id="Path_298006" data-name="Path 298006" d="M38.94,36.24a19.942,19.942,0,0,1-37.09,0Z" transform="translate(-0.458 -8.975)" fill="#d80027"/>
          <path id="Path_298007" data-name="Path 298007" d="M39.873,24.088a19.749,19.749,0,0,1-1.392,7.328H1.392a19.986,19.986,0,0,1,0-14.655H6.071v6c0,2.693,4.875,4.883,4.875,4.883s4.875-2.189,4.875-4.883v-6h22.66a19.749,19.749,0,0,1,1.392,7.328Z" transform="translate(0 -4.151)" fill="#14439e"/>
        </g>
        <g id="Group_311621" data-name="Group 311621" transform="translate(7.17 11.232)">
          <path id="Path_298008" data-name="Path 298008" d="M17.091,14.93v5.823a2.132,2.132,0,0,0-2.137-.549,2.1,2.1,0,0,0-1.144-.722,2.078,2.078,0,0,0-.993,0,2.074,2.074,0,0,0-1.144.722,2.213,2.213,0,0,0-.632-.09,2.127,2.127,0,0,0-1.512.639V14.93Z" transform="translate(-9.53 -14.93)" fill="#f30040"/>
          <path id="Path_298009" data-name="Path 298009" d="M17.091,22.232v1.1A3.523,3.523,0,0,1,15.466,25.8a11.515,11.515,0,0,1-2.159,1.309,11.8,11.8,0,0,1-2.152-1.3A3.536,3.536,0,0,1,9.53,23.33v-1.1a2.127,2.127,0,0,1,1.512-.639,2.213,2.213,0,0,1,.632.09,2.074,2.074,0,0,1,1.144-.722,2.078,2.078,0,0,1,.993,0,2.1,2.1,0,0,1,1.144.722,2.132,2.132,0,0,1,2.137.549Z" transform="translate(-9.53 -16.409)" fill="#14439e"/>
        </g>
        <path id="Path_298010" data-name="Path 298010" d="M16.258,17.466v.993H14.219V19.6a2.078,2.078,0,0,0-.993,0V18.459H11.18v-.993h2.046V16.9h-1.5v-1h1.5V15.42h.993V15.9h1.5v1h-1.5v.564Z" transform="translate(-2.769 -3.819)" fill="#fff"/>
      </g>
    </g>
  </g>
</svg>
