<svg id="twitter" xmlns="http://www.w3.org/2000/svg" width="26.516" height="21.691" viewBox="0 0 26.516 21.691">
  <path id="Path_10764" data-name="Path 10764" d="M953.8,784.764c.029.029.087.058.117.088a14.627,14.627,0,0,0,1.9.993,14.987,14.987,0,0,0,5.49,1.314,18.478,18.478,0,0,0,2.541-.059,17.515,17.515,0,0,0,2.1-.35,14.439,14.439,0,0,0,7.535-4.439,15.934,15.934,0,0,0,3.68-6.834,14.908,14.908,0,0,0,.467-2.774,15.335,15.335,0,0,0,.029-1.636.284.284,0,0,1,.117-.263,11.387,11.387,0,0,0,2.482-2.541.171.171,0,0,0,.059-.146,10.136,10.136,0,0,1-3.037.788.416.416,0,0,1,.117-.088,5.508,5.508,0,0,0,2.19-2.745c.029-.029.029-.088.058-.146a.647.647,0,0,0-.146.088,11.014,11.014,0,0,1-3.183,1.2c-.088.029-.146,0-.234-.087a5.366,5.366,0,0,0-5.14-1.489,5.453,5.453,0,0,0-4.118,6.337c0,.088.029.146.029.263a14.745,14.745,0,0,1-3.212-.5,15.783,15.783,0,0,1-8.119-5.228,5.425,5.425,0,0,0-.73,2.57,5.575,5.575,0,0,0,2.395,4.731,4.5,4.5,0,0,1-1.256-.175,6.784,6.784,0,0,1-1.2-.467,5.273,5.273,0,0,0,.643,2.6,5.485,5.485,0,0,0,3.709,2.8c-.029.029-.058.029-.117.058a5.377,5.377,0,0,1-2.161.087h-.146a5.917,5.917,0,0,0,.584,1.227,4.79,4.79,0,0,0,.847,1.022,4.667,4.667,0,0,0,1.08.789,4.513,4.513,0,0,0,1.227.5,6.814,6.814,0,0,0,1.314.2,9.734,9.734,0,0,1-2.307,1.4A10.43,10.43,0,0,1,953.8,784.764Zm14.748-.175h0c.029.029.029.029.029.058h-.029A.04.04,0,0,1,968.548,784.589Zm0,.292h0c.029.029.029.029.029.058h-.029C968.519,784.94,968.548,784.91,968.548,784.881Z" transform="translate(-953.8 -765.485)" fill="#fff"/>
</svg>
